<?xml version="1.0" encoding="utf-8"?>
<svg id="Layer_1" data-name="Layer 1" xmlns="http://www.w3.org/2000/svg" viewBox="0 0 182 79">
  <defs>
    <style>
      .cls-1, .cls-5 {
        isolation: isolate;
      }

      .cls-2 {
        opacity: 0.75;
      }

      .cls-3, .cls-4 {
        fill: none;
      }

      .cls-3 {
        stroke: #000;
      }

      .cls-3, .cls-4, .cls-5 {
        stroke-miterlimit: 10;
      }

      .cls-4, .cls-5 {
        stroke: #fff;
      }

      .cls-5 {
        stroke-width: 0.5px;
      }

      .cls-6 {
        fill: #fff;
      }
    </style>
  </defs>
  <g class="cls-1">
    <g class="cls-2">
      <polygon points="4 64.68 22.07 15.49 37.74 15.49 54.39 64.68 41.02 64.68 38.72 56.13 20.87 56.13 18.13 64.68 4 64.68"/>
      <polygon class="cls-3" points="4 64.68 22.07 15.49 37.74 15.49 54.39 64.68 41.02 64.68 38.72 56.13 20.87 56.13 18.13 64.68 4 64.68"/>
    </g>
    <g>
      <polygon points="2.58 63.26 20.65 14.07 36.32 14.07 52.97 63.26 39.61 63.26 37.31 54.71 19.45 54.71 16.71 63.26 2.58 63.26"/>
      <polygon class="cls-4" points="2.58 63.26 20.65 14.07 36.32 14.07 52.97 63.26 39.61 63.26 37.31 54.71 19.45 54.71 16.71 63.26 2.58 63.26"/>
    </g>
  </g>
  <rect class="cls-5" x="28.77" y="26.29" width="35.67" height="21.73"/>
  <g>
    <polygon class="cls-6" points="46.68 45.66 40.26 45.66 46.54 28.64 52.95 28.64 46.68 45.66"/>
    <polygon class="cls-6" points="55.67 40.14 57.88 34.12 37.54 34.16 35.34 40.18 55.67 40.14"/>
  </g>
  <g>
    <path d="M84.61,27.12h2.61l4.51,11.5H89.18l-1-2.64H83.53l-1,2.64H80.13Zm1.27,2.3h0l-1.66,4.75h3.36Z"/>
    <path d="M93,27.12H95.5c2.47,0,5.42-.09,5.42,3.11a2.63,2.63,0,0,1-2.37,2.67v0c.63,0,1,.68,1.22,1.19l1.85,4.5H99.05L97.66,35c-.33-.86-.62-1.19-1.6-1.19h-.74v4.78H93ZM95.32,32h.76c1.14,0,2.44-.17,2.44-1.6s-1.29-1.5-2.44-1.5h-.76Z"/>
    <path d="M103.28,27.12H107l2.74,8.71h0l2.73-8.71h3.7v11.5H114V29.13h0l-3.09,9.49h-2.21l-3.1-9.49,0,0v9.46h-2.21Z"/>
    <path d="M118.83,27.12h6.79v1.81h-4.48v2.83h4.1v1.82h-4.1v3.23h4.51v1.81h-6.82Z"/>
    <path d="M128,27.12h6.79v1.81h-4.49v2.83h4.11v1.82h-4.11v3.23h4.52v1.81H128Z"/>
    <path d="M143.33,29.23a5.89,5.89,0,0,0-2.34-.5,1.61,1.61,0,0,0-1.82,1.6c0,2,5.05,1.15,5.05,5,0,2.52-2,3.48-4.32,3.48a10.17,10.17,0,0,1-3-.45l.21-2.07a5.69,5.69,0,0,0,2.61.7c.87,0,2-.44,2-1.48,0-2.19-5-1.28-5-5.09,0-2.57,2-3.51,4-3.51a8.67,8.67,0,0,1,2.75.41Z"/>
    <path d="M146.31,27.12h2.3v4.64h4.62V27.12h2.31v11.5h-2.31v-5h-4.62v5h-2.3Z"/>
    <path d="M163.28,26.92c3.6,0,5.63,2.44,5.63,5.92s-2,6-5.63,6-5.64-2.46-5.64-6S159.62,26.92,163.28,26.92Zm0,10.08c2.35,0,3.23-2.09,3.23-4.16s-.94-4.11-3.23-4.11-3.23,2.08-3.23,4.11S160.92,37,163.28,37Z"/>
    <path d="M170.82,27.12h2.92c2.5,0,4.79.72,4.79,3.47s-2,3.66-4.43,3.66h-1v4.37h-2.31Zm2.31,5.32h.8c1.16,0,2.19-.38,2.19-1.71s-1-1.8-2.19-1.8h-.8Z"/>
  </g>
  <g>
    <path d="M80.09,47.81l3.6-5.21H80.23V41.39h5.1v1.25l-3.64,5.21h3.72v1.21H80.09Z"/>
    <path d="M86.69,41.39h4.52V42.6h-3v1.89H91V45.7H88.22v2.15h3v1.21H86.69Z"/>
    <path d="M92.74,41.39h1.53v4.43c0,1.3.42,2.16,1.6,2.16s1.59-.86,1.59-2.16V41.39H99v4.9c0,2.05-1.17,2.9-3.13,2.9s-3.13-.85-3.13-2.9Z"/>
    <path d="M106.71,42.87a5.15,5.15,0,0,0-2-.4A2.61,2.61,0,0,0,102,45.25a2.52,2.52,0,0,0,2.6,2.73,3.93,3.93,0,0,0,1-.11v-2h-1.62V44.66H107v4.13a9.73,9.73,0,0,1-2.49.4c-2.48,0-4.21-1.24-4.21-3.83s1.61-4.1,4.21-4.1a7.44,7.44,0,0,1,2.25.32Z"/>
    <path d="M108.64,41.39h1.54v3.1h3.08v-3.1h1.54v7.67h-1.54V45.7h-3.08v3.36h-1.54Z"/>
    <path d="M118.77,41.39h1.73l3,7.67h-1.7l-.66-1.76H118l-.67,1.76h-1.59Zm.85,1.54h0l-1.11,3.16h2.24Z"/>
    <path d="M124.44,41.39H126v4.43c0,1.3.42,2.16,1.59,2.16s1.6-.86,1.6-2.16V41.39h1.54v4.9c0,2.05-1.17,2.9-3.14,2.9s-3.13-.85-3.13-2.9Z"/>
    <path d="M136.54,42.8a3.93,3.93,0,0,0-1.56-.33,1.06,1.06,0,0,0-1.2,1.06c0,1.33,3.36.77,3.36,3.34,0,1.68-1.33,2.32-2.88,2.32a6.66,6.66,0,0,1-2-.3l.15-1.38a3.73,3.73,0,0,0,1.73.47c.58,0,1.36-.29,1.36-1,0-1.46-3.36-.85-3.36-3.39,0-1.72,1.33-2.34,2.68-2.34a6,6,0,0,1,1.84.27Z"/>
    <path d="M141.09,47.81l3.6-5.21h-3.46V41.39h5.1v1.25l-3.64,5.21h3.71v1.21h-5.31Z"/>
    <path d="M147.63,41.39h1.54v4.43c0,1.3.42,2.16,1.59,2.16s1.6-.86,1.6-2.16V41.39h1.53v4.9c0,2.05-1.16,2.9-3.13,2.9s-3.13-.85-3.13-2.9Zm1.36-.76V39.36h1.28v1.27Zm3.54-1.27v1.27h-1.27V39.36Z"/>
    <path d="M155.48,41.39h1.66c1.65,0,3.61-.06,3.61,2.08a1.76,1.76,0,0,1-1.58,1.78v0c.42,0,.66.45.82.79l1.23,3H159.5l-.92-2.4c-.22-.57-.42-.79-1.07-.79H157v3.19h-1.54ZM157,44.66h.5c.76,0,1.63-.11,1.63-1.06s-.86-1-1.63-1H157Z"/>
    <path d="M162.19,41.39h1.54v7.67h-1.54Z"/>
    <path d="M171,49a7.84,7.84,0,0,1-1.74.24c-2.49,0-4.21-1.24-4.21-3.83s1.6-4.1,4.21-4.1a5.05,5.05,0,0,1,1.73.32l-.11,1.29a3.15,3.15,0,0,0-1.66-.4,2.56,2.56,0,0,0-2.57,2.78A2.53,2.53,0,0,0,169.21,48a4.22,4.22,0,0,0,1.68-.32Z"/>
    <path d="M172.08,41.39h1.54v3.1h3.08v-3.1h1.53v7.67H176.7V45.7h-3.08v3.36h-1.54Z"/>
  </g>
</svg>
