<svg height="82" viewBox="0 0 161 82" width="161" xmlns="http://www.w3.org/2000/svg"><g fill="#1f1f1f"><path d="m85.9776719 53.512391c-2.3944848-1.9433079-5.2543937-2.4056106-8.195956-2.4547047-3.7407446-.0664816-7.4855718-.088983-11.227337.0061368-2.194434.0552308-4.4276534.1646698-6.5618681.6279953-3.7489099.8120981-6.0086666 2.7421097-5.9924238 7.1145524.0133566 3.4089712 0 6.8179423 0 10.2279362v10.2279363c0 2.304354.5614547 2.8362067 2.8651001 2.7236994.2713509-.0131151.541277-.0473109.8073476-.1022794 1.2737924-.2628579 1.5310005-.5707188 1.5432485-1.8563704.0102067-1.2611045 0-2.5232319 0-3.7843364 0-1.4227059.012248-1.4319111 1.4126032-1.4380478h15.5141383c2.4894068 0 4.9390076-.2147867 7.3334923-1.0074518 2.5067582-.8305084 4.3470208-2.7513148 4.4450048-5.3635297.1398314-3.7413791.0663434-7.4940089-.009186-11.2394791-.021434-1.5004383-.7695829-2.7369958-1.9341639-3.6820571zm-6.7853942 16.9026874c-2.7925449.3252484-5.6320405.2393337-8.4521434.3242256-.6460822.0194331-1.2931851 0-1.9392673 0-2.8252063 0-5.6504125-.0255698-8.4715361.0143191-.8583809.0122735-1.1227337-.3068381-1.1115063-1.1353009.0326613-3.3424896.177596-6.6962299-.036744-10.0233775-.1898441-2.9507596 1.8678206-4.0359436 4.0826679-4.2691406 1.7274115-.1628365 3.4624012-.2311242 5.1972364-.2045587 3.3334984.0153419 6.6710795.0286382 9.9974332.2127411 1.0584317.059322 2.130132.5656048 3.1160963 1.0350671.9614683.4571888 1.3472805 1.377703 1.3442185 2.4547047-.0071447 2.4547047-.1020667 4.9175917.024496 7.3641141.128604 2.7011979-1.1768291 3.9275275-3.7509512 4.227206z"/><path d="m49.9898917 46.6845762c0-2.3532118-.3489367-2.7051704-2.6063034-2.6836846-.1296329 0-.2602405 0-.3898734.007162-1.6062782.082874-1.9864048.4859894-1.9893288 2.1680242-.0058481 4.3974366-.0058481 8.7948732 0 13.1923098 0 4.5017964-.015595 9.0035928.021443 13.4992505 0 .536123.1364557 1.3188217.4795442 1.5572123 1.12381.7786061 2.4172149.6844776 3.6462907.2046271 1.0438859-.4092542.8294556-1.4323898.8314049-2.279546.0110464-8.5540953.0133207-17.1092138.0068228-25.6653553z"/><path d="m38.5505401 67.432002c-2.5750932-3.6280257-5.1652162-7.2461335-7.7383055-10.875151-2.420788-3.4147876-4.8776474-6.8047799-7.214269-10.2721332-1.2023781-1.7792996-5.3606026-1.710865-6.5339233.2082793-2.3546573 3.8482066-4.9858615 7.5307817-7.49081601 11.2887341-3.1061436 4.6614874-6.22230701 9.3170241-9.27434359 14.0122329-.2975886.4473045-.39778678 1.2635607-.18636862 1.7336766.70138727 1.5720123 3.71935647 2.0133659 4.65620945.2975418 1.11720972-2.0421282 2.5169783-3.9315184 3.77646943-5.8982694.36271741-.5673129.77352995-.857912 1.51700044-.8539448 7.1474702.0317378 14.2969444.0343826 21.4484225.0079345.6342545 0 1.0600968.183484 1.4107904.7091411 1.3025764 1.9469149 2.6261943 3.8759773 3.9448024 5.8099987.5430741.7934446 1.1723187 1.4539873 2.2915324 1.3964626.4458819-.1150495.9017836-.1983612 1.3346398-.3520911 1.3115941-.4810258 2.0580706-1.7247503 1.0170115-3.0200488-1.0701166-1.3290198-1.9678923-2.7968925-2.9588523-4.1923633zm-26.5525178-4.8142255 8.4276689-12.893476 8.865535 12.893476z"/><path d="m118.732562 48.7599438c.215968-.9968856.364002-2.0814972.192647-3.0743954-.144992-.8373839-1.115328-.6719009-1.808859-.6728978-5.002077-.0059813-10.006182-.0059813-15.012315 0-5.0037671 0-10.0075342-.0059813-15.0062316.008972-.4897304 0-1.1599411-.0458568-1.4357313.2292837-.8719837.8692843-.7229353 1.9937713-.450187 3.0903456.2261075.9081628.9490428.897197 1.6811036.897197h10.9504932c1.4478986 0 1.4489125 0 1.4489125 1.39564v22.0391483c0 1.6727741.6235698 2.2728993 2.3249516 2.318756 2.746749.0747664 3.173616-.3319629 3.173616-3.0245511 0-7.1466733.017236-14.2933467-.020279-21.4410169-.006084-.9889106.251456-1.3258579 1.301892-1.3089108 3.751558.0588162 7.503116.0388785 11.254673 0 .495814-.0079751 1.355631-.2123367 1.405314-.4575706z"/><path d="m152.054882 39.4047557c-2.139688-.4781758-4.138487-1.2896857-5.733877-2.906753-.851416-.8621053-1.868047-1.5873054-2.887718-2.2668705-.963924-.6398825-2.00184-.5178584-2.851228.2678577-.489564.4523821-.86966.4196439-1.424094.1289686-1.598431-.8392877-3.229297-1.6200436-4.851041-2.4166725-3.142128-1.5446465-6.065322-3.3531826-8.362116-6.0625145-.971019-1.1468282-2.217735-2.1220289-3.486749-2.9623087-1.602486-1.0625026-1.73932-.9593277-2.56641.7648828-1.09265 2.2817515-4.125311 3.2351268-6.208238 1.2142886-.810872-.78274-1.532548-1.6488135-2.266387-2.5009981-.419626-.4871043-.709512-.6527793-1.246715-.0575398-1.183873 1.3015905-2.646483 2.3382993-4.504393 1.8730204-1.260952-.3341336-2.438159-.9186798-3.458369-1.717266-3.4664772-2.7013954-6.8062558-5.5555689-10.2443526-8.2996231-2.0667097-1.6458373-4.3209335-2.9940548-6.9471448-3.6706437-.6953227-.1775798-.9477065.0069444-1.1696827.6388904-.2544698.7465-.6056696 1.457989-1.0450111 2.1170685-.8858776 1.2976222-2.2978082 1.7400836-3.7066981.9692484-1.477814-.8095257-2.921166-1.7579407-4.1709223-2.8710386-1.8437199-1.6428611-3.667168-3.28671426-5.8950385-4.4107249-2.0697505-1.04464536-3.3732271-2.741078-4.4668905-4.67064612-.449248-.76137804-.9625497-1.4847832-1.534575-2.1627036-.4297621-.52678698-.8514155-.56547755-1.3764551.05555569-1.393686 1.64583728-2.9394105 3.16667426-4.2986345 4.84028939-1.2000904 1.4880988-2.458969 2.99603893-3.2668001 4.69048744-1.042984 2.1795687-2.6647277 3.1914759-4.9554408 3.4672702-1.4676781.1755957-2.6302657.8601211-3.3255883 2.138894-.7541109 1.3888923-1.3673327 2.8502053-2.1214436 4.2371134-.9325026 1.7152819-2.2298976 2.4017915-3.7766357.7658748-1.6916815-1.7857185-3.2272701-.5952395-3.8769812.8214306-1.2467155 2.7252049-3.0610414 4.8383052-6.0359276 5.9960461-1.9998128.7787717-3.9418509 1.279765-6.086607 1.0079389-2.0271797-.256945-3.7715679.3551596-5.3081701 1.6805596-.9085626.783728-1.8758726 1.4996908-2.893799 2.1418702-2.8785952 1.8154806-5.82003295 3.5367149-8.68545146 5.3700526-1.87514122 1.1994077-3.62865166 2.5664744-5.01929694 4.3839391 2.38599051-.2837308 4.68278511-.5535728 6.97755254-.8363115.23339694-.0379855.46003674-.1084757.67302366-.2093259 1.0135898-.4325407 1.9906905-.9365102 3.0225249-1.3035746 3.355996-1.190479 6.8741664-1.6081388 10.3994319-1.9504015.9122309-.0892859 1.8498015-.0138889 2.7762226-.0138889.0557475.1289686.1125085.2579371.1682559.3859136l-2.3099712 1.7857186c1.2051583 0 2.0464379-.0327382 2.8836631.0069444 1.5852545.0763891 3.1694954.2757944 4.7537364.270834 1.3115852 0 2.7204751.0992066 3.9377966-1.2162727-.8108719-.5059536-1.5203848-1.0248041-2.3049034-1.415678-.8625649-.4315487-1.8173666-.6884937-2.6768908-1.1250027-1.055147-.5376997-1.4261209-1.4543686-1.1220439-2.4464345l1.0794732-.1498019c.0003701-.1159811-.0091229-.2317912-.0283806-.346231-.4388844-1.4880988-.4054359-1.5079401 1.2031312-1.5704403 3.3205204-.1299606 5.9295006 1.4494083 8.4553665 3.2797698 1.9420382 1.4067494 3.8516415 2.876991 5.899093 4.1190575 1.8427063 1.1230186 3.9530004 1.3581382 6.0369411 1.0416692l-9.4010458-6.294658.7095129-1.0079389c-.4165855-.0486113-.7095129-.0694446-1.003454-.1190479-1.8579102-.3184532-3.1330062-1.5773848-3.2049711-3.0575471-.0425708-.8928592.2533975-1.2371061 1.2081991-1.1964314 1.2467155.0525795 2.6931082.4295645 3.2728816-1.2549633.0081087-.0238096.0598018-.0287699.084128-.0505954.4784144-.4305566.8595242-.873018.7581652-1.6021864-.0952775-.6845254.2686013-.9861134 1.0135898-1.0168675 1.7535105-.0714287 3.3083573.526787 4.8348236 1.2390903 2.1852997 1.0198437 4.3351238 2.1140924 6.5406953 3.088301.7936409.3511914 1.7048582.4484138 2.7427742.7053589-.2909003-1.355162-.8108719-2.3234183-1.8173666-2.8640942s-2.15996-.8650814-3.2232158-1.3353207c-1.3075309-.5773823-2.5978307-1.1894869-3.8708996-1.8363139-.2645469-.1349209-.400368-.5079377-.5959908-.7708352.0445979-.1051589.0891959-.2103179.1327802-.3154769h5.0040931c-.1145356-.3521834-.2736692-.4275804-.3577972-.5525807-.2848187-.4236121-.8108719-.9206371-.7318119-1.2837332.0739921-.3442469.783505-.7708352 1.2284709-.7936527 2.1133349-.0863098 4.2317377-.0585319 6.3481133-.0406747.7703283.0059524 1.5386294.0992065 2.4518738.1607146l-1.5457245-3.5714371h2.9536008c-.9841957-.6081364-.9963588-1.3254-.659847-2.2252038.0709513-.1894845-.3040769-.5803585-.5351754-.8253988-.2979954-.3184531-.835198-.527779-.953788-.8839307-.6365345-1.9087347.3882049-2.99207063 2.3788953-2.591276.2964695.0613019.5878434.144205.8716873.2480165 3.0407696 1.1140899 5.6325188 2.9186577 7.9789793 5.0644962.9659511.8829387 1.7899997 1.9146872 2.678918 2.8769911l-.2838052.3055562c-1.4281481-.724208-2.8623777-1.4394875-4.2854579-2.1726242-1.5933632-.8214306-3.1725362-1.0426612-4.7709674 0-.6182898.3968263-.7946544.8452401-.1114949 1.2827412 1.1666419.7470256 2.3748411 1.431551 3.5617548 2.1478226.2087995.1259923.4054359.2787705.6000452.4196438-.1844734.150794-.3496885.3373024-.5574745.4434535-.5230123.2678578-1.0652829.4960329-1.8721004.8700418.8727008.1190479 1.4615966.1835321 2.0433971.2847229.5818006.1011907 1.1423158.2390878 1.917712.4047628-.4419252.4573424-.6649149.8174623-.9912909 1.0039707-1.2163078.6944461-2.4326156 1.3888922-3.7046709 1.9682587-1.7514832.8035733-2.3900448 1.792663-2.0413699 3.4722305.0648697.3144849.202718.6150809.3456341 1.0396851-.6983634.2251989-1.354156.4434534-2.014003.647819-3.0762452.9533753-5.6659673 2.5972284-7.4650893 5.2579491-.4784144.707343-.6588334 1.6071467-.976087 2.4186566l.304077.1388892c.1689653-.0887012.3318249-.1881198.4875367-.2976197 2.3778818-1.8849252 4.8530682-3.6021912 7.7630847-4.6627096 2.3312566-.8492084 4.1668678-2.3809581 5.6446818-4.3293755 1.6217438-2.1349258 3.1309791-4.3571533 4.9037477-6.3601343 1.2325253-1.3938526 2.7295975-2.620046 4.2864715-3.6706437 1.2517835-.842264 2.8380516.1071431 2.916098 1.5714323.0141903.2529768-.27671.708335-.4986862.7569463-3.5566868.7827399-5.0679492 3.5833419-6.6379999 6.3591422 1.0956906-.5079377 2.0798863-1.190479 3.153278-1.686512 1.037916-.482144 2.0697505-1.1587329 3.5698635-.9533753-1.1970497 1.4424638-2.2187482 2.7390939-3.3124117 3.975208-1.9258207 2.1775846-4.0006391 4.141875-6.8812615 5.1418774-4.3361374 1.5049639-8.5526711 3.2668729-12.0323251 6.20438l21.1951774-6.3819598c-.8027632-1.6388928-.879796-3.131952.0608154-4.5714395.9031085-1.3819478 2.2298976-2.2192514 3.8313696-2.6299667-.2655605-1.2460347-.6314665-2.3670691-.7186352-3.5079449-.1346259-1.8348655-.168461-3.6754842-.101359-5.5139021.0133923-.9350961.6775052-1.7403388 1.6085671-1.9504015 1.0338617-.2609133 1.8031764.2976197 2.2369928 1.144844.6937358 1.3427874 1.3116045 2.7218514 1.8508151 4.1309623.6699829 1.7757979 1.2264437 3.434532 3.4796539 4.0565573 1.9521741.5386918 2.6353337 3.3095318 1.3784822 4.8918769-1.0135898 1.2738125-2.2298976 2.3432596-3.7806901 3.0367136-1.7994599.8068802-3.5718906 1.6703082-5.3172924 2.590284-.7186352.3779771-1.2984086.9761928-1.4322024 1.9325443.3922592.0238096.6568062.0615081.9203396.0535716 1.7535104-.0515875 3.2049711-.9047641 4.653391-1.7291708 1.9957584-1.1359155 3.971245-2.2996087 6.430214-1.8938538.3111721.0505954.6081539.1984132.9122308.2976198-.1798969.2426895-.3745185.4745887-.5828141.6944461-1.0804868 1.0208358-2.1731367 2.0287747-3.2617322 3.0416739l.1966365.2976198c1.0004132-.2440482 2.0099486-.4593265 3.0002259-.7390891 1.7362794-.4900805 3.462423-1.0138913 5.18958-1.5347259.658833-.1984132.921353-.5238108.769315-1.3085349-.325363-1.6865119.525039-2.6002046 2.302876-2.7103239.257452-.0168651.514904-.0386906.777423-.059524-.33043-1.7748058.041558-2.1944497 1.845747-1.8849251.853566.1596344 1.671819.4648746 2.417412.9017878.765261.4414694 1.402809 1.0912725 2.187327 1.731155-2.889745 1.4097256-5.270667 2.9761976-7.331295 5.014893.340799.0567612.690141.0401729 1.023725-.0486113 2.084955-.6190491 4.155719-1.2896856 6.247768-1.8779807 1.348075-.3809532 2.700204-.8720259 4.155719-.4791678.764246.2073418 1.538629.3789692 2.30693.572422 2.073805.5208346 4.181058.9434547 6.210265 1.5972261 1.925821.6200412 3.763459 1.2341299 5.878821 1.1210344 3.401608-.1825401 6.822474-.1369051 10.237258-.0565477 1.574105.0367064 3.142128.3690485 4.712179.5952395 2.599858.3700406 5.193634.7877003 7.797547 1.128971 1.838652.241072 3.689467.3878977 5.535214.5773823-2.327202-.4841281-4.658459-.797621-6.945118-1.3075428z"/><path d="m149.029198 52.1397044c-2.008004-.8150742-4.143958-1.1367356-6.322219-1.1387211-4.302865 0-8.604697.0218412-12.90653 0-2.196146-.0224024-4.378343.3381741-6.440883 1.0642624-2.730307.9659771-4.33382 3.0875526-4.347234 5.8574148-.018574 3.1769029-.016166 6.3561223.007223 9.5376582.012382 1.5169712.619117 2.8155302 1.710827 3.9145401 1.253465 1.2486452 2.932846 2.0205811 4.730055 2.1741929 3.583657.3305965 7.19827.3752717 10.801532.4508372.401394.008821 1.135048-.5094113 1.171163-.8400078.286858-2.5335801.230106-3.1997369-2.320657-3.0508196-1.303242.0754515-2.616802.0506319-3.921076 0-1.135048-.0416968-2.285574-.063538-3.38038-.3037913-2.579655-.5639003-3.745659-1.389895-3.553733-3.9711287.057784-.7684133.268284-1.0146233 1.082423-1.0076738 4.230635.0357401 8.46746.0158845 12.70119.0158845 4.267781 0 8.535563.0079422 12.803344-.0049639 1.573589 0 2.11119-.5142612 2.136986-2.0252757.029924-1.6549678.019605-3.3119212 0-4.9639108-.026828-2.7222087-1.362058-4.6561483-3.952031-5.7084974zm-1.391982 8.2827816c-.098027.26408-.767706.464622-1.175291.4685932-3.508331.0367329-7.010471.0218412-10.515706.0218412-3.471184 0-6.941336-.0158845-10.412519.0119134-.894625.0079422-1.395078-.2303255-1.258872-1.180418.013988-.1983284.013988-.397341 0-.5956693 0-2.4819554 1.238234-3.9204968 3.868451-3.9711287 5.283133-.1062277 10.574521-.1270761 15.856623.0089351 2.995496.0744586 4.629965 2.5762697 3.637314 5.2359331z"/><path d="m160.999869 48.0722215c.009769-2.8409716-.521675-3.1315139-3.201362-3.0639935-.064477 0-.12993.0092073-.195384.0173916-1.328609.1800544-1.596285.4818501-1.598238 1.9048935-.006513 4.5013593-.006513 9.0027187 0 13.504078 0 4.5371656-.014654 9.0733082.020515 13.6063817 0 .4890113.160215 1.21639.482598 1.4179282 1.154717.7161253 2.461834.6864573 3.659536.1166261.976919-.4624124.816704-1.5345543.817681-2.4389183.008792-8.3489986-.016607-16.7072045.014654-25.0643873z"/></g></svg>