<?xml version="1.0" encoding="utf-8"?>
<svg id="Layer_1" data-name="Layer 1" xmlns="http://www.w3.org/2000/svg" xmlns:xlink="http://www.w3.org/1999/xlink" viewBox="0 0 187 61">
  <defs>
    <style>
      .cls-1, .cls-5 {
        fill: #fff;
      }

      .cls-1 {
        fill-rule: evenodd;
      }

      .cls-2 {
        fill: #1f1f1f;
      }

      .cls-3 {
        fill: #1a1919;
      }

      .cls-4 {
        mask: url(#mask);
      }
    </style>
    <mask id="mask" x="0.06" y="0.43" width="186.26" height="46.27" maskUnits="userSpaceOnUse">
      <g id="c">
        <path class="cls-1" d="M.06.43H186.32V46.7H.06Z"/>
      </g>
    </mask>
  </defs>
  <g>
    <path class="cls-2" d="M137.11,3.88a14.71,14.71,0,0,0-.25-3c0-.06-.49.17-.8.31a49,49,0,0,0-9.47,7.41A45.7,45.7,0,0,0,118,20.3c-2.32,4.88-3.46,8.41-3.95,15.63a84.76,84.76,0,0,0-2.37-10.82A85.19,85.19,0,0,0,108,15.74a92.32,92.32,0,0,0-5.15-9s-.1-.16-.17,0a19.2,19.2,0,0,0-.24,3.05,28,28,0,0,0,.22,3.22,2,2,0,0,0,.17.66A86.54,86.54,0,0,1,109.16,26a91.11,91.11,0,0,1,4.89,17.93c0,.2.09.31.15.28s.28-1,.32-1.73a49.75,49.75,0,0,1,.92-6.82c1.71-7.82,4-12.2,6.69-16,4.22-6,7.35-8.22,11.9-11.13,2.85-1.83,2.7-1.76,2.91-2.09S137.14,5.47,137.11,3.88Z"/>
    <path class="cls-3" d="M13.67,14.28h-.94L0,42.68c.45,0,.9-.12,1.43-.12s.93.08,1.5.12c1.14-3.82,2.61-7.4,4-11H17.34c1.63,3.7,3.1,7.6,4.28,11,.69,0,1.38-.12,2.16-.12s1.34.08,2.12.12ZM7.76,30,12.2,19.6,16.73,30Z"/>
    <path class="cls-2" d="M31.63,31c0,7.33,2.07,11.12,9.13,11.12,6.57,0,8.93-4.79,8.93-11.54V15a10.15,10.15,0,0,0,1.15.12c.38,0,.75-.08,1.16-.12V31.58C52,39.83,47.21,44,39.94,44c-4.09,0-6.82-1-9-2.92C28.37,38.71,28,35,28,31.67V15c.58,0,1.2.12,1.82.12S31,15,31.63,15Z"/>
    <path class="cls-2" d="M59,15h8.87c6.44,0,9.29,2.09,9.29,6.22,0,4.75-4.36,7-8.58,7.78L77.2,39.68l2,2.3L80,43c-.88,0-1.63-.12-2.43-.12s-1.63.08-2.38.12c-.92-1.27-1.76-2.41-2.64-3.56l-4.93-6.26-3.35-3.85H62.68V43c-.67,0-1.25-.12-1.84-.12S59.58,43,59,43Zm3.68,12.77a23.72,23.72,0,0,0,5.4-.2c3-.62,5.35-2.66,5.35-5.86,0-2.82-1.46-4.66-4.6-5.15a38,38,0,0,0-6.15,0Z"/>
    <path class="cls-2" d="M107,43c-.78,0-1.43-.12-2.13-.12s-1.47.08-2.17.12c-1.19-3.44-2.66-7.43-4.3-11.2H88c-1.43,3.65-2.91,7.3-4,11.2-.57,0-1-.12-1.52-.12S81.45,43,81,43L93.78,14h.94ZM93.24,19.44,88.78,30.06h9Z"/>
    <path class="cls-2" d="M132,15c.64,0,1.32.12,2,.12s1.27-.08,2-.12V43c-.73,0-1.36-.12-2-.12s-1.36.08-2,.12Z"/>
    <path class="cls-2" d="M153.49,43c-.65,0-1.22-.12-1.79-.12s-1.22.08-1.79.12V17a74.66,74.66,0,0,0-8.91.49c0-.41.12-.82.12-1.23S141,15.45,141,15h21c0,.45-.12.82-.12,1.22s.08.82.12,1.23a69.6,69.6,0,0,0-8.51-.49Z"/>
    <g class="cls-4">
      <path class="cls-3" d="M186.28,43.39c-.78,0-1.43-.13-2.13-.13s-1.47.09-2.16.13C180.81,40,179.33,36,177.7,32.2H167.33c-1.43,3.65-2.9,7.29-4.05,11.19-.57,0-1-.13-1.51-.13s-1,.09-1.43.13l12.75-29H174ZM172.56,19.86l-4.46,10.6h9Z"/>
    </g>
    <rect class="cls-3" y="50.5" width="186.32" height="10.2"/>
    <g>
      <path class="cls-5" d="M10,53h1.56v1.92h2.88V53H16v5H14.44V55.84H11.56V58H10Z"/>
      <path class="cls-5" d="M19,53h5.91v.92H20.74V55h3.83v.85H20.74v1.22H25V58H19Z"/>
      <path class="cls-5" d="M29.71,53h1.62L34,58H32.37l-.54-1.11H29.15L28.59,58H27Zm-.15,3.07h1.86l-.91-1.84h0Z"/>
      <path class="cls-5" d="M37,53h1.55v4.07H42V58H37Z"/>
      <path class="cls-5" d="M46.19,53.92H44V53h6v.92H47.81V58H46.19Z"/>
      <path class="cls-5" d="M53,53h1.56v1.92h2.88V53H59v5H57.44V55.84H54.56V58H53Z"/>
      <path class="cls-5" d="M72.55,54.57a1.36,1.36,0,0,0-1.43-.87,1.69,1.69,0,1,0,0,3.38A1.35,1.35,0,0,0,72.61,56H74c-.15,1.24-1.27,2-2.88,2-2,0-3.22-1.15-3.22-2.59s1.2-2.64,3.22-2.64c1.44,0,2.65.65,2.83,1.8Z"/>
      <path class="cls-5" d="M77,53h1.56v4.07H82V58H77Z"/>
      <path class="cls-5" d="M91,56c0,1.32-1.12,2-3,2s-3-.64-3-2V53h1.55v3c0,.53.19,1.06,1.44,1.06s1.46-.34,1.46-1.06V53H91Z"/>
      <path class="cls-5" d="M94,53h3.37c1.37,0,2.29.31,2.29,1.24,0,.49-.35.83-1,1,.88.18,1.32.65,1.32,1.27,0,1-1.23,1.45-2.53,1.45H94Zm1.58,2h1.59c.55,0,1-.17,1-.59s-.52-.58-1.08-.58H95.58Zm0,2.13h1.68c.62,0,1.16-.14,1.16-.66s-.46-.72-1.13-.72H95.58Z"/>
      <path class="cls-5" d="M111.55,57.31a3.34,3.34,0,0,1-2.11.69c-1.37,0-2.44-.64-2.44-1.75,0-.81.8-1.37,1.69-1.68a1.76,1.76,0,0,1-.72-1.24c0-.81,1-1.33,2-1.33s2.07.47,2.07,1.39c0,.68-.58,1.14-1.34,1.45l1,.93a1.73,1.73,0,0,0,.27-.7h1.3a2.53,2.53,0,0,1-.73,1.44L114,57.89h-1.83Zm-2.07-2c-.53.18-1.06.49-1.06,1s.51.77,1.08.77a1.83,1.83,0,0,0,1.26-.52Zm.53-2.55c-.36,0-.68.22-.68.52s.31.6.59.87c.42-.21.77-.41.77-.83A.65.65,0,0,0,110,52.77Z"/>
      <path class="cls-5" d="M122,53h3.41c2,0,3.59.81,3.59,2.47,0,1.45-1.17,2.53-3.59,2.53H122Zm1.74,4.07h1.55c1,0,2-.39,2-1.49s-.55-1.66-2.28-1.66h-1.24Z"/>
      <path class="cls-5" d="M133.71,53h1.61L138,58h-1.63l-.54-1.11h-2.68L132.59,58H131Zm-.15,3.07h1.86l-.9-1.84h0Z"/>
      <path class="cls-5" d="M141.69,56.05,139,53h1.81l1.71,2,1.69-2H146l-2.71,3.08V58h-1.6Z"/>
      <path class="cls-5" d="M156.1,56.22c0,.67.64.93,1.37.93.48,0,1.21-.12,1.21-.62s-.93-.63-1.85-.83S155,55.22,155,54.28s1.2-1.51,2.33-1.51c1.29,0,2.48.46,2.48,1.61h-1.32c0-.6-.57-.75-1.23-.75-.43,0-.94.14-.94.56s.3.44,1.86.76c.45.09,1.84.32,1.84,1.45,0,.91-.9,1.6-2.58,1.6-1.38,0-2.66-.55-2.65-1.78Z"/>
      <path class="cls-5" d="M163,53h3.4c1.87,0,2.6.79,2.6,1.6s-.73,1.61-2.6,1.61h-1.75V58H163Zm1.65,2.35h1.29c.77,0,1.46-.11,1.46-.75s-.69-.75-1.46-.75h-1.29Z"/>
      <path class="cls-5" d="M172.71,53h1.62L177,58h-1.63l-.54-1.11h-2.68L171.59,58H170Zm-.15,3.07h1.86l-.91-1.84h0Z"/>
    </g>
  </g>
</svg>
