<svg height="52" viewBox="0 0 206 52" width="206" xmlns="http://www.w3.org/2000/svg"><g fill="#1f1f1f"><path d="m190.224465 5.74284666-.647139.89525764c.693363.0918213 1.37517.16068727 2.033866.30989688.138672 0 .184897.42467349.277345.65422674-.231121.06886597-.554691.27546389-.681807.19512025-1.016933-.64274908-1.294279.26398623-2.045422.89525764l2.149426.13773195-1.525399 3.07601344 1.25961.4705841c-.698687.4249449-1.323158.9598973-1.848969 1.5839174-.419839.7783859-.653162 1.6425006-.681808 2.5250857-.05778.9641236-.49691.8263916-1.155605.780481-.277346 0-.843592.4935395-.82048.711615.161785 1.4920961-.335126 2.1692782-1.860525 2.2955325-.104005.6312714-.208009 1.2854981-.32357 1.9397249l-.184897-.2869416-2.114758 1.0559449 1.155605.4591065c-1.155605.2180756-1.791188.711615-1.860525 1.8593813-.050055.2271492-.203883.4181293-.416018.5164947-1.664072.5968385-2.311211 2.2955325-3.466817 3.3055667-.855148.7690034-.335125 1.2969758-.242677 1.9167696.285815 2.3071512 1.623869 4.3556377 3.628602 5.5551884.496425.2603167 1.059558.3681843 1.617848.3098969.785812 0 1.652516-.5853607 2.311211-.3787628 2.311211.6886597 4.714871 1.3773194 6.251827 3.294089 1.65543 2.0281839 2.611429 4.5307167 2.727229 7.1391058.05778 1.3314088.508467 2.582474 0 3.9597934-.392906 1.1477662-.808924 1.3887971-1.941417.6886598.138672-.172165.254233-.3328522.392906-.4820618.138672-.1492097.265789-.241031.450686-.4017182-.150229-.1951203-.242677-.4476288-.416018-.5279725-1.376238-.5978141-2.160042-2.0551034-1.895194-3.5236422.184897-2.2955325 0-4.6484532-2.51922-5.7388311-1.269533-.553822-2.626433-.883949-4.009952-.9756013-2.15286-.086281-4.173558-1.054456-5.581575-2.6742952-.777677-.9392742-1.502944-1.9201721-2.172538-2.9382815-.503642-.6909316-.951856-1.4200933-1.340503-2.1807558-.43913-.9067353-1.086269-.7116151-1.814301-.5394501-.756403.083477-1.505677.2215745-2.241875.4131958-.524493.2133271-.940821.6268311-1.155606 1.1477662-.089149.6375905.095334 1.2830632.508467 1.7790376-.589359.9985566-1.155606 1.9856356-1.779633 2.9841922-.907366 1.6249482-2.825473 2.4107998-4.622422 1.8938142-2.428583-.9442826-4.182273-3.0823341-4.622423-5.6355321.004015-.266856.054853-.5309725.150229-.780481.150228-.6197937.300457-1.2281098.49691-2.0085909l.87826.6657044c.681808-.1721649 1.46762-.608316 1.756521-.3902405.716476.5279725 1.802745.952646 1.305834 2.3643984-.49691 1.4117525.104005 1.9626802 1.606292 2.4562197-.161784-1.5839174 1.155606-3.0071475 0-4.6714085-.300457-.4361511 0-1.3199311.080893-1.9856355.63557.0903062 1.264718.2206492 1.883637.3902405.234079.0986805.443245.2476316.612471.4361512 1.236498-.5738831 2.311211-1.1477662 3.351256-1.5380067 1.710297-.6771821 1.90675-2.1348452 2.010754-3.6613743.184897-2.6283846.161785-5.2912022.531579-7.8966315.269712-2.8257814 1.13598-5.5633883 2.542332-8.03436343.924485-1.22810984 1.479175-2.6628176 2.172539-3.9368381.87826-1.65278334 1.825857-3.25965603 3.813499-3.79910615.168336-.06421383.307796-.18643214.392905-.34432986 1.051602-1.67573867 2.72723-1.9971132 3.998396-.5738831.829673 1.10741215 1.601108 2.25671433 2.311211 3.44329862.409256.49723536.853342.96515658 1.328947 1.40027478zm-14.572188 18.78893284c.559441.1158848 1.127677.1849927 1.698741.2065979.346682 0 .959153-.2639862.970709-.4476288.11556-1.4691408 1.352058-1.7905153 2.311211-2.444742.523174-.3686692.983539-.8181616 1.363615-1.3314088.947596-1.3199312 1.825856-2.685773 2.588556-3.8220615.080893-.8034364-.092448-1.7560823.300458-2.1578005.622126-.6675131.939817-1.5601496.87826-2.4676973.071576-.5619864.183571-1.1181619.335126-1.664261.254233-1.33140884.739587-2.62838465.11556-3.99422644-.234917-.58826807-.420446-1.19482573-.554691-1.81347061-.265789-.90673531-.531578-1.80199295-.808923-2.70872825l-.439131.05738831c-1.305834 2.18075579-4.021507 3.12192408-4.749539 5.87656298-.427574 1.62982802-1.502287 3.07601341-2.045422 4.69436381-.612471 1.8249483-.947597 3.7531955-1.386727 5.6355321-.065751.2636439-.108283.5324696-.127116.8034363-.150229 1.8479036-.300458 3.6843296-.450687 5.5781438z"/><path d="m102.972702 34.292189.195555.1699942c1.276862-.5439817 2.300653-1.0539645 3.450979-1.4506178 1.414901-.5213158 2.864312-.963301 4.325227-1.4052861.851241-.249325 1.736992-.4306522 2.599737-.6459783 1.794509-.4419851 3.27843-1.5752804 5.291501-1.665944 2.576731-.1133295 3.73856.5893135 3.623528 3.0032324l5.751631-2.5159154c1.000784-.4419852 2.036077-.8046396 2.990848-1.3146225 1.426405-.7593078 5.095945-.6006465 6.269278.4193192.279756.2880313.467717.6505074.540654 1.0426316.299084 1.4166191.52915 2.8445711.839738 4.5331809.815174-.1406625 1.613222-.3647577 2.381175-.6686441 2.174117-1.1332953 3.968626 0 5.625096 1.0539645.839738.5099829 1.219345 1.7679406 1.794509 2.7085756.115032.1813272.103529.464651.253071.6119794 1.771503 1.8699371.966274 3.9778663.517647 6.0064647-.207059.9406351-3.450979 2.4592507-4.681828 1.5412815l-.103529-.0793306c-1.863529-1.1332953-1.852025-1.1332953.172549-2.3572541 1.771502-1.0086328 1.990064-5.6664761.207059-6.5844453-.993827-.3255692-2.0356-.486415-3.082875-.475984-1.09281-.1473283-2.300652.0793307-3.071371-1.0312986-.06902-.1019966-.425621-.1133295-.59817 0-1.276862.5099828-1.829018-.4986499-2.174116-1.2692907-.943268-2.0852632-2.013071-2.6859096-4.164181-1.8699371-1.596884.4826183-2.990291 1.465447-3.968626 2.7992392-.207059.3059897-.770719.3739874-1.150326.5439817-.379608.1699943-.954771.4306522-1.437908.6006465-.273891.0937685-.561311.1435136-.851241.1473284-.441753-.027171-.885184-.0081768-1.322876.0566647-1.725489.5893136-2.507711-.8726373-3.543005-1.654611-.652346-.5850253-1.242096-1.2343984-1.759999-1.9379348-3.151894.940635-6.142742 1.7679405-9.09908 2.7425744-1.624902.5125426-3.196465 1.1766399-4.693332 1.9832667-1.78701 1.117172-4.06815 1.117172-5.8551603 0-.218562-.1359955-.5176469-.3739875-.7016991-.3173227-2.0705872.6686442-3.1749005-.9179691-4.4747691-1.9266019-2.6572537-2.0399314-3.1864038-5.0204978-3.0483646-8.069062.0690195-1.4392849-.2990849-3.2412243 1.357385-4.2838559.1380391-2.4365848 2.0360774-3.7738731 3.6695407-4.986499 1.2230345-.7381057 2.7034004-.9394127 4.0836583-.5553147 1.6925231.6819695 3.2799911 1.5936469 4.7163381 2.7085756.575163.3626545 1.150326.8839703.46013 1.6886099-.149542.1699943 0 .5779806 0 .8839703s-.126536.8386384-.207059.8499714c-1.472417.0566647-1.242352 1.4392849-1.806012 2.1872598-.376876.4618416-.809526.8766689-1.288365 1.2352918-.678693.5779805-1.3688886 1.1332952-2.1166006 1.7452746l-1.0698035-3.3998857c.3559568-.2881107.7414914-.5387963 1.1503263-.7479748.5406533-.2719909 1.2653588-.2833238.8627447-1.2466248 0-.1359954.5176471-.5553146.8282351-.8046396.816731-.6799771 1.150326-1.9492678.575163-2.4819165-.816732-.713976-1.5989536-.5099829-2.3811754.2606579-.4720609.3486704-1.0067617.6062948-1.575947.7593078-1.4839209.5779806-1.6104568 2.1645939-2.3006525 3.2752232-1.1244439 1.9035752-1.4504908 4.1643103-.9087578 6.3011214.1616001.4935678.4802489.9227394.9087578 1.2239589.9295369.7707579 1.9222028 1.4644337 2.9678417 2.0739302 1.1069809.6343016 2.2792212 1.1509607 3.4969922 1.5412815.345098 0 .897254-.5666476 1.529934-.9519679z"/><path d="m20.2182123 10.8428058c-.582951.1675155-1.1907076.2336723-1.7963837.1955438-.6303141-.1621596-1.1936506-.5161273-1.6109505-1.0122271-.8460388-1.15025804-1.7036671-1.15025804-2.9669305-.73616513-2.6033663.60168858-4.88314368 2.15393453-6.38585424 4.34797553-.48765062.7122904-.87740572 1.4859496-1.15895722 2.3005161-.67219518 2.1624852-1.29803208 4.3479756-1.81956283 6.5564711-.52153074 2.2084955-.98511363 4.6585452-1.35597994 7.0050799-.11571919.9550999-.11571919 1.9205288 0 2.875637.21910401 1.3748037.35456104 2.7614592.40563502 4.1524316.03367748 1.4740349.36883109 2.9259017.98511364 4.2674575.70445855 1.5723479 2.41521228 2.44761 4.11429812 2.1049723 2.65511795-.3917276 5.19782965-1.3322094 7.46368445-2.7606194.8668576-.5688141 1.7024962-1.1831595 2.5033476-1.840413 1.6688984-1.3573045 3.3609759-2.6916039 4.9603369-4.140929.9742333-.6031723 1.3339968-1.8380156.8344492-2.8641426-.1158957-.2185491.081127-.7361652.3013289-.9662168.9619345-.989222 1.9818168-1.920931 2.97852-2.8641426.162254-.1610362.3476872-.2990671.5099412-.4601033.5794786-.575129 1.1589572-1.644869 1.7500254-1.644869 1.2943728.0904191 2.5639836.3976611 3.7550214.9087039 1.5941325.6071173 2.7303402 2.0255265 2.9669304 3.703831.0824862.3549961.2405523.6883653.4635829.9777193 1.9586377 2.5650755.4635829 6.5564711-2.5265267 7.0970924-.8344492.1495335-1.6920775 1.0812426-2.3990414.931709-1.5911225-.4311075-3.1420775-.9968052-4.6358289-1.6908794-.2492613-.1272787-.4859515-.2774693-.7069639-.4486006-.7996805.4716058-2.0513543.7706729-2.3179144 1.42632-.5562995 1.5873561-2.3990415 1.8059052-2.9553409 3.0596865-1.4834653 3.3012407-4.7053663 3.0596865-7.3593784 4.0144007-1.6135364.7675323-3.4673578.8708979-5.15735958.2875645-2.05135428-.9202065-4.36926871-1.4493252-6.04975667-3.1747123-.63742647-.7016574-.95034492-2.0129516-2.28314572-2.0129516-.09271658 0-.26656016-.35658-.27814973-.5521239-.1274853-2.7491168-.17384358-5.5097362-.39404545-8.2703556-.18028967-1.2435141.1086264-2.5092993.81127005-3.5542974.13907486-.1840413-.4172246-.8741962-.74173262-1.5068381l.60265775-3.4507742-.32450802-.1610362c.36328984-.1550862.70903641-.3478679 1.03147192-.575129.23179145-.1725387.54470989-.575129.47517246-.7361652-.6258369-1.4378226.08112701-2.7261116.47517246-4.0028981.42220379-1.2959667.9453115-2.5573849 1.56459224-3.7728465.78025327-1.685581 1.88226582-3.2050996 3.24508021-4.47450389 1.08941669-1.22621594 2.43379223-2.20338322 3.9404545-2.86414261 1.6225401-.49461097 3.3725655-1.04673485 4.9603369.48310839.7493688.51812034 1.6037352.86750862 2.5033476 1.02372969 1.2301594.33605613 1.9553677 1.59564465 1.6225401 2.81813232zm8.0431631 24.5580099c.6157465.422845 1.2914838.7523626 2.004996.9777194.6888824.0695548 1.3830003-.0666247 1.9934064-.3910878.2549706-.138031.1274853-.931709.2086123-1.4148174.1005858-.6698072.235978-1.3340083.405635-1.9899465.2831889-.7538294.5268956-1.5216942.7301431-2.3005161.1506644-.989222-.1043062-1.5873562-1.2632634-.8281859-.3553537.1868601-.7655625.2438582-1.1589572.1610362-1.7036671-.4140929-2.3179145.9777193-3.4768717 1.8519155l1.7963837 1.150258z"/><path d="m51.6090102 24.6728117c-.6487005-.057597-1.1583938 0-1.5174958-.1958296-.1518506-.3785583-.1131267-.8064261.1042554-1.1519386.4062365-.2566034.8888776-.3664228 1.3669047-.3110234 2.5716342.0575969 3.2319187 2.1541252 4.2281373 3.9857076.8919633 1.6357529 1.0309705 3.8013975 2.9423203 4.8035841.6444314-1.4669994 2.0083711-2.4962471 3.6026047-2.7185752 1.496813-.4599294 2.9472254-1.0576865 4.3323928-1.7855048.5096933-.1958296 1.2742332-.4722949 1.6333352-.2419072.7811205.4818721 1.4236042 1.1564906 1.8650141 1.9582957.5096932 1.0713029.4749414 2.4421099 1.1583937 3.398219.3011824.449256 1.7144229.506853 2.4210431.2303877 1.2314768-.529091 2.3665524-1.2569404 3.359342-2.1541252.5907808-.5183724.926715-1.1519387 1.8765979-1.2556132 1.1586246-.2850078 2.3832648.0411929 3.2435027.863954 1.041039 1.0445637 1.9833033 2.1820904 2.8148969 3.398219.4369978.8050834.7494151 1.6710937.926715 2.5688231.0810876.2534265 0 .7602795-.1042554.8063571-.3475181.1151938-.926715.2188683-1.1583938 0-.499634-.4540311-.8642749-1.0357992-1.0541384-1.6818304-.2548466-1.4629621-1.3437368-2.0043733-2.3747072-2.6149007-.7645399-.5183724-2.6990576.3686203-3.0581597 1.2440937-.6718684 1.6011947-2.2357 1.3592876-3.4751814 1.6242335-.6139487.1267132-1.297401-.1151939-1.4479922.8178764 0 .1036745-.1505912.2188683-.2664306.2879846-2.0387731 1.221055-5.4907866-.3571009-6.0815674-2.7185751-.2245521-.8321615-.5351116-1.6389771-.926715-2.4075518-.0810876-.1727908-.6487006-.3571009-.7413721-.2764652-1.3784886 1.2786518-2.7685611 2.5227456-4.0080425 3.9165913-1.5617165 1.197685-3.6510219 1.4661965-5.4676187.7026826-.7066202-.3801398-1.4364083-.7257214-2.1082767-1.1519387-.3205077-.1881904-.5752331-.4696415-.7297881-.806357-.752956-2.0734895-1.5522477-4.1354597-2.1314446-6.2435074-.1621751-.5990081.3359342-1.3708069.5328611-2.0619701.0347519-.3110234.1390073-.5414112.2432627-.8293958z"/><path d="m200.356715 29.0258548c-.086476-1.3666568-.140524-2.7333137-.270239-4.0882897-.047966-1.1868521.558778-2.2918275 1.545766-2.8150795.140223-.1099576.317857-.148348.48643-.1051275 1.291242.7190848 2.514854 1.571889 3.653629 2.5464205.399954.3971481.151334 1.6119542.151334 2.4529738s-.464811.9578279-1.080955.6424456c-1.751148-.8527005-2.075435-.6424456-2.021387 1.4834651.064858 1.9390174-1.080955 2.1959956-2.053815 1.5185076-.389144-.268659-.518858-.9811895-.767478-1.4951459z"/></g></svg>