<svg height="32" viewBox="0 0 212 32" width="212" xmlns="http://www.w3.org/2000/svg"><g fill="#1f1f1f"><path d="m17.9696079 27.6311579h-.0866508c-1.5159682 2.5145263-4.2450476 3.6412632-7.1474285 3.6412632-6.41047622 0-10.26517463-4.7696843-10.26517463-10.9263158 0-6.1557895 4.11465079-10.92631583 10.04896823-10.92631583 3.8984445 0 5.9780635 1.82147373 7.0607778 3.16547373h.1295556v-12.26273688h5.197365v30.42947368h-4.9374127zm-6.1934285-1.0408421c3.8109523 0 6.1067777-2.992 6.1067777-6.2442105 0-3.2513685-2.2958254-6.2433685-6.1067777-6.2433685-3.81263496 0-6.10761908 2.992-6.10761908 6.2433685 0 3.2522105 2.29498412 6.2442105 6.10761908 6.2442105z"/><path d="m36.9414206 9.41970526c6.2809207 0 11.3058254 4.37978944 11.3058254 10.92631584 0 6.5465263-5.0249047 10.9263157-11.3058254 10.9263157-6.2809206 0-11.3049841-4.3797894-11.3049841-10.9263157 0-6.5465264 5.0240635-10.92631584 11.3049841-10.92631584m0 17.17052634c3.8117937 0 6.1076191-2.992 6.1076191-6.2442105 0-3.2513685-2.2958254-6.2433685-6.1076191-6.2433685-3.8117936 0-6.107619 2.992-6.107619 6.2433685 0 3.2522105 2.2958254 6.2442105 6.107619 6.2442105"/><path d="m65.3639746 16.1842526c-1.2131111-1.2572631-2.5557778-2.0816842-3.9413492-2.0816842-3.8117937 0-6.1076191 2.992-6.1076191 6.2442105 0 3.2513685 2.2958254 6.2433685 6.1076191 6.2433685 1.602619 0 3.0748413-.6938948 4.028-1.9511579l3.4651905 3.7288421c-2.1225238 2.1246316-5.6743651 2.904421-7.4931905 2.904421-6.2809206 0-11.3049841-4.3789473-11.3049841-10.9254737 0-6.5473684 5.0240635-10.92715785 11.3049841-10.92715785 2.6424286 0 5.5439683.95410525 7.5369365 3.16547365z"/><path d="m90.0177238 30.7522526h-4.938254v-3.3381052h-.0866508c-.9531587 2.0808421-2.9015396 3.8585263-6.3667301 3.8585263-5.586873 0-7.5806826-3.9461053-7.5806826-8.1945263v-13.13768424h5.1982064v10.53642104c0 2.2972632.1733016 6.1136842 3.8117936 6.1136842 3.4214445 0 4.7649524-2.5153684 4.7649524-5.2909473v-11.35915794h5.1973651z"/><path d="m108.01257 16.1853474c-1.21227-1.2581053-2.555778-2.0816842-3.942191-2.0816842-3.810952 0-6.1067774 2.9911579-6.1067774 6.2433684s2.2958254 6.2442105 6.1067774 6.2442105c1.602619 0 3.076524-.6938947 4.028842-1.9511579l3.46519 3.728c-2.121682 2.1246316-5.673524 2.9052632-7.494032 2.9052632-6.2809203 0-11.3049838-4.3789474-11.3049838-10.9263158 0-6.5465263 5.0240635-10.92631581 11.3049838-10.92631581 2.642429 0 5.54481.95494741 7.537778 3.16547371z"/><path d="m123.486298 9.42029474c6.279239 0 11.304143 4.37978946 11.304143 10.92715786 0 6.5465263-5.024904 10.9254737-11.304143 10.9254737-6.280079 0-11.307508-4.3789474-11.307508-10.9254737 0-6.5473684 5.027429-10.92715786 11.307508-10.92715786m0 17.17136846c3.810112 0 6.106778-2.9928421 6.106778-6.2442106 0-3.2522105-2.296666-6.2442105-6.106778-6.2442105-3.812635 0-6.10846 2.992-6.10846 6.2442105 0 3.2513685 2.295825 6.2442106 6.10846 6.2442106"/><path d="m137.473587 9.94122105h4.936572v3.25221055h.086651c.911095-1.952 2.901539-3.77347371 6.368412-3.77347371 3.205238 0 5.415254 1.25810531 6.497968 3.86021051 1.515969-2.6450526 3.724302-3.86021051 6.842889-3.86021051 5.54481 0 7.494032 3.94694741 7.494032 8.93305261v12.4h-5.198206v-11.7928421c0-2.6012631-.779857-4.856421-3.853016-4.856421-3.250667 0-4.462937 2.6888421-4.462937 5.376v11.2732631h-5.198206v-12.4c0-2.5583158-1.038127-4.2492631-3.551841-4.2492631-3.422286 0-4.764111 2.5153684-4.764111 5.2901052v11.3591579h-5.198207z"/><path d="m199.307762 13.5098947h-23.482365l12.137-3.4046315h23.480682z"/><path d="m199.307762 21.9301053h-23.482365l12.137-3.4037895h23.480682z"/><path d="m199.307762 31.1932632h-23.482365l12.137-3.4037895h23.480682z"/></g></svg>