<?xml version="1.0" encoding="utf-8"?>
<!-- Generator: Adobe Illustrator 24.3.0, SVG Export Plug-In . SVG Version: 6.00 Build 0)  -->
<svg version="1.1" id="Layer_1" xmlns="http://www.w3.org/2000/svg" xmlns:xlink="http://www.w3.org/1999/xlink" x="0px" y="0px"
	 viewBox="0 0 165 48" style="enable-background:new 0 0 165 48;" xml:space="preserve">
<style type="text/css">
	.st0{fill:#1F1F1F;}
</style>
<g>
	<g transform="translate(0 4.965517)">
		<path class="st0" d="M13.6,22.5v-6.3c0-4-2.6-7-6.8-7c-2.8,0-4.9,1.3-6,3.2C0.2,13.6,0,15.2,0,17v7.4c0,1.8,0.2,3.5,0.8,4.6
			c1.1,2,3.2,3.2,6,3.2c2.1,0,3.7-0.7,5-2c1.2-1.2,1.8-3,1.8-4.8H9c-0.1,1-0.5,2.3-2.2,2.3c-1.4,0-2.2-0.8-2.2-2.2v-3.1L13.6,22.5
			L13.6,22.5z M4.6,16.3c0-1.7,0.8-2.6,2.2-2.6S9,14.6,9,16.3v2.6H4.6L4.6,16.3z"/>
		<path class="st0" d="M16.7,32.1h4.6V9.4h-4.6V32.1z M16.7,4.8h4.6V0.2h-4.6V4.8z"/>
		<path class="st0" d="M24.8,32.1h4.6V16.9c0-2,0.6-3.1,2.3-3.1c1.4,0,2.2,1,2.2,2.6v15.7h4.6V14.7c0-4.1-2.4-5.5-4.7-5.5
			c-2.1,0-3.4,1-4.3,2.5h-0.1V9.4h-4.6V32.1z"/>
		<path class="st0" d="M42,32.1h4.6v-6.4l2.2-3.5l4.1,9.8h5l-6.6-13.5l5.4-9.2h-4.6l-5.5,9.8h-0.1v-19H42V32.1z"/>
		<path class="st0" d="M67.8,32.1h4.6V16.3c0-4.7-3.1-7.2-6.9-7.2c-2.1,0-3.7,0.7-5,1.9c-1.2,1.2-1.9,2.9-2.1,4.9h4.5
			c0.2-1.5,1.4-2.3,2.6-2.3c1.7,0,2.3,1.2,2.3,2.6v2.4c-0.9-0.1-1.6-0.2-2.2-0.2c-5.7,0-7.2,2.5-7.2,7.7c0,5,2.8,6,4.9,6
			c2.2,0,3.2-0.9,4.4-2.6h0.1V32.1z M67.8,25.4c0,1.8-0.9,2.9-2.5,2.9c-1.5,0-2.4-1.2-2.4-2.9c0-2.4,1.6-3.2,3.6-3.2
			c0.4,0,0.7,0.1,1.2,0.2L67.8,25.4L67.8,25.4z"/>
		<path class="st0" d="M89.1,9.4h-4.6v15.2c0,2-0.6,3.1-2.3,3.1c-1.4,0-2.2-1-2.2-2.6V9.4h-4.6v17.4c0,4.1,2.4,5.5,4.7,5.5
			c2.1,0,3.4-1,4.3-2.5h0.1v2.2h4.6V9.4z"/>
		<path class="st0" d="M93.3,32.1h4.6V13h3.4V9.4h-3.4V6.1c0-1,0.5-1.6,1.3-1.6h2.1V0.2h-2.1c-3,0-5.9,1.7-5.9,6.1v3.1H91V13h2.2
			V32.1z"/>
		<path class="st0" d="M115,15.8c-0.1-3.7-2.7-6.6-6.5-6.6c-3.6,0-6.7,2.8-6.7,6.6c0,3.1,1.7,5.2,4.6,6.3l2.2,0.8
			c1.7,0.7,2.3,1.5,2.3,2.8c0,1.5-1.2,2.5-2.6,2.5c-1.7,0-2.3-1.3-2.5-2.6h-4.3c0.2,4.5,3.2,6.9,6.8,6.9c4,0,6.8-3.1,6.8-6.9
			c0-2.6-1.1-5.1-4.5-6.4l-2.7-1.1c-1.7-0.7-1.9-1.5-1.9-2.3c0-1.2,0.8-2.3,2.2-2.3c1.2,0,2.3,0.8,2.3,2.3L115,15.8L115,15.8z"/>
		<path class="st0" d="M54.6,40.1h1.9l0.1-0.7h-0.6l0.2-1.7h0.3c0.4,0,0.6,0.2,0.7,0.7l0.6,1.2c0.2,0.4,0.3,0.5,0.8,0.5h0.6l0.1-0.7
			H59c-0.2,0-0.2-0.1-0.3-0.2l-0.4-0.8c-0.4-0.7-0.5-0.8-1-0.9c0.8,0,1.6-0.6,1.6-1.6c0-0.9-0.6-1.4-1.7-1.4h-2l-0.1,0.7h0.5
			l-0.3,4.2h-0.5L54.6,40.1z M56.4,35.2h0.5c0.2,0,1.1,0,1.1,0.8c0,0.7-0.4,1.2-1.2,1.2c-0.2,0-0.3,0-0.5,0L56.4,35.2z"/>
		<path class="st0" d="M60.6,38.6c0-0.7,0.2-2.1,1.4-2.1c0.2,0,0.4,0.1,0.5,0.1c0,0.7-0.7,2.8-1.5,2.8
			C60.8,39.3,60.6,39.1,60.6,38.6z M63.7,39.4h-0.6l0.2-2.4c0-0.3,0.1-0.8,0.2-1h-0.3c-0.3-0.1-0.7-0.2-1-0.2
			c-1.9,0-2.2,1.9-2.2,2.7s0.2,1.6,1.1,1.6c1,0,1.4-1,1.7-1.9c-0.2,0.8-0.2,1.4-0.2,1.8h1.3L63.7,39.4z"/>
		<path class="st0" d="M63.9,42h1.8l0.1-0.7h-0.6l0.1-1.3c0.2,0,0.4,0.1,0.7,0.1c1.3,0,2.2-1.2,2.2-2.7c0-0.6-0.2-1.5-1-1.5
			c-1.2,0-1.6,1.2-1.7,1.7c0.1-0.7,0.2-1.2,0.2-1.7h-1.4l-0.1,0.7h0.6l-0.3,4.7H64L63.9,42z M67.5,37.4c0,0.8-0.4,2-1.3,2
			c-0.3,0-0.5,0-0.7-0.1c0.2-1.6,1-2.7,1.6-2.7C67.4,36.6,67.5,37,67.5,37.4z"/>
		<path class="st0" d="M68.5,42h1.8l0.2-0.7h-0.6l0.1-1.3c0.2,0,0.4,0.1,0.7,0.1c1.3,0,2.2-1.2,2.2-2.7c0-0.6-0.2-1.5-1-1.5
			c-1.2,0-1.6,1.2-1.7,1.7c0.1-0.7,0.2-1.2,0.2-1.7H69l-0.1,0.7h0.6l-0.4,4.7h-0.5L68.5,42z M72.1,37.4c0,0.8-0.4,2-1.3,2
			c-0.3,0-0.5,0-0.7-0.1c0.2-1.6,1-2.7,1.6-2.7C72,36.6,72.1,37,72.1,37.4z"/>
		<path class="st0" d="M76.4,39.1c-0.3,0.2-0.8,0.3-1.2,0.3c-0.7,0-1-0.4-1-1c0.7-0.1,2.5-0.3,2.5-1.7c0-0.7-0.6-1-1.2-1
			c-1.6,0-2.2,1.4-2.2,2.6c0,1.1,0.6,1.7,1.7,1.7c0.6,0,1.2-0.2,1.3-0.2V39.1z M75.9,36.9c0,0.7-0.8,0.8-1.6,1
			c0.1-0.6,0.3-1.4,1.2-1.4C75.8,36.5,75.9,36.7,75.9,36.9z"/>
		<path class="st0" d="M77.2,36.6h0.6l-0.2,2.1c0,0.4-0.1,1-0.2,1.4h0.8v-0.2c0.1-1.2,0.5-3.1,1.6-3.1h0.2l0.1-0.8
			c-0.1,0-0.2,0-0.4,0c-0.8,0-1.2,0.8-1.4,1.7c0.1-0.5,0.2-1.1,0.2-1.6h-1.3V36.6z"/>
		<path class="st0" d="M81.3,38.8h-0.7v1.1c0.3,0.1,0.8,0.2,1.5,0.2c1.2,0,1.7-0.7,1.7-1.3s-0.4-0.9-0.8-1l-0.7-0.2
			c-0.5-0.2-0.6-0.2-0.6-0.5s0.2-0.5,0.7-0.5c0.2,0,0.5,0,0.7,0.1v0.5h0.7v-1c-0.2-0.1-0.6-0.2-1.2-0.2c-1.2,0-1.7,0.7-1.7,1.2
			c0,0.7,0.5,0.9,0.9,1.1l0.7,0.2c0.3,0.1,0.5,0.2,0.5,0.5c0,0.4-0.4,0.6-0.7,0.6c-0.2,0-0.5-0.1-0.7-0.2L81.3,38.8L81.3,38.8z"/>
		<path class="st0" d="M84.2,36.6h0.6c-0.1,0.7-0.1,1.3-0.1,2c0,0.8,0.2,1.6,1.1,1.6c1,0,1.4-1.1,1.4-1.5c0,0.6,0.1,1.5,1,1.5
			c1.5,0,2.1-2.1,2.2-4.2h-1.3L89,36.6h0.6c0,1.5-0.5,2.8-1.2,2.8c-0.3,0-0.5-0.2-0.5-1.2c0-0.2,0-0.7,0.1-1.1l0.1-1.2h-0.8v0.3
			c-0.2,2.1-0.7,3.1-1.2,3.1c-0.3,0-0.4-0.4-0.4-0.9c0-0.2,0.1-1.3,0.2-1.8l0.1-0.7h-1.5L84.2,36.6z"/>
		<path class="st0" d="M91,36.6h0.6l-0.3,3.5h1.4l0.1-0.7h-0.6l0.3-3.5h-1.4L91,36.6z M91.5,34.5c0,0.2,0.2,0.5,0.5,0.5
			c0.5,0,0.7-0.3,0.7-0.6s-0.2-0.5-0.5-0.5C91.8,33.9,91.5,34.1,91.5,34.5z"/>
		<path class="st0" d="M93.3,34.6h0.7l-0.4,5.5h1.3l0.1-0.7h-0.6l0.5-5.5h-1.5L93.3,34.6z"/>
		<path class="st0" d="M95.7,38.2h2.1l0.1-0.7h-2.1L95.7,38.2z"/>
		<path class="st0" d="M99.2,38.3c-0.2,1.6-0.7,2-1.7,2.6l0.3,0.6c1.8-0.9,2.1-1.7,2.2-3.7l0.2-2.6h0.5l0.1-0.7H99l-0.1,0.7h0.6
			L99.2,38.3z"/>
		<path class="st0" d="M101.9,38.3c0-0.7,0.2-1.7,1.1-1.7c0.7,0,0.8,0.7,0.8,1.1c0,0.7-0.2,1.8-1.1,1.8
			C102.1,39.4,101.9,38.8,101.9,38.3 M101,38.2c0,0.8,0.3,1.8,1.7,1.8c1.1,0,2-0.7,2-2.5c0-1.4-0.9-1.8-1.6-1.8
			C101.7,35.8,101,37,101,38.2"/>
		<path class="st0" d="M105.3,36.6h0.6l-0.2,1.8c-0.1,0.6-0.1,1.1-0.2,1.7h0.8l0.1-0.6c0.2-1.2,0.9-2.9,1.7-2.9
			c0.2,0,0.2,0.2,0.2,0.5c0,0.3-0.2,2-0.3,3h1.4l0.1-0.7h-0.6l0.2-1.7c0-0.2,0.1-0.6,0.1-0.8c0-0.6-0.2-1-0.8-1
			c-0.7,0-1.4,0.5-1.8,1.8c0.2-0.7,0.2-1.1,0.2-1.7h-1.6L105.3,36.6z"/>
		<path class="st0" d="M110.9,38.6c0-0.7,0.2-2.1,1.4-2.1c0.2,0,0.4,0.1,0.5,0.1c0,0.7-0.7,2.8-1.5,2.8
			C111.1,39.3,110.9,39.1,110.9,38.6z M114,39.4h-0.6l0.2-2.4c0-0.3,0.1-0.8,0.2-1h-0.3c-0.3-0.1-0.7-0.2-1-0.2
			c-1.9,0-2.2,1.9-2.2,2.7s0.2,1.6,1.1,1.6c1,0,1.4-1,1.7-1.9c-0.2,0.8-0.2,1.4-0.2,1.8h1.3L114,39.4z"/>
	</g>
	<g>
		<path class="st0" d="M124.1,18.4h-6.5c-0.4,1.7-0.6,3.4-0.6,5.2h0c0,2.5,0.4,4.9,1.1,7.1L124.1,18.4z"/>
		<path class="st0" d="M160.4,10.7v19.9c0,1.6,0.4,2.1,1.9,2.3c1.3-2.9,2-6.1,2-9.4C164.3,18.9,162.9,14.4,160.4,10.7z"/>
		<path class="st0" d="M155.9,31V5.6c-4.1-3.5-9.4-5.6-15.3-5.6c-9.8,0-18.2,5.9-21.8,14.4h10.5V18L122,32.8h7.4v4.3h-8.1
			c4.3,6.1,11.4,10.1,19.4,10.1c8,0,15.1-4,19.3-10.1C157.4,36.6,155.9,35,155.9,31z M136.3,37.1h-4.6V14.4h4.6V37.1z M136.3,9.8
			h-4.6V5.2h4.6V9.8z M153.1,27.5L153.1,27.5l-9,0.1v3.1c0,1.4,0.8,2.2,2.2,2.2c1.7,0,2.2-1.3,2.2-2.3h4.6c0,1.8-0.7,3.6-1.8,4.8
			c-1.2,1.2-2.9,2-5,2c-2.8,0-4.9-1.2-6-3.2c-0.6-1.2-0.8-2.8-0.8-4.6V22c0-1.8,0.2-3.5,0.8-4.6c1.1-1.9,3.2-3.2,6-3.2
			c4.2,0,6.8,3.1,6.8,7V27.5z"/>
		<path class="st0" d="M146.3,18.7c-1.4,0-2.2,0.8-2.2,2.6v2.6h4.5v-2.6C148.5,19.6,147.7,18.7,146.3,18.7z"/>
	</g>
</g>
</svg>
