<?xml version="1.0" encoding="utf-8"?>
<svg id="Layer_1" data-name="Layer 1" xmlns="http://www.w3.org/2000/svg" viewBox="0 0 152 71">
  <defs>
    <style>
      .cls-1 {
        fill: #1f1f1f;
      }

      .cls-2 {
        fill: #0f0f0e;
      }
    </style>
  </defs>
  <g>
    <path class="cls-1" d="M66.14.16c0,4,2.53,6.51,4.88,9.42,3.48-2.29,6.35-4.4,6.35-9a5.44,5.44,0,0,0,0-.57H66.15c0,.05,0,.09,0,.13"/>
    <path class="cls-1" d="M95.62,39.13V29a26.88,26.88,0,0,1-3.55,6Z"/>
    <path class="cls-1" d="M77.11,17l8,10a22.57,22.57,0,0,0,2.26-7.49h8.25V0H88.11c0,.42,0,.84,0,1.27,0,7.31-4.78,12.33-11,15.68"/>
    <path class="cls-1" d="M84.7,43.75a27.33,27.33,0,0,1-6.3,4.37H88.57Z"/>
    <path class="cls-1" d="M58.08,32.43c0,4.65,4.24,8.4,9,8.4,4.51,0,7.68-2.32,10.6-5.63L66.91,21.87c-4.42,2-8.83,5.37-8.83,10.56"/>
    <path class="cls-1" d="M47.3,38.54V48h7.92a17,17,0,0,1-7.92-9.49"/>
    <path class="cls-1" d="M60.22,13.91C56.91,9.79,54.29,6,54.29.59c0-.18,0-.37,0-.56h-7V26.32c2.13-5.7,7.32-9.8,12.92-12.41"/>
  </g>
  <g>
    <path class="cls-2" d="M4.68,58.65A4,4,0,0,0,.84,61.23h0V54.69H0V69.75H.79V63.88c0-2.65,1.47-4.53,3.87-4.53,2.93,0,3.05,2.43,3.05,3.54v6.86h.8V63C8.51,61.71,8.46,58.65,4.68,58.65Z"/>
    <path class="cls-2" d="M20.86,67.74V61.48c0-2.24-1.88-2.83-3.76-2.83-2.53,0-4,1.21-4.1,3.59h.8c.1-1.88,1.38-2.89,3.3-2.89,2.45,0,3,1.65,3,2.13,0,1.77-.15,2-3.7,2.26-1.78.14-4,.67-4,3.2C12.44,69.22,14,70,16,70a4.16,4.16,0,0,0,4-2.4h0v.56c0,.89.19,1.59,1.44,1.59a3.9,3.9,0,0,0,.65-.09V69a3.89,3.89,0,0,1-.59.06C20.86,69.05,20.86,68.38,20.86,67.74Zm-.79-2.13a3.76,3.76,0,0,1-4,3.69c-1.88,0-2.82-1-2.82-2.36,0-1.62,1.07-2.3,2.95-2.51,1.55-.21,3.26-.12,3.89-.84Z"/>
    <path class="cls-2" d="M33.4,67.74V61.48c0-2.24-1.88-2.83-3.76-2.83-2.53,0-4,1.21-4.09,3.59h.79c.11-1.88,1.38-2.89,3.3-2.89,2.45,0,3,1.65,3,2.13,0,1.77-.15,2-3.7,2.26-1.77.14-3.95.67-3.95,3.2,0,2.28,1.57,3.06,3.6,3.06a4.14,4.14,0,0,0,4-2.4h0v.56c0,.89.19,1.59,1.44,1.59a3.9,3.9,0,0,0,.65-.09V69a3.9,3.9,0,0,1-.58.06C33.4,69.05,33.4,68.38,33.4,67.74Zm-.79-2.13a3.75,3.75,0,0,1-4,3.69c-1.88,0-2.82-1-2.82-2.36,0-1.62,1.06-2.3,2.94-2.51,1.55-.21,3.26-.12,3.89-.84Z"/>
    <path class="cls-2" d="M38.88,61.31h-.06v-2.4H38V69.75h.79V63.82A4.06,4.06,0,0,1,40,60.7a3.59,3.59,0,0,1,3-1.05v-.81A4.1,4.1,0,0,0,38.88,61.31Z"/>
    <path class="cls-2" d="M61.54,64.77c0,2.66-1.46,4.53-3.86,4.53-2.93,0-3.06-2.42-3.06-3.54V58.91h-.79v6.7c0,1.33,0,4.39,3.83,4.39a4,4,0,0,0,3.84-2.57h0v2.32h.8V58.91h-.8Z"/>
    <path class="cls-2" d="M71.45,58.65a4,4,0,0,0-3.84,2.58h0V58.91h-.8V69.75h.8V63.88c0-2.65,1.46-4.53,3.86-4.53,2.93,0,3,2.43,3,3.54v6.86h.8V63C75.28,61.71,75.24,58.65,71.45,58.65Z"/>
    <path class="cls-2" d="M88,61.33h0a4.07,4.07,0,0,0-4-2.68c-3.23,0-4.78,2.49-4.78,5.7,0,3,1.4,5.65,4.64,5.65A4.32,4.32,0,0,0,88,67.43h0v2.32h.79V54.69H88Zm-4,8c-2.76,0-4-2.4-4-5s1.15-5,4-5,4,2.47,4,5S86.73,69.3,84,69.3Z"/>
    <path class="cls-2" d="M112.24,58.65a3.41,3.41,0,0,0-3.41,2.3h0a3,3,0,0,0-3.24-2.3,3.48,3.48,0,0,0-3.37,2.47h0V58.91h-.79V69.75h.79V63.34c0-2.79,1.88-4,3.41-4,.69,0,2.53.25,2.53,3v7.43h.79V63.34c0-2.6,1.42-4,3.37-4,.62,0,2.57.21,2.57,3v7.43h.79v-7.4C115.6,59.79,114.18,58.65,112.24,58.65Z"/>
    <path class="cls-2" d="M124.32,58.65c-3.24,0-4.79,2.89-4.74,5.87S121.19,70,124.32,70A4.34,4.34,0,0,0,129,66.08h-.79a3.72,3.72,0,0,1-3.85,3.22c-2.65,0-4-2.32-3.95-4.87H129C129.19,61.33,127.69,58.65,124.32,58.65Zm-3.95,5.09c.17-2.15,1.57-4.39,3.95-4.39s3.89,2.11,3.93,4.39Z"/>
    <path class="cls-2" d="M133.66,54.69v6.65h.05a4.05,4.05,0,0,1,3.93-2.62c3.88,0,3.92,3.11,3.92,4.46V70h-.81V63c0-1.14-.13-3.6-3.13-3.6-2.46,0-4,1.91-4,4.61v6h-.81V54.69Z"/>
    <path class="cls-2" d="M146.66,61.54h.06a4.06,4.06,0,0,1,4.1-2.47v.81a3.58,3.58,0,0,0-3,1,4.06,4.06,0,0,0-1.2,3.12V70h-.8V59.14h.8Z"/>
  </g>
</svg>
