<svg height="74" viewBox="0 0 310 74" width="310" xmlns="http://www.w3.org/2000/svg"><g fill="#1f1f1f"><g transform="translate(86 4)"><path d="m3.96346154 3.26410256c0-1.01358974-.27692308-1.71794871-1.41923077-1.71794871s-1.47115385.30923077-1.47115385 1.28846153c0 1.23692308.62307693 1.27128206 1.575 1.95846154.95192308.68717949 2.09423077.9448718 2.09423077 2.55974359.08057854.60878803-.12859457 1.22015714-.56601204 1.65433449-.43741747.43417734-1.05334904.64180101-1.66668027.56181936-1.62692307 0-2.37115384-.87615385-2.30192307-2.50820513h.77884615c0 .92769231 0 1.88974359 1.55769231 1.88974359.40438603.04641023.80763482-.09563885 1.0920778-.38469714.28444299-.28905828.41802564-.69255113.36176835-1.09273876 0-1.13384615-.76153846-1.46025641-1.95576923-2.19897436-1.62692307-.97923077-1.73076923-1.47743589-1.73076923-2.30205128 0-1.44307692.9-2.04435897 2.26730769-2.04435897 1.73076923 0 2.11153847 1.08230769 2.11153847 2.26769231z"/><path d="m9.675 5.32564103c0-.72153847-.225-1.23692308-1.02115385-1.23692308-.42893072-.00146992-.811413.26773579-.95192307.67-.11824988.60540844-.17047404 1.22169642-.15576923 1.83820513 0 1.04794871 0 2.43948718 1.07307692 2.43948718s1.03846154-.58410257 1.07307692-1.28846154h.69230771c0 1.58051282-1.05576925 1.83820513-1.59230771 1.83820513-1.99038461 0-1.99038461-1.54615385-1.99038461-2.98923077-.04406823-.64386813-.00334008-1.29069154.12115384-1.92410257.25970385-.71715189.96434278-1.17876868 1.73076923-1.13384615.46217339-.0425436.91828523.12886025 1.2361907.46455239.31790545.33569215.46207225.79815227.39073235 1.25339633z"/><path d="m12.5653846 9.46589744v-8.29769231h.6923077v3.19538461c.3029033-.4946486.8364034-.80462809 1.4192308-.82461538 1.4538461 0 1.6096154 1.08230769 1.6096154 1.83820513v4.08871795h-.7096154v-4.05435898c0-.68717949-.2596154-1.32282051-1.0730769-1.32282051-.8134616 0-1.2634616.42948718-1.2634616 1.71794872v3.65923077z"/><path d="m18.3461538 3.65923077h.6923077l1.3153847 5.15384615 1.2288461-5.15384615h.9173077l1.2980769 5.15384615 1.3153846-5.15384615h.6923077l-1.575 5.80666667h-.8653846l-1.2980769-4.9648718-1.2980769 4.9648718h-.8653846z"/><path d="m28.1942308 6.71717949v.44666666c0 .79025641.225 1.87256411 1.3153846 1.87256411.3615685.02820177.7168489-.10586329.9682277-.3653607s.3724133-.6171305.3298492-.9746393h.7269231c.0633989.54006372-.1345121 1.07803804-.5336023 1.45047167s-.9522438.53535788-1.4913977.43927192c-1.0038462 0-2.0076923-.39512821-2.0076923-2.16461539v-1.42589743c0-1.71794872.7096154-2.45666667 2.0076923-2.45666667 2.025 0 2.025 1.44307692 2.025 3.17820513zm2.6480769-.56692308c0-1.28846154-.2076923-2.06153846-1.3326923-2.06153846s-1.3153846.77307692-1.3153846 2.06153846z"/><path d="m33.9403846 2.04435897v-.87615384h.8480769v.87615384zm0 7.42153847v-5.80666667h.7096154v5.80666667z"/><path d="m36.9692308 8.89897436 2.4230769-4.69h-2.2846154v-.54974359h2.9942308v.56692308l-2.3711539 4.69h2.4403846v.54974359h-3.201923z"/><path d="m42.7326923 6.71717949v.44666666c0 .79025641.225 1.87256411 1.3326923 1.87256411.360411.02923503.7147572-.10519934.9636408-.3655928.2488835-.26039346.3654968-.61869872.3171284-.9744072h.7269231c.0620033.53652618-.1337724 1.07076374-.5285659 1.44236379-.3947935.37160004-.9426476.53730518-1.4791264.4473798-1.0211538 0-2.025-.39512821-2.025-2.16461539v-1.42589743c0-1.71794872.7096154-2.45666667 2.025-2.45666667 2.0076923 0 2.0076923 1.44307692 2.0076923 3.17820513zm2.6480769-.56692308c0-1.28846154-.2076923-2.06153846-1.3153846-2.06153846s-1.3326923.77307692-1.3326923 2.06153846z"/><path d="m49.0673077 4.43230769c.3187304-.5803324.944618-.92769879 1.6096154-.89333333v.70435897c-.4277497-.07073935-.8644028.05898783-1.1826577.35136098-.3182548.29237315-.4822836.71447802-.4442654 1.14325441v3.72794872h-.5884615v-5.80666667h.6923077z"/><path d="m52.6846154 2.04435897v-.87615384h.8653846v.87615384zm0 7.42153847v-5.80666667h.6923077v5.80666667z"/><path d="m57.6519231 9.58615385c-1.2634616 0-1.7307693-.61846154-1.7307693-1.83820513h.7096154c0 .79025641.173077 1.32282051 1.073077 1.32282051s.9865384-.37794872.9865384-1.03076923c0-1.51179487-2.6307692-1.11666667-2.6307692-3.04076923 0-1.08230769.7442308-1.46025641 1.7307692-1.46025641.9865385 0 1.5403846.8074359 1.5403846 1.71794872h-.6923077c0-.73871795-.225-1.13384616-1.0211538-1.13384616-.2322242-.01449502-.459929.06834112-.6277177.22835574s-.2602809.38253991-.2549746.61343913c0 1.46025642 2.6307692 1.06512821 2.6307692 3.00641026.0350103.45354002-.1375755.89862098-.4699004 1.21182447-.332325.31320348-.7890622.46123539-1.2435611.40304733z"/><path d="m64.1942308 5.32564103c0-.72153847-.225-1.23692308-1.0211539-1.23692308-.4289307-.00146992-.811413.26773579-.9519231.67-.1182498.60540844-.170474 1.22169642-.1557692 1.83820513 0 1.04794871 0 2.43948718 1.0730769 2.43948718 1.073077 0 1.0384616-.58410257 1.073077-1.28846154h.6923077c.0902835.46381317-.0380007.94314631-.3482782 1.30133944s-.7685012.55594132-1.2440295.53686569c-1.9903847 0-1.9903847-1.54615385-1.9903847-2.98923077-.018293-.6458783.0397962-1.2916574.173077-1.92410257.2597038-.71715189.9643427-1.17876868 1.7307692-1.13384615.4773054-.07053969.9600504.08761231 1.3012767.42631106.3412264.33869876.5005586.81786783.4294925 1.29163766z"/><path d="m67.0846154 9.46589744v-8.29769231h.6923077v3.19538461c.309495-.50475392.8586077-.81620829 1.4538461-.82461538 1.4538462 0 1.6096154 1.08230769 1.6096154 1.83820513v4.08871795h-.6923077v-4.05435898c0-.68717949-.2769231-1.32282051-1.0903846-1.32282051s-1.2634615.42948718-1.2634615 1.71794872v3.65923077z"/><path d="m73.7653846 6.71717949v.44666666c0 .79025641.225 1.87256411 1.3153846 1.87256411.3615685.02820177.7168489-.10586329.9682277-.3653607s.3724134-.6171305.3298493-.9746393h.726923c.0633989.54006372-.1345121 1.07803804-.5336023 1.45047167-.3990901.37243363-.9522438.53535788-1.4913977.43927192-1.0038461 0-2.0076923-.39512821-2.0076923-2.16461539v-1.42589743c0-1.71794872.7096154-2.45666667 2.0076923-2.45666667 2.025 0 2.025 1.44307692 2.025 3.17820513zm2.6480769-.56692308c0-1.28846154-.2076923-2.06153846-1.3326923-2.06153846s-1.3153846.77307692-1.3153846 2.06153846z"/><path d="m86.7634615 5.75512821h-1.7307692v-.60128206h2.4403846v4.14025641c-.7462597.22561222-1.5218192.34137382-2.3019231.34358975-2.7346153 0-2.526923-2.71435898-2.526923-4.32923077 0-1.6148718-.2076923-4.31205128 2.526923-4.31205128 1.5923077 0 2.423077.68717948 2.3884616 2.30205128h-.7442308c0-1.09948718-.4846154-1.71794872-1.7307692-1.71794872-1.7307692 0-1.7307692 1.59769231-1.7307692 3.69358974 0 2.09589744 0 3.71076923 1.7307692 3.71076923.5307023.00889783 1.0585839-.07843073 1.5576923-.2576923z"/><path d="m90.6576923 6.71717949v.44666666c0 .79025641.225 1.87256411 1.3326923 1.87256411.360411.02923503.7147572-.10519934.9636408-.3655928.2488835-.26039346.3654968-.61869872.3171284-.9744072h.7269231c.0620033.53652618-.1337724 1.07076374-.5285659 1.44236379-.3947935.37160004-.9426476.53730518-1.4791264.4473798-1.0211538 0-2.025-.39512821-2.025-2.16461539v-1.42589743c0-1.71794872.7096154-2.45666667 2.025-2.45666667 2.0076923 0 2.0076923 1.44307692 2.0076923 3.17820513zm2.6480769-.56692308c0-1.28846154-.2076923-2.06153846-1.3153846-2.06153846s-1.3326923.77307692-1.3326923 2.06153846z"/><path d="m96.9230769 9.46589744h-.6923077v-5.82384616h.6923077v.72153846c.2764881-.50399827.8064803-.81963812 1.3846154-.82461538.5968798-.01792065 1.136434.35070983 1.3326923.91051282.2577387-.55668216.8193174-.9126241 1.4365384-.91051282.424335-.01678021.835275.14926768 1.127156.45544826s.436227.72262132.395921 1.14224405v4.32923077h-.692308v-4.1574359c0-.56692308-.225-1.21974359-.9-1.21974359s-1.2288458.87615384-1.2288458 1.71794872v3.65923077h-.6923077v-4.1574359c0-.56692308-.2076923-1.21974359-.9-1.21974359s-1.2115385.87615384-1.2115385 1.71794872z"/><path d="m105.576923 6.71717949v.44666666c0 .79025641.207692 1.87256411 1.315385 1.87256411.360411.02923503.714757-.10519934.96364-.3655928.248884-.26039346.365497-.61869872.317129-.9744072h.726923c.062003.53652618-.133772 1.07076374-.528566 1.44236379-.394793.37160004-.942648.53730518-1.479126.4473798-1.003846 0-2.025-.39512821-2.025-2.16461539v-1.42589743c0-1.71794872.709615-2.45666667 2.025-2.45666667 2.007692 0 2.007692 1.44307692 2.007692 3.17820513zm2.630769-.56692308c0-1.28846154-.207692-2.06153846-1.315384-2.06153846-1.107693 0-1.315385.77307692-1.315385 2.06153846z"/><path d="m111.253846 2.04435897v-.87615384h.865385v.87615384zm0 7.42153847v-5.80666667h.692308v5.80666667z"/><path d="m115.251923 9.46589744h-.709615v-5.80666667h.709615v.70435897c.302903-.4946486.836404-.80462809 1.419231-.82461538 1.436538 0 1.592308 1.08230769 1.592308 1.83820513v4.08871795h-.692308v-4.05435898c0-.68717949-.259616-1.32282051-1.073077-1.32282051-.813462 0-1.263462.42948718-1.263462 1.71794872z"/><path d="m121.378846 9.46589744h-.692308v-5.80666667h.692308v.70435897c.302903-.4946486.836404-.80462809 1.419231-.82461538 1.453846 0 1.609615 1.08230769 1.609615 1.83820513v4.08871795h-.709615v-4.05435898c0-.68717949-.259615-1.32282051-1.073077-1.32282051s-1.263462.42948718-1.263462 1.71794872z"/><path d="m130.5 3.65923077v5.80666667h-.605769v-.63564103c-.329172.4836734-.883242.76836117-1.471154.75589744-1.211539 0-1.540385-.87615385-1.540385-1.82102564v-4.10589744h.692308v3.98564102c0 .17179488 0 1.39153847.969231 1.39153847.71014-.00939923 1.280832-.58351926 1.280769-1.28846154v-4.08871795zm-3.098077-1.94128205h.675v1.16820513h-.744231zm1.834615 0h.726924v1.16820513h-.726924z"/><path d="m132.542308 4.20897436v-.54974359h.934615v-1.2025641l.709615-.29205129v1.49461539h1.176924v.54974359h-1.176924v3.72794872c0 .77307692 0 .96205128.640385.96205128h.536539v.60128205h-.657693c-.934615 0-1.228846-.41230769-1.228846-1.13384615v-4.1574359z"/><path d="m137.25 8.89897436 2.423077-4.69h-2.284615v-.54974359h2.99423v.56692308l-2.371154 4.69h2.440385v.54974359h-3.201923z"/><path d="m142.615385 2.04435897v-.87615384h.865384v.87615384zm0 7.42153847v-5.80666667h.692307v5.80666667z"/><path d="m148.846154 3.64205128h.675v1.15102564 4.87897436c0 1.28846152-.380769 2.04435902-2.059616 2.04435902-.460024.0780883-.930315-.0625113-1.270368-.3797933s-.510494-.7745084-.460401-1.2350785h.692308c-.028772.2965251.080007.5899258.295566.7972013.215558.2072755.514452.3058829.812126.2679269 1.35 0 1.263462-.7215385 1.263462-2.47384619-.315525.46600543-.85433.73341225-1.419231.70435898-1.730769 0-1.730769-1.44307693-1.730769-2.73153846-.059697-.66352567-.001108-1.33230222.173077-1.97564103.253637-.72395541.959757-1.19355157 1.730769-1.15102564.595695-.01020202 1.148345.30703554 1.436538.82461538zm-2.596154 2.78307693c0 1.21974358 0 2.42230769 1.280769 2.42230769.447199.01048491.856861-.24704566 1.038462-.65282052.269276-.77770509.363796-1.6044878.276923-2.42230769 0-1.21974359-.657692-1.71794872-1.298077-1.71794872-1.246154.03435898-1.280769 1.51179488-1.280769 2.37076924z"/><path d="m152.601923 6.71717949v.44666666c0 .79025641.207692 1.87256411 1.315385 1.87256411.360411.02923503.714757-.10519934.96364-.3655928.248884-.26039346.365497-.61869872.317129-.9744072h.744231c.063399.54006372-.134512 1.07803804-.533603 1.45047167-.39909.37243363-.952243.53535788-1.491397.43927192-1.003846 0-2.025-.39512821-2.025-2.16461539v-1.42589743c0-1.71794872.709615-2.45666667 2.025-2.45666667 2.025 0 2.025 1.44307692 2.025 3.17820513zm2.630769-.56692308c0-1.28846154-.207692-2.06153846-1.315384-2.06153846-1.107693 0-1.315385.77307692-1.315385 2.06153846z"/><path d="m165.825 5.75512821h-1.730769v-.60128206h2.440384v4.14025641c-.746259.22561222-1.521819.34137382-2.301923.34358975-2.734615 0-2.526923-2.71435898-2.526923-4.32923077 0-1.6148718-.207692-4.31205128 2.526923-4.31205128 1.592308 0 2.423077.68717948 2.388462 2.30205128h-.744231c0-1.09948718-.484615-1.71794872-1.730769-1.71794872-1.730769 0-1.730769 1.59769231-1.730769 3.69358974 0 2.09589744 0 3.71076923 1.730769 3.71076923.530702.00889783 1.058584-.07843073 1.557692-.2576923z"/><path d="m169.719231 6.71717949v.44666666c0 .79025641.225 1.87256411 1.332692 1.87256411.360411.02923503.714757-.10519934.963641-.3655928.248883-.26039346.365497-.61869872.317128-.9744072h.744231c.062003.53652618-.133772 1.07076374-.528566 1.44236379-.394793.37160004-.942647.53730518-1.479126.4473798-1.021154 0-2.025-.39512821-2.025-2.16461539v-1.42589743c0-1.71794872.709615-2.45666667 2.025-2.45666667 2.007692 0 2.007692 1.44307692 2.007692 3.17820513zm2.648077-.56692308c0-1.28846154-.207693-2.06153846-1.315385-2.06153846s-1.332692.77307692-1.332692 2.06153846z"/><path d="m176.867308 9.58615385c-1.263462 0-1.73077-.61846154-1.73077-1.83820513h.709616c0 .79025641.173077 1.32282051 1.073077 1.32282051.280458.0290628.558798-.07152439.754782-.27276453.195984-.20124013.287831-.48076901.249064-.7580047 0-1.51179487-2.648077-1.11666667-2.648077-3.04076923 0-1.08230769.744231-1.46025641 1.730769-1.46025641.986539 0 1.540385.8074359 1.540385 1.71794872h-.692308c0-.73871795-.225-1.13384616-1.021154-1.13384616-.232224-.01449502-.459929.06834112-.627717.22835574-.167789.16001462-.260281.38253991-.254975.61343913 0 1.46025642 2.630769 1.06512821 2.630769 3.00641026.035011.45354002-.137575.89862098-.4699 1.21182447-.332325.31320348-.789062.46123539-1.243561.40304733z"/><path d="m181.35 6.71717949v.44666666c0 .79025641.225 1.87256411 1.332692 1.87256411.360411.02923503.714758-.10519934.963641-.3655928.248884-.26039346.365497-.61869872.317129-.9744072h.726923c.062003.53652618-.133773 1.07076374-.528566 1.44236379-.394794.37160004-.942648.53730518-1.479127.4473798-1.021154 0-2.025-.39512821-2.025-2.16461539v-1.42589743c0-1.71794872.709616-2.45666667 2.025-2.45666667 2.007693 0 2.007693 1.44307692 2.007693 3.17820513zm2.648077-.56692308c0-1.28846154-.207692-2.06153846-1.315385-2.06153846-1.107692 0-1.332692.77307692-1.332692 2.06153846z"/><path d="m187.182692 9.46589744v-8.29769231h.692308v8.29769231z"/><path d="m190.730769 9.46589744v-8.29769231h.692308v8.29769231z"/><path d="m195.576923 9.58615385c-1.263461 0-1.730769-.61846154-1.730769-1.83820513h.709615c0 .79025641.190385 1.32282051 1.073077 1.32282051.280458.0290628.558799-.07152439.754783-.27276453.195983-.20124013.28783-.48076901.249063-.7580047 0-1.51179487-2.630769-1.11666667-2.630769-3.04076923 0-1.08230769.744231-1.46025641 1.730769-1.46025641.986539 0 1.523077.8074359 1.523077 1.71794872h-.675c0-.73871795-.242307-1.13384616-1.021154-1.13384616-.233777-.01423398-.463076.0681304-.633536.22756657-.170461.15943617-.266903.38174708-.266464.6142283 0 1.46025642 2.63077 1.06512821 2.63077 3.00641026.03501.45354002-.137576.89862098-.469901 1.21182447-.332325.31320348-.789062.46123539-1.243561.40304733z"/><path d="m202.171154 5.32564103c0-.72153847-.242308-1.23692308-1.038462-1.23692308-.424273.00061536-.800634.27041845-.934615.67-.11825.60540844-.170474 1.22169642-.155769 1.83820513 0 1.04794871 0 2.43948718 1.073077 2.43948718s1.021153-.58410257 1.055769-1.28846154h.709615c.084165.46579557-.048765.94436299-.361521 1.30153521s-.771673.55450283-1.248094.53666992c-1.973077 0-1.973077-1.54615385-1.973077-2.98923077-.027007-.64611303.031178-1.29295872.173077-1.92410257.259704-.71715189.964343-1.17876868 1.730769-1.13384615.460366-.03572682.912203.13778507 1.228475.47175186.316271.33396679.462822.7923221.398448 1.24619686z"/><path d="m205.061538 9.46589744v-8.29769231h.692308v3.19538461c.302903-.4946486.836404-.80462809 1.419231-.82461538 1.453846 0 1.592308 1.08230769 1.592308 1.83820513v4.08871795h-.692308v-4.05435898c0-.68717949-.259615-1.32282051-1.073077-1.32282051s-1.263462.42948718-1.263462 1.71794872v3.65923077z"/><path d="m214.217308 8.76153846c-.38485.56461442-1.046232.8797265-1.73077.82461539-.453885.0178608-.893014-.161825-1.202359-.49198993s-.458084-.77791268-.407256-1.22595879c0-2.02717949 2.059615-1.82102564 3.236539-1.92410257v-.48102564c0-.84179487-.259616-1.37435897-1.176924-1.37435897-.292324-.04051582-.587798.04871918-.807851.24397592s-.342381.47674554-.334456.76961382h-.640385c0-1.11666666.917308-1.56333333 1.938462-1.56333333.588461 0 1.730769 0 1.730769 1.54615385v2.92051282c-.028931.48632858-.028931.97392783 0 1.46025641h-.709615zm0-2.26769231c-.986539 0-2.509616 0-2.509616 1.34-.04005.30543224.055065.6131192.260809.8436907.205745.2305715.501972.36144964.812268.35887341.797809-.0364044 1.428201-.68474395 1.436539-1.4774359z"/><path d="m217.782692 4.20897436h-.951923v-.54974359h.951923v-.97923077c0-.54974359 0-1.56333333 1.488462-1.56333333h.398077v.60128205h-.519231c-.675 0-.675.60128205-.675.92769231v.99641025h1.176923v.54974359h-1.176923v5.27410257h-.692308z"/><path d="m221.019231 4.20897436v-.54974359h.934615v-1.2025641l.692308-.29205129v1.49461539h1.176923v.54974359h-1.176923v3.72794872c0 .77307692.086538.96205128.640384.96205128h.536539v.60128205h-.657692c-.934616 0-1.211539-.41230769-1.211539-1.13384615v-4.1574359z"/><path d="m3.96346154 17.0076923c0-1.0135897-.27692308-1.7179487-1.41923077-1.7179487s-1.47115385.3092308-1.47115385 1.2884615c0 1.2369231.62307693 1.2712821 1.575 1.9584616.95192308.6871795 2.09423077.9448718 2.09423077 2.5597436.08057854.608788-.12859457 1.2201571-.56601204 1.6543344-.43741747.4341774-1.05334904.6418011-1.66668027.5618194-1.62692307 0-2.37115384-.8761538-2.30192307-2.5082051h.77884615c0 .9276923 0 1.8897436 1.55769231 1.8897436.40438603.0464102.80763482-.0956389 1.0920778-.3846972.28444299-.2890583.41802564-.6925511.36176835-1.0927387 0-1.1338462-.76153846-1.4602564-1.95576923-2.1989744-1.62692307-.9792308-1.73076923-1.4774359-1.73076923-2.3020513 0-1.4430769.9-2.0443589 2.26730769-2.0443589 1.73076923 0 2.11153847 1.0823076 2.11153847 2.2676923z"/><path d="m6.92307692 20.9417949v-1.2541026c0-1.5117949.65769231-2.4051282 2.025-2.4051282 1.36730768 0 2.00769228.8933333 2.00769228 2.4051282v1.2541026c0 1.4946154-.6403846 2.3879487-2.00769228 2.3879487-1.36730769 0-2.025-.8933333-2.025-2.3879487zm.6923077-.6356411c0 1.5117949.17307692 2.4738462 1.3326923 2.4738462s1.31538458-.9620513 1.31538458-2.4738462c0-1.5117948-.1730769-2.4738461-1.31538458-2.4738461-1.14230769 0-1.38461538.9620513-1.38461538 2.4738461z"/><path d="m15.9576923 19.0692308c0-.7215385-.2423077-1.2369231-1.0384615-1.2369231-.4260369-.0048449-.8053023.26704-.9346154.67-.1352707.6030835-.1934213 1.2206858-.1730769 1.8382051 0 1.0479487 0 2.4394872 1.0903846 2.4394872s1.0211538-.5841026 1.0557692-1.2884615h.6923077c.0902835.4638131-.0380006.9431463-.3482781 1.3013394s-.7685012.5559413-1.2440296.5368657c-1.9903846 0-1.9903846-1.5461539-1.9903846-2.9892308-.018293-.6458783.0397961-1.2916574.1730769-1.9241025.2597039-.7171519.9643428-1.1787687 1.7307692-1.1338462.4632493-.0412947.9201173.1297779 1.240464.4644871.3203468.3347093.4690557.7963644.4037668 1.2534616z"/><path d="m18.9346154 15.7879487v-.8761538h.8653846v.8761538zm.1038461 7.4215385v-5.8066667h.6923077v5.8066667z"/><path d="m22.8461538 20.4607692v.4466667c0 .7902564.225 1.8725641 1.3326924 1.8725641.3604109.029235.7147572-.1051993.9636407-.3655928s.3654968-.6186987.3171285-.9744072h.7269231c.0582789.5261308-.1310329 1.0495542-.5131366 1.4187583s-.9143351.542965-1.4426327.4709853c-1.0211538 0-2.025-.3951282-2.025-2.1646154v-1.4258974c0-1.7179487.7096154-2.4566667 2.025-2.4566667 2.0076923 0 2.0076923 1.4430769 2.0076923 3.1782051zm2.648077-.566923c0-1.2884616-.2076923-2.0615385-1.3153846-2.0615385-1.1076924 0-1.3326924.7730769-1.3326924 2.0615385zm-.7615385-4.7071795h.9346154l-1.7307692 1.5805128h-.5711539z"/><path d="m27.8653846 17.9525641v-.5497436h.9519231v-1.2025641l.6923077-.2920513v1.4946154h1.1769231v.5497436h-1.1769231v3.7279487c0 .7730769 0 .9620513.6403846.9620513h.5365385v.6012821h-.6576923c-.9346154 0-1.2115385-.4123077-1.2115385-1.1338462v-4.1574359z"/><path d="m33.3346154 20.4607692v.4466667c0 .7902564.225 1.8725641 1.3153846 1.8725641.3615685.0282018.7168489-.1058633.9682277-.3653607s.3724133-.6171305.3298492-.9746393h.7269231c.066435.5472505-.1357157 1.0929082-.5435059 1.4670649s-.9716895.5313671-1.5161095.4226787c-1.0038461 0-2.0076923-.3951282-2.0076923-2.1646154v-1.4258974c0-1.7179487.7096154-2.4566667 2.0076923-2.4566667 2.025 0 2.025 1.4430769 2.025 3.1782051zm2.6480769-.566923c0-1.2884616-.2076923-2.0615385-1.3326923-2.0615385s-1.3153846.7730769-1.3153846 2.0615385zm-.7615385-4.7071795h.9346154l-1.7307692 1.5805128h-.5884615z"/><path d="m43.7019231 23.3297436c-1.2634616 0-1.7307693-.6184615-1.7307693-1.8382051h.7096154c0 .7902564.1903846 1.3228205 1.073077 1.3228205.2804579.0290628.5587985-.0715244.7547824-.2727646.1959838-.2012401.2878309-.480769.2490637-.7580047 0-1.5117948-2.6307692-1.1166666-2.6307692-3.0407692 0-1.0823077.7442307-1.4602564 1.7307692-1.4602564s1.5230769.8074359 1.5230769 1.7179487h-.675c0-.7387179-.2423077-1.1338461-1.0211538-1.1338461-.2337772-.014234-.4630765.0681304-.6335367.2275665-.1704602.1594362-.2669027.3817471-.2664633.6142283 0 1.4602564 2.6307692 1.0651282 2.6307692 3.0064103.0350103.45354-.1375755.898621-.4699004 1.2118245-.332325.3132034-.7890622.4612354-1.2435611.4030473z"/><path d="m51.3 17.4028205v5.8066667h-.6057692v-.635641c-.3291721.4836734-.8832413.7683611-1.4711539.7558974-1.1942307 0-1.5403846-.8761539-1.5403846-1.8210257v-4.1058974h.6923077v3.985641c0 .1717949 0 1.3915385.9865385 1.3915385.7033544-.0186238 1.2637117-.5900688 1.2634615-1.2884615v-4.088718z"/><path d="m53.8442308 15.7879487v-.8761538h.8653846v.8761538zm0 7.4215385v-5.8066667h.6923077v5.8066667z"/><path d="m58.8461538 23.3297436c-1.2634615 0-1.7307692-.6184615-1.7307692-1.8382051h.7096154c0 .7902564.1903846 1.3228205 1.0730769 1.3228205.280458.0290628.5587986-.0715244.7547824-.2727646.1959839-.2012401.287831-.480769.2490638-.7580047 0-1.5117948-2.6307693-1.1166666-2.6307693-3.0407692 0-1.0823077.7442308-1.4602564 1.7307693-1.4602564.9865384 0 1.5403846.8074359 1.5403846 1.7179487h-.6923077c0-.7387179-.225-1.1338461-1.0211538-1.1338461-.2322242-.0144951-.4599291.0683411-.6277178.2283557s-.2602808.3825399-.2549746.6134391c0 1.4602564 2.6307693 1.0651282 2.6307693 3.0064103.0359934.4569559-.1388133.9054459-.4752724 1.2193747s-.798235.4593939-1.2554969.3954971z"/><path d="m64.2115385 23.3297436c-1.2634616 0-1.7307693-.6184615-1.7307693-1.8382051h.7096154c0 .7902564.1730769 1.3228205 1.0730769 1.3228205.280458.0290628.5587986-.0715244.7547824-.2727646.1959839-.2012401.287831-.480769.2490638-.7580047 0-1.5117948-2.6307692-1.1166666-2.6307692-3.0407692 0-1.0823077.726923-1.4602564 1.7307692-1.4602564 1.0038461 0 1.5403846.8074359 1.5403846 1.7179487h-.6923077c0-.7387179-.225-1.1338461-1.0211538-1.1338461-.2322242-.0144951-.459929.0683411-.6277178.2283557-.1677887.1600146-.2602808.3825399-.2549745.6134391 0 1.4602564 2.6307692 1.0651282 2.6307692 3.0064103.0359934.4569559-.1388133.9054459-.4752724 1.2193747s-.798235.4593939-1.2554968.3954971z"/><path d="m68.8846154 20.4607692v.4466667c0 .7902564.225 1.8725641 1.3153846 1.8725641.3615685.0282018.7168489-.1058633.9682277-.3653607s.3724133-.6171305.3298492-.9746393h.7269231c.0633989.5400637-.1345121 1.078038-.5336023 1.4504717-.3990902.3724336-.9522438.5353579-1.4913977.4392719-1.0038462 0-2.0076923-.3951282-2.0076923-2.1646154v-1.4258974c0-1.7179487.7096154-2.4566667 2.0076923-2.4566667 2.025 0 2.025 1.4430769 2.025 3.1782051zm2.6480769-.566923c0-1.2884616-.2076923-2.0615385-1.3326923-2.0615385s-1.3153846.7730769-1.3153846 2.0615385z"/><path d="m80.775 22.4707692c-.3116498.5217401-.8773835.8416891-1.4884615.8417949-1.7307693 0-1.7307693-1.7179487-1.7307693-3.0235897 0-1.3056411 0-3.0235898 1.7307693-3.0235898.5538572.0024238 1.0763688.2554194 1.4192307.6871795v-3.0407692h.6403846v7.1466666c-.0310284.3830572-.0310284.7679685 0 1.1510257h-.675zm0-1.6320513v-1.0479487c0-.3435897 0-1.9584615-1.2980769-1.9584615s-1.2634616 1.1338461-1.2634616 2.4910256c0 2.1646154.5365385 2.4566667 1.2807693 2.4566667.7442307 0 1.2461538-.4466667 1.2461538-1.9412821z"/><path d="m84.2884615 14.9117949h.848077l-.6923077 2.0787179h-.6057693z"/><path d="m90.6403846 17.4028205v5.8066667h-.6403846v-.635641c-.329172.4836734-.8832413.7683611-1.4711538.7558974-1.1942308 0-1.5403847-.8761539-1.5403847-1.8210257v-4.1058974h.6923077v3.985641c0 .1717949 0 1.3915385.9865385 1.3915385.7033545-.0186238 1.2637117-.5900688 1.2634615-1.2884615v-4.088718z"/><path d="m92.7692308 17.9525641v-.5497436h.9346154v-1.2025641l.6923076-.2920513v1.4946154h1.1769231v.5497436h-1.1769231v3.7279487c0 .7730769 0 .9620513.6403847.9620513h.5365384v.6012821h-.6576923c-.9346154 0-1.2115384-.4123077-1.2115384-1.1338462v-4.1574359z"/><path d="m97.7192308 15.7879487v-.8761538h.9346154v.8761538zm0 7.4215385v-5.8066667h.6923077v5.8066667z"/><path d="m101.076923 23.2094872v-8.2976923h.692308v8.2976923z"/><path d="m104.278846 15.7879487v-.8761538h.848077v.8761538zm0 7.4215385v-5.8066667h.709616v5.8066667z"/><path d="m107.307692 17.9525641v-.5497436h.934616v-1.2025641l.692307-.2920513v1.4946154h1.176923v.5497436h-1.176923v3.7279487c0 .7730769 0 .9620513.640385.9620513h.536538v.6012821h-.657692c-.934615 0-1.211538-.4123077-1.211538-1.1338462v-4.1574359z"/><path d="m112.5 20.4607692v.4466667c0 .7902564.225 1.8725641 1.332692 1.8725641.360411.029235.714758-.1051993.963641-.3655928.248884-.2603935.365497-.6186987.317129-.9744072h.848076c.062004.5365262-.133772 1.0707637-.528565 1.4423638-.394794.3716-.942648.5373052-1.479127.4473798-1.003846 0-2.025-.3951282-2.025-2.1646154v-1.4258974c0-1.7179487.709616-2.4566667 2.025-2.4566667 2.007692 0 2.007692 1.4430769 2.007692 3.1782051zm2.648077-.566923c0-1.2884616-.207692-2.0615385-1.315385-2.0615385-1.107692 0-1.332692.7730769-1.332692 2.0615385zm-.744231-4.7071795h.917308l-1.730769 1.5805128h-.571154z"/><path d="m122.330769 18.1071795c.307001-.4880719.839779-.791183 1.419231-.8074359 1.834615 0 1.851923 1.5976923 1.851923 2.3535897v1.3056411c0 1.4946153-.536538 2.3879487-2.025 2.3879487-.512749-.0130051-.977411-.3029146-1.211538-.7558975v2.8517949h-.692308v-8.04h.675zm0 2.714359c0 1.3228205.605769 1.9584615 1.246154 1.9584615 1.142308 0 1.315385-.9620513 1.315385-2.4738462 0-1.5117948-.173077-2.4738461-1.315385-2.4738461-.45 0-1.246154.5153846-1.246154 1.9584615z"/><path d="m131.4 17.4028205v5.8066667h-.588462v-.635641c-.329172.4836734-.883241.7683611-1.471153.7558974-1.194231 0-1.540385-.8761539-1.540385-1.8210257v-4.1058974h.692308v3.985641c0 .1717949 0 1.3915385.986538 1.3915385.703355-.0186238 1.263712-.5900688 1.263462-1.2884615v-4.088718z"/><path d="m133.771154 23.2094872c.016922-.1886011.016922-.378322 0-.5669231v-7.7307692h.692308v3.1782051c.301438-.5278536.878094-.8406688 1.488461-.8074359 1.903846 0 1.730769 1.975641 1.730769 3.0235897 0 1.0479488-.103846 3.0235898-1.817307 3.0235898-.612056.0403961-1.189925-.2835125-1.471154-.8246154v.704359zm1.990384-.4294872c1.298077 0 1.332693-1.0994872 1.332693-2.4566667s0-2.4910256-1.332693-2.4910256c-1.332692 0-1.263461 1.5117949-1.263461 2.3879487 0 .8761539 0 2.5597436 1.263461 2.5597436z"/><path d="m140.192308 23.2094872v-8.2976923h.709615v8.2976923z"/><path d="m143.653846 15.7879487v-.8761538h.848077v.8761538zm0 7.4215385v-5.8066667h.709616v5.8066667z"/><path d="m150.698077 17.4028205c-.016922.1886011-.016922.378322 0 .5669231v7.4387179h-.692308v-2.8517948c-.308902.5182832-.882673.8229105-1.488461.7902564-1.903846 0-1.73077-1.975641-1.73077-3.0235898 0-1.0479487.103847-3.0235897 1.73077-3.0235897.628949-.0513785 1.22085.3011314 1.471154.8761538v-.7558974zm-.744231 2.9205128c0-1.3571795 0-2.4910256-1.315384-2.4910256-1.315385 0-1.263462 1.5117949-1.263462 2.3879487 0 .8761539 0 2.5597436 1.263462 2.5597436 1.263461 0 1.315384-1.0994872 1.315384-2.4566667z"/><path d="m156.703846 17.4028205v5.8066667h-.605769v-.635641c-.332508.4889039-.89447.7742892-1.488462.7558974-1.19423 0-1.540384-.8761539-1.540384-1.8210257v-4.1058974h.709615v3.985641c0 .1717949 0 1.3915385.969231 1.3915385.703354-.0186238 1.263712-.5900688 1.263461-1.2884615v-4.088718z"/><path d="m159.646154 20.4607692v.4466667c0 .7902564.225 1.8725641 1.315384 1.8725641.361569.0282018.716849-.1058633.968228-.3653607s.372413-.6171305.329849-.9746393h.726923c.063399.5400637-.134512 1.078038-.533602 1.4504717-.39909.3724336-.952244.5353579-1.491398.4392719-1.003846 0-2.007692-.3951282-2.007692-2.1646154v-1.4258974c0-1.7179487.709616-2.4566667 2.007692-2.4566667 2.025 0 2.025 1.4430769 2.025 3.1782051zm2.648077-.566923c0-1.2884616-.207693-2.0615385-1.332693-2.0615385s-1.315384.7730769-1.315384 2.0615385z"/><path d="m3.96346154 30.7512821c0-1.0135898-.27692308-1.7179488-1.41923077-1.7179488s-1.47115385.3092308-1.47115385 1.2884616c0 .9792307.62307693 1.271282 1.575 1.9584615.95192308.6871795 2.09423077.9448718 2.09423077 2.5597436.08057854.608788-.12859457 1.2201571-.56601204 1.6543345-.43741747.4341773-1.05334904.641801-1.66668027.5618193-1.62692307 0-2.37115384-.8761538-2.30192307-2.5082051h.77884615c0 .9276923 0 1.8897436 1.55769231 1.8897436.40438603.0464102.80763482-.0956388 1.0920778-.3846971.28444299-.2890583.41802564-.6925512.36176835-1.0927388 0-1.1338461-.76153846-1.4602564-1.95576923-2.1989743-1.62692307-.9792308-1.73076923-1.4774359-1.73076923-2.3020513 0-1.443077.9-2.044359 2.26730769-2.044359 1.73076923 0 2.11153847 1.0823077 2.11153847 2.2676923z"/><path d="m6.92307692 34.6853846v-1.2541025c0-1.5117949.65769231-2.4051283 2.025-2.4051283 1.36730768 0 2.00769228.8933334 2.00769228 2.4051283v1.2541025c0 1.4946154-.6403846 2.3879487-2.00769228 2.3879487-1.36730769 0-2.025-.8933333-2.025-2.3879487zm.6923077-.635641c0 1.5117949.17307692 2.4738461 1.3326923 2.4738461s1.31538458-.9620512 1.31538458-2.4738461-.1730769-2.4738462-1.31538458-2.4738462c-1.14230769 0-1.35.9620513-1.35 2.4738462z"/><path d="m16.0269231 32.8128205c0-.7215384-.2423077-1.2369231-1.0384616-1.2369231-.4260368-.0048449-.8053022.26704-.9346153.67-.1352707.6030836-.1934213 1.2206859-.173077 1.8382052 0 1.0479487 0 2.4394871 1.0903846 2.4394871 1.0903847 0 1.0211539-.5841025 1.0557693-1.2884615h.6923077c.0902835.4638132-.0380007.9431463-.3482782 1.3013394-.3102775.3581932-.7685012.5559414-1.2440295.5368657-1.9903846 0-1.9903846-1.5461538-1.9903846-2.9892307-.0217328-.6468767.0422768-1.2937832.1903846-1.9241026.2597038-.7171519.9643427-1.1787687 1.7307692-1.1338462.4632492-.0412946.9201173.1297779 1.240464.4644872.3203467.3347092.4690557.7963643.4037668 1.2534616z"/><path d="m18.9346154 29.5315385v-.8761539h.8480769v.8761539zm0 7.4215384v-5.8066666h.7096154v5.8066666z"/><path d="m22.8115385 34.204359v.4466666c0 .7902565.225 1.8725641 1.3326923 1.8725641.3604109.0292351.7147572-.1051993.9636407-.3655928.2488835-.2603934.3654968-.6186987.3171285-.9744072h.7269231c.0561607.5193768-.1287966 1.0359028-.5025971 1.4035918s-.8958337.5465944-1.4185568.4861518c-1.0211538 0-2.025-.3951282-2.025-2.1646154v-1.4258974c0-1.7179487.7096154-2.4566667 2.025-2.4566667 2.0076923 0 2.0076923 1.443077 2.0076923 3.1782052zm2.6480769-.5669231c0-1.2884615-.2076923-2.0615385-1.3153846-2.0615385s-1.3326923.773077-1.3326923 2.0615385z"/><path d="m27.8653846 31.6961538v-.5497435h.9519231v-1.2025641l.6923077-.2920513v1.4946154h1.1769231v.5497435h-1.1769231v3.7279488c0 .7730769 0 .9620512.6403846.9620512h.5365385v.6012821h-.6576923c-.9346154 0-1.2115385-.4123077-1.2115385-1.1338462v-4.1574359z"/><path d="m35.8442308 36.2487179c-.3823496.5674831-1.0455405.8834567-1.7307693.8246154-.4538858.0178608-.8930146-.161825-1.2023594-.4919899s-.4580839-.7779127-.4072559-1.2259588c0-2.0271795 2.0596153-1.8210256 3.2538461-1.9241025v-.4810257c0-.8417949-.2596154-1.374359-1.1942308-1.374359-.2923242-.0405158-.5877985.0487192-.8078513.243976-.2200528.1952567-.3423814.4767455-.3344564.7696138h-.7442307c0-1.1166667.9346154-1.5633334 1.9557692-1.5633334.5884615 0 1.7307692 0 1.7307692 1.5461539v2.9205128c-.0289313.4863286-.0289313.9739278 0 1.4602564h-.726923zm-.9865385-5.7379487-1.7307692-1.5805128h.9173077l1.3153846 1.5805128zm.9519231 3.4358975c-1.0038462 0-2.5096154 0-2.5096154 1.34 0 .6528205.3288462 1.2025641 1.0557692 1.2025641.8008065-.0359803 1.4364474-.6819348 1.4538462-1.4774359z"/><path d="m43.8230769 37.0733333c-1.2807692 0-1.7307692-.6184615-1.7307692-1.8382051h.7096154c0 .7902564.1903846 1.3228205 1.0730769 1.3228205.2804579.0290628.5587985-.0715244.7547824-.2727645s.2878309-.480769.2490638-.7580047c0-1.5117949-2.6307693-1.1166667-2.6307693-3.0407692 0-1.0823077.7442308-1.4602565 1.7307693-1.4602565.9865384 0 1.5230769.8074359 1.5230769 1.7179488h-.675c0-.738718-.2423077-1.1338462-1.0211539-1.1338462-.2337771-.014234-.4630764.0681304-.6335367.2275666-.1704602.1594361-.2669027.3817471-.2664633.6142283 0 1.4602564 2.6307693 1.0651282 2.6307693 3.0064102.0417282.4552882-.1287644.9044935-.4627688 1.2192799-.3340045.3147863-.7947829.4605298-1.2506928.3955919z"/><path d="m49.4307692 36.0769231 1.4365385-4.9305128h.6576923l-1.7307692 5.8066666h-.7961539l-1.7307692-5.8066666h.7615385z"/><path d="m53.6538462 29.5315385v-.8761539h.8653846v.8761539zm0 7.4215384v-5.8066666h.6923076v5.8066666z"/><path d="m56.6826923 36.3861538 2.4403846-4.69h-2.3019231v-.5497435h3.0115385v.566923l-2.3884615 4.69h2.4403846v.5497436h-3.2019231z"/><path d="m61.7019231 36.3861538 2.4230769-4.69h-2.2846154v-.5497435h2.9942308v.566923l-2.3711539 4.69h2.4403847v.5497436h-3.2019231z"/><path d="m67.5 34.204359v.4466666c0 .7902565.2076923 1.8725641 1.3153846 1.8725641.360411.0292351.7147572-.1051993.9636408-.3655928.2488835-.2603934.3654968-.6186987.3171284-.9744072h.7442308c.0633989.5400638-.1345121 1.0780381-.5336023 1.4504717-.3990902.3724337-.9522438.5353579-1.4913977.4392719-1.0038461 0-2.025-.3951282-2.025-2.1646154v-1.4258974c0-1.7179487.7096154-2.4566667 2.025-2.4566667 2.025 0 2.025 1.443077 2.025 3.1782052zm2.6307692-.5669231c0-1.2884615-.2076923-2.0615385-1.3153846-2.0615385s-1.3153846.773077-1.3153846 2.0615385z"/><path d="m73.8346154 31.9194872c.3214556-.5861712.9558365-.9345058 1.6269231-.8933334v.704359c-.4432404-.1087281-.9120572.0035999-1.2565172.3010603s-.5214073.7427854-.4742521 1.1935551v3.7279487h-.6923077v-5.8066666h.6923077z"/><path d="m80.55 36.2487179c-.3848492.5646145-1.0462319.8797265-1.7307692.8246154-.4538859.0178608-.8930146-.161825-1.2023595-.4919899-.3093448-.3301649-.4580838-.7779127-.4072559-1.2259588 0-2.0271795 2.0596154-1.8210256 3.2365384-1.9241025v-.4810257c0-.8417949-.2423076-1.374359-1.176923-1.374359-.2923243-.0405158-.5877986.0487192-.8078514.243976-.2200528.1952567-.3423813.4767455-.3344563.7696138h-.7442308c0-1.1166667.9173077-1.5633334 1.9384615-1.5633334.6057693 0 1.8346154 0 1.8346154 1.5461539v2.9205128c-.0289313.4863286-.0289313.9739278 0 1.4602564h-.726923zm0-2.2676923c-.9865385 0-2.4923077 0-2.4923077 1.34 0 .6528206.3288462 1.2025641 1.0557692 1.2025641.7978085-.0364044 1.4282012-.6847439 1.4365385-1.4774359z"/><path d="m90 36.214359c-.3116498.5217401-.8773835.8416891-1.4884615.8417948-1.7307693 0-1.7307693-1.7179487-1.7307693-3.0235897s0-3.0235897 1.7307693-3.0235897c.5508545-.0054477 1.0714213.2497181 1.401923.6871794v-3.0407692h.6923077v7.1466667c-.0310284.3830571-.0310284.7679685 0 1.1510256h-.6057692zm0-1.6320513v-1.0479487c0-.3435898 0-1.9584616-1.3153846-1.9584616s-1.2461539 1.1338462-1.2461539 2.4910257c0 2.1646154.5192308 2.4566666 1.2807693 2.4566666.7615384 0 1.2807692-.4466666 1.2807692-1.941282z"/><path d="m93.0115385 29.5315385v-.8761539h.8480769v.8761539zm0 7.4215384v-5.8066666h.6923077v5.8066666z"/><path d="m103.413462 31.1464103v5.8066666h-.60577v-.635641c-.329172.4836734-.883241.7683612-1.471154.7558974-1.19423 0-1.5403842-.8761538-1.5403842-1.8210256v-4.1058974h.6923082v3.985641c0 .1717949 0 1.3915384.986538 1.3915384.703354-.0186237 1.263712-.5900687 1.263462-1.2884615v-4.0887179z"/><path d="m105.576923 31.6961538v-.5497435h.934615v-1.2025641l.709616-.2920513v1.4946154h1.176923v.5497435h-1.176923v3.7279488c0 .7730769 0 .9620512.623077.9620512h.553846v.6012821h-.657692c-.934616 0-1.228847-.4123077-1.228847-1.1338462v-4.1574359z"/><path d="m110.371154 29.5315385v-.8761539h.848077v.8761539zm0 7.4215384v-5.8066666h.692308v5.8066666z"/><path d="m113.763462 36.9530769v-8.2976923h.692307v8.2976923z"/><path d="m117 29.5315385v-.8761539h.848077v.8761539zm0 7.4215384v-5.8066666h.709615v5.8066666z"/><path d="m119.873077 31.6961538v-.5497435h.934615v-1.2025641l.692308-.2920513v1.4946154h1.194231v.5497435h-1.194231v3.7279488c0 .7730769 0 .9620512.640385.9620512h.553846v.6012821h-.675c-.934616 0-1.211539-.4123077-1.211539-1.1338462v-4.1574359z"/><path d="m127.903846 36.2487179c-.382349.5674831-1.04554.8834567-1.730769.8246154-.453886.0178608-.893015-.161825-1.20236-.4919899-.309344-.3301649-.458083-.7779127-.407255-1.2259588 0-2.0271795 2.059615-1.8210256 3.236538-1.9241025v-.4810257c0-.8417949-.242308-1.374359-1.176923-1.374359-.292324-.0405158-.587799.0487192-.807851.243976-.220053.1952567-.342382.4767455-.334457.7696138h-.744231c0-1.1166667.934616-1.5633334 1.95577-1.5633334.588461 0 1.730769 0 1.730769 1.5461539v2.9205128c-.028931.4863286-.028931.9739278 0 1.4602564h-.726923zm-.986538-5.7379487-1.73077-1.5805128h.917308l1.315385 1.5805128zm.934615 3.4358975c-.986538 0-2.492308 0-2.492308 1.34 0 .6528205.328847 1.2025641 1.05577 1.2025641.797808-.0364044 1.428201-.684744 1.436538-1.4774359z"/><path d="m135 31.8507692c.307001-.4880718.839779-.7911829 1.419231-.8074359 1.834615 0 1.834615 1.5976923 1.834615 2.3535898v1.305641c0 1.4946154-.519231 2.3879487-2.007692 2.3879487-.512749-.0130051-.977411-.3029146-1.211539-.7558974v2.8517949h-.692307v-8.04h.657692zm0 2.714359c0 1.3228205.605769 1.9584615 1.246154 1.9584615 1.142308 0 1.315384-.9620512 1.315384-2.4738461s-.173076-2.4738462-1.315384-2.4738462c-.45 0-1.246154.5153847-1.246154 1.9584616z"/><path d="m144.121154 31.1464103v5.8066666h-.588462v-.635641c-.329172.4836734-.883241.7683612-1.471154.7558974-1.19423 0-1.540384-.8761538-1.540384-1.8210256v-4.1058974h.692308v3.985641c0 .1717949 0 1.3915384.986538 1.3915384.703354-.0186237 1.263712-.5900687 1.263462-1.2884615v-4.0887179z"/><path d="m146.526923 36.9530769c.016922-.1886011.016922-.3783219 0-.5669231v-7.7307692h.692308v3.1782051c.301438-.5278536.878095-.8406687 1.488461-.8074359 1.903846 0 1.73077 1.9756411 1.73077 3.0235898s-.103847 3.0235897-1.73077 3.0235897c-.612055.0403961-1.189924-.2835125-1.471154-.8246154v.704359zm1.990385-.4294872c1.298077 0 1.332692-1.0994871 1.332692-2.4566666s0-2.4910257-1.332692-2.4910257c-1.332693 0-1.263462 1.5117949-1.263462 2.3879488 0 .8761538 0 2.5597435 1.263462 2.5597435z"/><path d="m152.757692 36.9530769c.016923-.1886011.016923-.3783219 0-.5669231v-7.7307692h.692308v3.1438462c.292579-.5281285.864962-.842278 1.471154-.8074359 1.903846 0 1.730769 1.975641 1.730769 3.0235897s-.103846 3.0235898-1.730769 3.0235898c-.613111.0450347-1.193382-.2802206-1.471154-.8246154v.7043589zm2.007693-.4294872c1.280769 0 1.315384-1.0994871 1.315384-2.4566666s0-2.4910257-1.315384-2.4910257c-1.315385 0-1.263462 1.5117949-1.263462 2.3879488 0 .8761538 0 2.5597435 1.263462 2.5597435z"/><path d="m159.230769 36.9530769v-8.2976923h.692308v8.2976923z"/><path d="m162.398077 29.5315385v-.8761539h.848077v.8761539zm0 7.4215384v-5.8066666h.709615v5.8066666z"/><path d="m168.403846 32.8128205c0-.7215384-.242308-1.2369231-1.038461-1.2369231-.424274.0006154-.800635.2704185-.934616.67-.126401.6044369-.184453 1.2209873-.173077 1.8382052 0 1.0479487 0 2.4394871 1.090385 2.4394871s1.021154-.5841025 1.055769-1.2884615h.709616c.084164.4657956-.048765.944363-.361521 1.3015352-.312757.3571722-.771674.5545028-1.248095.5366699-1.973077 0-1.973077-1.5461538-1.973077-2.9892307-.027007-.6461131.031178-1.2929588.173077-1.9241026.259704-.7171519.964343-1.1787687 1.730769-1.1338462.46325-.0412946.920118.1297779 1.240464.4644872.320347.3347092.469056.7963643.403767 1.2534616z"/><path d="m174.409615 36.2487179c-.379781.5704139-1.044842.8872785-1.730769.8246154-.453886.0178608-.893014-.161825-1.202359-.4919899s-.458084-.7779127-.407256-1.2259588c0-2.0271795 2.059615-1.8210256 3.253846-1.9241025v-.4810257c0-.8417949-.259615-1.374359-1.194231-1.374359-.291122-.0345353-.583155.0568032-.801742.2507593s-.342637.4718153-.340566.7628305h-.640384c0-1.1166667.934615-1.5633334 1.955769-1.5633334.588462 0 1.817308 0 1.817308 1.5461539v2.9205128c-.028932.4863286-.028932.9739278 0 1.4602564h-.726923zm0-2.2676923c-1.003846 0-2.509615 0-2.509615 1.34-.039659.3024599.053218.6072836.255099.8372342.201881.2299505.493393.3629614.80067.3653299.800807-.0359802 1.436448-.6819348 1.453846-1.4774359z"/><path d="m3.96346154 44.4948718c0-1.0135897-.27692308-1.7179487-1.41923077-1.7179487s-1.47115385.3092307-1.47115385 1.2884615.62307693 1.2712821 1.575 1.9584616c.95192308.6871794 2.09423077.9448717 2.09423077 2.5597435.08057854.6087881-.12859457 1.2201572-.56601204 1.6543345-.43741747.4341774-1.05334904.641801-1.66668027.5618194-1.62692307 0-2.37115384-.8761539-2.30192307-2.5082051h.77884615c0 .9276923 0 1.8897436 1.55769231 1.8897436.40438603.0464102.80763482-.0956389 1.0920778-.3846972.28444299-.2890583.41802564-.6925511.36176835-1.0927387 0-1.1338462-.76153846-1.4602565-1.95576923-2.1989744-1.62692307-.9792308-1.73076923-1.4774359-1.73076923-2.3020513 0-1.4430769.9-2.044359 2.26730769-2.044359 1.73076923 0 2.11153847 1.0823077 2.11153847 2.2676923z"/><path d="m6.92307692 48.4289744v-1.2541026c0-1.5117949.64038462-2.4051282 2.00769231-2.4051282 1.36730767 0 2.02499997.8933333 2.02499997 2.4051282v1.2541026c0 1.4946153-.6576923 2.3879487-2.02499997 2.3879487-1.36730769 0-2.00769231-.8933334-2.00769231-2.3879487zm.6923077-.6356411c0 1.5117949.17307692 2.4738462 1.31538461 2.4738462 1.14230767 0 1.33269227-.9620513 1.33269227-2.4738462 0-1.5117948-.1730769-2.4738461-1.33269227-2.4738461-1.15961538 0-1.31538461.9620513-1.31538461 2.4738461z"/><path d="m16.0442308 46.5564103c0-.7215385-.225-1.2369231-1.0384616-1.2369231-.4225632.0057971-.7962166.2736589-.9346154.67-.1415129.6028973-.2169511 1.2192126-.225 1.8382051 0 1.0479487 0 2.4394872 1.073077 2.4394872 1.0730769 0 1.0384615-.5841026 1.0730769-1.2884616h.6923077c.0841644.4657956-.0487648.944363-.361521 1.3015353-.3127561.3571722-.7716736.5545028-1.2480944.5366699-1.9730769 0-1.9730769-1.5461539-1.9730769-2.9892308-.0270071-.646113.031178-1.2929587.1730769-1.9241026.2597038-.7171518.9643428-1.1787686 1.7307692-1.1338461.460366-.0357268.912203.1377851 1.2284746.4717518.3162715.3339668.4628222.7923222.3984485 1.2461969z"/><path d="m18.9 43.2751282v-.8761538h.8653846v.8761538zm0 7.4215385v-5.8066667h.6923077v5.8066667z"/><path d="m22.8115385 47.9479487v.4466667c0 .7902564.2076923 1.8725641 1.3153846 1.8725641.3604109.029235.7147572-.1051994.9636407-.3655928.2488836-.2603935.3654968-.6186987.3171285-.9744072h.7269231c.0620033.5365262-.1337724 1.0707637-.5285659 1.4423638-.3947936.3716-.9426476.5373052-1.4791264.4473798-1.0038462 0-2.025-.3951282-2.025-2.1646154v-1.4258974c0-1.7179488.7096154-2.4566667 2.025-2.4566667 2.0076923 0 2.0076923 1.4430769 2.0076923 3.1782051zm2.6307692-.5669231c0-1.2884615-.2076923-2.0615384-1.3153846-2.0615384s-1.3153846.7730769-1.3153846 2.0615384z"/><path d="m27.8653846 45.4397436v-.5497436h.9519231v-1.2025641l.6923077-.2920513v1.4946154h1.1769231v.5497436h-1.1769231v3.7279487c0 .7730769 0 .9620513.6403846.9620513h.5365385v.601282h-.6576923c-.9346154 0-1.2115385-.4123077-1.2115385-1.1338461v-4.1574359z"/><path d="m35.8615385 49.9923077c-.3848493.5646144-1.0462319.8797265-1.7307693.8246154-.4538858.0178608-.8930146-.161825-1.2023594-.4919899-.3093448-.330165-.4580839-.7779127-.407256-1.2259588 0-2.0271795 2.0596154-1.8210257 3.2365385-1.9241026v-.4810256c0-.8417949-.2423077-1.374359-1.1769231-1.374359-.2923242-.0405158-.5877985.0487192-.8078513.2439759-.2200529.1952567-.3423814.4767455-.3344564.7696138h-.7442307c0-1.1166666.9173077-1.5633333 1.9384615-1.5633333.5884615 0 1.7307692 0 1.7307692 1.5461538v2.9205129c-.0289313.4863285-.0289313.9739278 0 1.4602564h-.7096153zm0-2.2676923c-.9865385 0-2.4923077 0-2.4923077 1.34 0 .6528205.3288461 1.2025641 1.0557692 1.2025641.7978085-.0364044 1.4282011-.684744 1.4365385-1.4774359z"/><path d="m42.0923077 49.9579487c-.3116498.5217401-.8773835.8416891-1.4884615.8417949-1.7307693 0-1.7307693-1.7179487-1.7307693-3.0235898 0-1.305641 0-3.0235897 1.7307693-3.0235897.5538572.0024237 1.0763688.2554194 1.4192307.6871795v-3.0407692h.6923077v7.1466666c-.0310284.3830572-.0310284.7679685 0 1.1510257h-.675zm0-1.6320513v-1.0479487c0-.3435897 0-1.9584615-1.2980769-1.9584615-1.298077 0-1.2634616 1.1338461-1.2634616 2.4910256 0 2.1646154.5192308 2.4566667 1.2807693 2.4566667.7615384 0 1.2461538-.4466667 1.2461538-1.9412821z"/><path d="m49.9846154 50.8169231c-1.2634616 0-1.7307692-.6184616-1.7307692-1.8382052h.7096153c0 .7902565.173077 1.3228206 1.073077 1.3228206.2804579.0290628.5587985-.0715244.7547824-.2727646.1959838-.2012401.2878309-.480769.2490637-.7580047 0-1.5117948-2.6307692-1.1166666-2.6307692-3.0407692 0-1.0823077.7269231-1.4602564 1.7307692-1.4602564 1.0038462 0 1.5403846.8074359 1.5403846 1.7179487h-.6923077c0-.7387179-.225-1.1338461-1.0211538-1.1338461-.2322242-.0144951-.459929.0683411-.6277177.2283557s-.2602809.3825399-.2549746.6134391c0 1.4602564 2.6307692 1.0651282 2.6307692 3.0064103.0359935.4569559-.1388133.9054459-.4752724 1.2193747s-.7982349.4593939-1.2554968.3954971z"/><path d="m55.6096154 49.8205128 1.5057692-4.9305128h.6576923l-1.7307692 5.8066667h-.7961539l-1.7307692-5.8066667h.7615385z"/><path d="m59.7461538 43.2751282v-.8761538h.8307693v.8761538zm0 7.4215385v-5.8066667h.8307693v5.8066667z"/><path d="m62.775 50.1297436 2.4403846-4.69h-2.3019231v-.5497436h2.9942308v.5669231l-2.3711538 4.69h2.4403846v.5497436h-3.2019231z"/><path d="m68.7461538 45.6630769c.3187304-.5803324.9446181-.9276988 1.6096154-.8933333v.704359c-.4277497-.0707394-.8644027.0589878-1.1826576.3513609-.3182549.2923732-.4822836.7144781-.4442654 1.1432544v3.7279488h-.6923077v-5.8066667h.6923077z"/><path d="m75.4788462 49.9923077c-.3797818.5704138-1.0448429.8872785-1.7307693.8246154-.4538859.0178608-.8930146-.161825-1.2023594-.4919899-.3093448-.330165-.4580839-.7779127-.407256-1.2259588 0-2.0271795 2.0769231-1.8210257 3.2538462-1.9241026v-.4810256c0-.8417949-.2596154-1.374359-1.1769231-1.374359-.2938884-.0399356-.5907477.048948-.8133657.2435326-.2226179.1945846-.3489909.4756373-.3462497.7700571h-.7096154c0-1.1166666.9346154-1.5633333 1.9557693-1.5633333.5884615 0 1.7307692 0 1.7307692 1.5461538v2.9205129c-.0289313.4863285-.0289313.9739278 0 1.4602564h-.7096154zm0-2.2676923c-1.0038462 0-2.5096154 0-2.5096154 1.34-.0396592.3024598.0532184.6072836.2550993.8372341s.4933922.3629614.8006699.36533c.8008065-.0359802 1.4364474-.6819348 1.4538462-1.4774359z"/><path d="m84.9288462 49.9579487c-.2922574.5325134-.8604341.8576243-1.4711539.8417949-1.7307692 0-1.7307692-1.7179487-1.7307692-3.0235898 0-1.305641 0-3.0235897 1.7307692-3.0235897.5538572.0024237 1.0763688.2554194 1.4192308.6871795v-3.0407692h.6923077v7.1466666c-.0310285.3830572-.0310285.7679685 0 1.1510257h-.6576923zm0-1.6320513v-1.0479487c0-.3435897 0-1.9584615-1.3153847-1.9584615-1.3153846 0-1.2461538 1.1338461-1.2461538 2.4910256 0 2.1646154.5192308 2.4566667 1.2634615 2.4566667.7442308 0 1.2634616-.4466667 1.2634616-1.9412821z"/><path d="m88.4769231 42.3989744h.8480769l-.6923077 2.0787179h-.6057692z"/><path d="m95.0019231 44.89v5.8066667h-.6057693v-.6356411c-.329172.4836734-.8832412.7683612-1.4711538.7558975-1.2115385 0-1.5403846-.8761539-1.5403846-1.8210257v-4.1058974h.6923077v3.985641c0 .1717949 0 1.3915385.9692307 1.3915385.7062439-.0183965 1.2717165-.5872653 1.2807693-1.2884616v-4.0887179z"/><path d="m96.9230769 45.4397436v-.5497436h.9519231v-1.2025641l.6923077-.2920513v1.4946154h1.1769231v.5497436h-1.0903846v3.7279487c0 .7730769 0 .9620513.6403846.9620513h.5365384v.601282h-.6576923c-.9346154 0-1.2115384-.4123077-1.2115384-1.1338461v-4.1574359z"/><path d="m101.925 43.2751282v-.8761538h.848077v.8761538zm0 7.4215385v-5.8066667h.709615v5.8066667z"/><path d="m105.386538 50.6966667v-8.2976923h.692308v8.2976923z"/><path d="m108.640385 43.2751282v-.8761538h.848077v.8761538zm0 7.4215385v-5.8066667h.709615v5.8066667z"/><path d="m111.530769 45.4397436v-.5497436h.969231v-1.2025641l.692308-.2920513v1.4946154h1.176923v.5497436h-1.176923v3.7279487c0 .7730769.086538.9620513.640384.9620513h.536539v.601282h-.657693c-.934615 0-1.211538-.4123077-1.211538-1.1338461v-4.1574359z"/><path d="m119.509615 49.9923077c-.382349.5674831-1.04554.8834566-1.730769.8246154-.453886.0178608-.893014-.161825-1.202359-.4919899-.309345-.330165-.458084-.7779127-.407256-1.2259588 0-2.0271795 2.059615-1.8210257 3.236538-1.9241026v-.4810256c0-.8417949-.242307-1.374359-1.176923-1.374359-.292324-.0405158-.587798.0487192-.807851.2439759s-.342382.4767455-.334457.7696138h-.74423c0-1.1166666.934615-1.5633333 1.938461-1.5633333.605769 0 1.834616 0 1.834616 1.5461538v2.9205129c-.028932.4863285-.028932.9739278 0 1.4602564h-.726923zm0-2.2676923c-.986538 0-2.492307 0-2.492307 1.34 0 .6528205.328846 1.2025641 1.055769 1.2025641.797808-.0364044 1.428201-.684744 1.436538-1.4774359z"/><path d="m125.688462 49.9579487c-.31165.5217401-.877384.8416891-1.488462.8417949-1.730769 0-1.730769-1.7179487-1.730769-3.0235898 0-1.305641 0-3.0235897 1.730769-3.0235897.553857.0024237 1.076369.2554194 1.419231.6871795v-3.0407692h.692307v7.1466666c-.031028.3830572-.031028.7679685 0 1.1510257h-.675zm0-1.6320513v-1.0479487c0-.3435897 0-1.9584615-1.298077-1.9584615s-1.263462 1.1338461-1.263462 2.4910256c0 2.1646154.519231 2.4566667 1.280769 2.4566667.761539 0 1.246154-.4466667 1.246154-1.9412821z"/><path d="m133.009615 45.594359c.307001-.4880719.83978-.791183 1.419231-.8074359 1.834616 0 1.851923 1.5976923 1.851923 2.3535897v1.305641c0 1.4946154-.536538 2.3879488-2.025 2.3879488-.512749-.0130052-.97741-.3029146-1.211538-.7558975v2.8517949h-.692308v-8.04h.675zm0 2.7143589c0 1.3228206.60577 1.9584616 1.246154 1.9584616 1.142308 0 1.315385-.9620513 1.315385-2.4738462 0-1.5117948-.173077-2.4738461-1.315385-2.4738461-.45 0-1.246154.5153846-1.246154 1.9584615z"/><path d="m142.130769 44.89v5.8066667h-.605769v-.6356411c-.329172.4836734-.883241.7683612-1.471154.7558975-1.211538 0-1.540384-.8761539-1.540384-1.8210257v-4.1058974h.692307v3.985641c0 .1717949 0 1.3915385.969231 1.3915385.71014-.0093992 1.280832-.5835193 1.280769-1.2884616v-4.0887179z"/><path d="m144.536538 50.6966667c.016923-.1886011.016923-.378322 0-.5669231v-7.7307692h.692308v3.1782051c.301438-.5278536.878095-.8406688 1.488462-.8074359 1.903846 0 1.730769 1.975641 1.730769 3.0235897 0 1.0479488-.103846 3.0235898-1.730769 3.0235898-.613111.0450347-1.193382-.2802206-1.471154-.8246154v.704359zm2.007693-.4294872c1.280769 0 1.315384-1.0994872 1.315384-2.4566667s0-2.4910256-1.315384-2.4910256c-1.315385 0-1.263462 1.5117949-1.263462 2.3879487s0 2.5597436 1.263462 2.5597436z"/><path d="m150.940385 50.6966667v-8.2976923h.709615v8.2976923z"/><path d="m154.419231 43.2751282v-.8761538h.865384v.8761538zm.086538 7.4215385v-5.8066667h.692308v5.8066667z"/><path d="m160.442308 46.5564103c0-.7215385-.225-1.2369231-1.021154-1.2369231-.428931-.0014699-.811413.2677358-.951923.67-.11825.6054084-.170474 1.2216964-.155769 1.8382051 0 1.0479487 0 2.4394872 1.073076 2.4394872 1.073077 0 1.038462-.5841026 1.073077-1.2884616h.692308c0 1.5805129-1.055769 1.8382052-1.592308 1.8382052-1.990384 0-1.990384-1.5461539-1.990384-2.9892308-.027007-.646113.031178-1.2929587.173077-1.9241026.259704-.7171518.964342-1.1787686 1.730769-1.1338461.462173-.0425436.918285.1288602 1.236191.4645524.317905.3356921.462072.7981523.390732 1.2533963z"/><path d="m166.361538 49.9923077c-.384849.5646144-1.046231.8797265-1.730769.8246154-.455659.0239075-.898547-.153935-1.20929-.4855919s-.457357-.7829935-.400325-1.2323568c0-2.0271795 2.059615-1.8210257 3.236538-1.9241026v-.4810256c0-.8417949-.259615-1.374359-1.176923-1.374359-.292324-.0405158-.587798.0487192-.807851.2439759s-.342381.4767455-.334456.7696138h-.744231c0-1.1166666.917307-1.5633333 1.938461-1.5633333.588462 0 1.817308 0 1.817308 1.5461538v2.9205129c-.028931.4863285-.028931.9739278 0 1.4602564h-.709615zm0-2.2676923c-.986538 0-2.509615 0-2.509615 1.34-.039659.3024598.053219.6072836.255099.8372341.201881.2299505.493393.3629614.80067.36533.804603-.0275083 1.44507-.6783671 1.453846-1.4774359z"/><path d="m3.96346154 58.2384615c0-1.0135897-.27692308-1.7179487-1.41923077-1.7179487s-1.47115385.3092308-1.47115385 1.2884616c0 .9792307.62307693 1.271282 1.575 1.9584615.95192308.6871795 2.09423077.9448718 2.09423077 2.5597436.08057854.608788-.12859457 1.2201571-.56601204 1.6543345-.43741747.4341773-1.05334904.641801-1.66668027.5618193-1.62692307 0-2.37115384-.8761538-2.30192307-2.5082051h.77884615c0 .9276923 0 1.8897436 1.55769231 1.8897436.40438603.0464102.80763482-.0956389 1.0920778-.3846971.28444299-.2890583.41802564-.6925512.36176835-1.0927388 0-1.1338462-.76153846-1.4602564-1.95576923-2.1989744-1.62692307-.9792307-1.73076923-1.4774359-1.73076923-2.3020512 0-1.443077.9-2.044359 2.26730769-2.044359 1.73076923 0 2.11153847 1.0823077 2.11153847 2.2676923z"/><path d="m6.47307692 58.6335897h.74423077l1.31538462 5.1538462 1.24615384-5.1538462h.84807695l1.2980769 5.1538462 1.2980769-5.1538462h.7096154l-1.6096154 5.8066667h-.8826923l-1.2807692-4.9648718-1.22884617 4.9648718h-.88269231z"/><path d="m15.9403846 57.0187179v-.8761538h.8653846v.8761538zm0 7.4215385v-5.8066667h.6923077v5.8066667z"/><path d="m20.9076923 64.5605128c-1.2634615 0-1.7307692-.6184615-1.7307692-1.8382051h.6923077c0 .7902564.1903846 1.3228205 1.0903846 1.3228205s.9865384-.3779487.9865384-1.0307692c0-1.5117949-2.6307692-1.1166667-2.6307692-3.0407693 0-1.0823076.7442308-1.4602564 1.7307692-1.4602564.9865385 0 1.523077.8074359 1.523077 1.7179488h-.675c0-.738718-.225-1.1338462-1.0211539-1.1338462-.2337771-.014234-.4630764.0681304-.6335367.2275666-.1704602.1594361-.2669027.381747-.2664633.6142283 0 1.4602564 2.6307693 1.0651282 2.6307693 3.0064102.0406772.4518675-.1276156.8976154-.4574626 1.2116556-.3298469.3140403-.7855408.4623768-1.2386913.4032162z"/><path d="m26.3942308 64.5605128c-1.2634616 0-1.7307693-.6184615-1.7307693-1.8382051h.7096154c0 .7902564.1903846 1.3228205 1.0730769 1.3228205.280458.0290628.5587986-.0715244.7547825-.2727645.1959838-.2012402.2878309-.480769.2490637-.7580047 0-1.5117949-2.6307692-1.1166667-2.6307692-3.0407693 0-1.0823076.7442307-1.4602564 1.7307692-1.4602564s1.5230769.8074359 1.5230769 1.7179488h-.675c0-.738718-.2423077-1.1338462-1.0211538-1.1338462-.2337772-.014234-.4630765.0681304-.6335367.2275666-.1704603.1594361-.2669027.381747-.2664633.6142283 0 1.4602564 2.6307692 1.0651282 2.6307692 3.0064102.0350103.45354-.1375755.898621-.4699004 1.2118245-.332325.3132035-.7890622.4612354-1.2435611.4030473z"/><path d="m37.575 58.2384615c0-1.0135897-.2769231-1.7179487-1.4192308-1.7179487s-1.4711538.3092308-1.4711538 1.2884616c0 .9792307.6230769 1.271282 1.575 1.9584615s2.0942308.9448718 2.0942308 2.5597436c.0880033.6103905-.1187397 1.2262768-.558002 1.6622853-.4392623.4360084-1.0597447.64122-1.6746904.5538685-1.626923 0-2.3538461-.8761538-2.2846153-2.5082051h.7788461c0 .9276923 0 1.8897436 1.5576923 1.8897436.4043861.0464102.8076348-.0956389 1.0920778-.3846971.284443-.2890583.4180257-.6925512.3617684-1.0927388 0-1.1338462-.7442308-1.4602564-1.9557693-2.1989744-1.626923-.9792307-1.7307692-1.4774359-1.7307692-2.3020512 0-1.443077.9173077-2.044359 2.2846154-2.044359 1.7307692 0 2.1115385 1.0823077 2.1115385 2.2676923z"/><path d="m40.0673077 62.1725641v-1.2541026c0-1.5117948.6576923-2.4051282 2.025-2.4051282s2.0076923.8933334 2.0076923 2.4051282v1.2541026c0 1.4946154-.6403846 2.3879487-2.0076923 2.3879487s-2.025-.8933333-2.025-2.3879487zm.6923077-.635641c0 1.5117948.1730769 2.4738461 1.3326923 2.4738461s1.3153846-.9620513 1.3153846-2.4738461c0-1.5117949-.1730769-2.4738462-1.3153846-2.4738462s-1.3326923.9620513-1.3326923 2.4738462z"/><path d="m48.7384615 60.3c0-.7215385-.2423077-1.2369231-1.0384615-1.2369231-.4260369-.0048449-.8053022.26704-.9346154.67-.1352707.6030836-.1934213 1.2206859-.1730769 1.8382052 0 1.0479487 0 2.4394871 1.0903846 2.4394871s1.0211539-.5841025 1.0557692-1.2884615h.6923077c.0902836.4638132-.0380006.9431463-.3482781 1.3013394-.3102775.3581932-.7685012.5559413-1.2440296.5368657-1.9903846 0-1.9903846-1.5461538-1.9903846-2.9892307-.018293-.6458783.0397961-1.2916574.1730769-1.9241026.2597039-.7171519.9643428-1.1787687 1.7307693-1.1338462.4773054-.0705397.9600504.0876123 1.3012767.4263111.3412264.3386988.5005586.8178678.4294925 1.2916377z"/><path d="m51.3 57.0187179v-.8761538h.8653846v.8761538zm0 7.4215385v-5.8066667h.6923077v5.8066667z"/><path d="m55.0211538 61.6915385v.4466666c0 .7902564.225 1.8725641 1.3326924 1.8725641.3604109.0292351.7147572-.1051993.9636407-.3655928.2488835-.2603934.3654968-.6186987.3171285-.9744072h.7269231c.0620033.5365262-.1337724 1.0707638-.5285659 1.4423638-.3947936.3716001-.9426477.5373052-1.4791264.4473798-1.0211539 0-2.025-.3951282-2.025-2.1646154v-1.4258974c0-1.7179487.7096153-2.4566667 2.025-2.4566667 2.0076923 0 2.0076923 1.443077 2.0076923 3.1782052zm2.648077-.5669231c0-1.2884616-.2076923-2.0615385-1.3153846-2.0615385-1.1076924 0-1.3326924.7730769-1.3326924 2.0615385z"/><path d="m59.625 59.1833333v-.5497436h.9519231v-1.2025641l.6923077-.2920512v1.4946153h1.176923v.5497436h-1.176923v3.7279488c0 .7730769 0 .9620512.6403846.9620512h.5365384v.6012821h-.6576923c-.9346153 0-1.2115384-.4123077-1.2115384-1.1338462v-4.1574359z"/><path d="m65.6307692 64.4574359-1.851923-5.8238462h.7442307l1.4365385 4.758718 1.3846154-4.758718h.6923077l-2.423077 8.0056411h-.6923077z"/><path d="m73.8692308 59.1833333h-.9346154v-.5497436h.9346154v-.9792307c-.06777-.419295.066089-.8459053.3617346-1.1528532.2956457-.3069479.7189927-.458845 1.1440346-.4104802h.3807692v.6012821h-.5192307c-.675 0-.675.601282-.675.9276923v.9964103h1.1942307v.5497435h-1.1942307v5.2569231h-.6923077z"/><path d="m77.2442308 62.1725641v-1.2541026c0-1.5117948.6576923-2.4051282 2.025-2.4051282s2.0076923.8933334 2.0076923 2.4051282v1.2541026c0 1.4946154-.6403846 2.3879487-2.0076923 2.3879487s-2.025-.8933333-2.025-2.3879487zm.6923077-.635641c0 1.5117948.1730769 2.4738461 1.3326923 2.4738461s1.3153846-.9620513 1.3153846-2.4738461c0-1.5117949-.1730769-2.4738462-1.3153846-2.4738462s-1.3846154.9620513-1.3846154 2.4738462z"/><path d="m84.0461538 59.4066667c.3187304-.5803324.9446181-.9276988 1.6096154-.8933334v.704359c-.4277497-.0707394-.8644027.0589878-1.1826576.351361-.3182549.2923731-.4822836.714478-.4442654 1.1432544v3.7279487h-.6923077v-5.8066667h.6923077z"/><path d="m90.5538462 59.1833333v-.5497436h.9346153v-1.2025641l.6923077-.2920512v1.4946153h1.1769231v.5497436h-1.1769231v3.7279488c0 .7730769 0 .9620512.6403846.9620512h.5365385v.6012821h-.6576923c-.9346154 0-1.2115385-.4123077-1.2115385-1.1338462v-4.1574359z"/><path d="m95.2788462 64.4402564v-8.2976923h.6923076v3.1953846c.3029033-.4946486.8364035-.8046281 1.4192308-.8246154 1.4538462 0 1.6096154 1.0823077 1.6096154 1.8382052v4.0887179h-.7096154v-4.054359c0-.6871795-.2596154-1.3228205-1.0730769-1.3228205s-1.2634615.4294872-1.2634615 1.7179487v3.6420513z"/><path d="m101.959615 61.6915385v.4466666c0 .7902564.225 1.8725641 1.315385 1.8725641.361568.0282018.716849-.1058633.968228-.3653607s.372413-.6171305.329849-.9746393h.726923c.063399.5400638-.134512 1.0780381-.533602 1.4504717s-.952244.5353579-1.491398.4392719c-1.003846 0-2.007692-.3951282-2.007692-2.1646154v-1.4258974c0-1.7179487.709615-2.4566667 2.007692-2.4566667 2.025 0 2.025 1.443077 2.025 3.1782052zm2.648077-.5669231c0-1.2884616-.207692-2.0615385-1.332692-2.0615385s-1.315385.7730769-1.315385 2.0615385z"/><path d="m111.063462 60.2828205c0-2.2333333 0-4.3120513 2.526923-4.3120513 2.025 0 2.059615 1.7179487 2.059615 2.4051282h-.744231c0-.9105128-.259615-1.7179487-1.315384-1.7179487-1.73077 0-1.73077 1.4946154-1.73077 3.6935898 0 2.1989743 0 3.7107692 1.73077 3.7107692.951923 0 1.315384-.8589744 1.332692-1.9241026h.778846c0 .5841026-.138461 2.5425641-2.111538 2.5425641-2.509616-.0687179-2.526923-2.1474359-2.526923-4.3979487z"/><path d="m117.692308 62.1725641v-1.2541026c0-1.5117948.640384-2.4051282 2.007692-2.4051282s2.025.8933334 2.025 2.4051282v1.2541026c0 1.4946154-.657692 2.3879487-2.025 2.3879487s-2.007692-.8933333-2.007692-2.3879487zm.692307-.635641c0 1.5117948.173077 2.4738461 1.315385 2.4738461s1.332692-.9620513 1.332692-2.4738461c0-1.5117949-.173077-2.4738462-1.332692-2.4738462s-1.263462.9620513-1.263462 2.4738462z"/><path d="m124.701923 64.4402564h-.692308v-5.8238461h.60577v.7215384c.276488-.5039983.80648-.8196381 1.384615-.8246154.59688-.0179206 1.136434.3507099 1.332692.9105129.257739-.5566822.819317-.9126242 1.436539-.9105129.42266-.0111646.830159.1566165 1.120761.4614547.290601.3048383.43688.7179648.402316 1.1362376v4.3292308h-.692308v-4.1574359c0-.5669231-.225-1.2197436-.917308-1.2197436-.692307 0-1.211538.8761539-1.211538 1.7179487v3.7279488h-.692308v-4.2261539c0-.5669231-.225-1.2197436-.9-1.2197436s-1.228846.8761539-1.228846 1.7179487z"/><path d="m133.269231 64.4402564h-.692308v-5.8238461h.623077v.7215384c.279469-.509383.817578-.8259005 1.401923-.8246154.590569-.0103659 1.121082.3568564 1.315385.9105129.260312-.5623999.830377-.9194192 1.453846-.9105129.421372-.0117179.827565.1565425 1.115542.4620991.287976.3055567.430067.7190509.390227 1.1355932v4.3292308h-.692308v-4.1574359c0-.5669231-.225-1.2197436-.9-1.2197436s-1.211538.8761539-1.211538 1.7179487v3.7279488h-.709615v-4.2261539c0-.5669231-.207693-1.2197436-.9-1.2197436-.692308 0-1.211539.8761539-1.211539 1.7179487z"/><path d="m141.075 62.1725641v-1.2541026c0-1.5117948.657692-2.4051282 2.025-2.4051282s2.007692.8933334 2.007692 2.4051282v1.2541026c0 1.4946154-.640384 2.3879487-2.007692 2.3879487s-2.025-.8933333-2.025-2.3879487zm.709615-.635641c0 1.5117948.173077 2.4738461 1.315385 2.4738461s1.315385-.9620513 1.315385-2.4738461c0-1.5117949-.173077-2.4738462-1.315385-2.4738462s-1.315385.9620513-1.315385 2.4738462z"/><path d="m147.825 64.4402564h-.709615v-5.8066667h.692307v.704359c.299553-.4897022.825326-.7989631 1.401923-.8246154 1.453847 0 1.609616 1.0823077 1.609616 1.8382052v4.0887179h-.692308v-4.054359c0-.6871795-.276923-1.3228205-1.090385-1.3228205-.813461 0-1.263461.4294872-1.263461 1.7179487z"/><path d="m160.961538 60.7294872h-1.730769v-.6012821h2.440385v4.1574359c-.74626.2256122-1.521819.3413738-2.301923.3435898-2.734616 0-2.526923-2.714359-2.526923-4.3292308s-.207693-4.3120513 2.526923-4.3120513c1.592307 0 2.423077.6871795 2.388461 2.3020513h-.796154c0-1.0994872-.484615-1.7179487-1.730769-1.7179487-1.730769 0-1.730769 1.5976923-1.730769 3.6935897 0 2.0958975 0 3.7107693 1.730769 3.7107693.530703.0088978 1.058584-.0784308 1.557693-.2576924z"/><path d="m163.644231 62.1725641v-1.2541026c0-1.5117948.657692-2.4051282 2.025-2.4051282 1.367307 0 2.007692.8933334 2.007692 2.4051282v1.2541026c0 1.4946154-.640385 2.3879487-2.007692 2.3879487-1.367308 0-2.025-.8933333-2.025-2.3879487zm.692307-.635641c0 1.5117948.173077 2.4738461 1.332693 2.4738461 1.159615 0 1.315384-.9620513 1.315384-2.4738461 0-1.5117949-.173077-2.4738462-1.315384-2.4738462-1.142308 0-1.246154.9620513-1.246154 2.4738462z"/><path d="m169.321154 62.1725641v-1.2541026c0-1.5117948.640384-2.4051282 2.007692-2.4051282s2.025.8933334 2.025 2.4051282v1.2541026c0 1.4946154-.657692 2.3879487-2.025 2.3879487s-2.007692-.8933333-2.007692-2.3879487zm.692308-.635641c0 1.5117948.173076 2.4738461 1.315384 2.4738461s1.332692-.9620513 1.332692-2.4738461c0-1.5117949-.173076-2.4738462-1.332692-2.4738462-1.159615 0-1.315384.9620513-1.315384 2.4738462z"/><path d="m178.442308 63.7015385c-.31165.52174-.877384.841689-1.488462.8417948-1.730769 0-1.730769-1.7179487-1.730769-3.0235897s0-3.0235898 1.730769-3.0235898c.550855-.0054476 1.071421.2497182 1.401923.6871795v-3.0407692h.692308v7.1466667c-.031029.3830571-.031029.7679685 0 1.1510256h-.675zm0-1.6320513v-1.0479487c0-.3435898 0-1.9584616-1.315385-1.9584616s-1.246154 1.1338462-1.246154 2.4910257c0 2.1646153.519231 2.4566666 1.280769 2.4566666.761539 0 1.246154-.4466666 1.246154-1.941282z"/></g><path d="m39.657228 2.08232558c-.000029.84378194-.5126738 1.60413949-1.2981407 1.92540952-.785467.32127003-1.6884709.13993811-2.2866247-.45917637s-.7732037-1.49756776-.4432687-2.27510139 1.0996274-1.28043074 1.9490475-1.27345734c.5543965-.00001912 1.0858374.21991576 1.4762249.61093023s.6073817.9207168.6027617 1.47139535"/><path d="m52.8934426 4.57767442c-.0003538 1.14323781-.9285354 2.07240298-2.0794145 2.08161782-1.150879.00921484-2.0940188-.90496705-2.1129255-2.04805065-.0189066-1.1430836.8934913-2.08754796 2.0440539-2.11589275 1.1577608 0 2.0963115.93228892 2.0963115 2.08232558"/><path d="m64.2932191 12.0465116c0 1.1500367-.9385506 2.0823256-2.0963115 2.0823256s-2.0963115-.9322889-2.0963115-2.0823256c0-1.1500366.9385506-2.08232555 2.0963115-2.08232555s2.0963115.93228895 2.0963115 2.08232555"/><path d="m72.0720939 23.335814c0 1.1500366-.9385506 2.0823255-2.0963115 2.0823255-1.1577608 0-2.0963115-.9322889-2.0963115-2.0823255 0-1.1500367.9385507-2.0823256 2.0963115-2.0823256 1.1577609 0 2.0963115.9322889 2.0963115 2.0823256"/><path d="m74.7228018 37.0172093c-.000029.8437819-.5126738 1.6041395-1.2981407 1.9254095-.785467.3212701-1.6884709.1399381-2.2866247-.4591763-.5981538-.5991145-.7732037-1.4975678-.4432687-2.2751014.329935-.7775337 1.0996273-1.2804308 1.9490475-1.2734574.5543964-.0000191 1.0858374.2199158 1.4762249.6109303.3903874.3910144.6073817.9207167.6027617 1.4713953"/><path d="m72.0720939 50.32c-.0285352 1.1428864-.979343 2.0491971-2.1301041 2.0304166s-2.0710831-.9556281-2.0618063-2.0988288c.0092767-1.1432007.9446826-2.0651899 2.0955989-2.0655413 1.1510287 0 2.0867989.9218059 2.0963115 2.0651163"/><path d="m64.6050671 61.5748837c.0052381.5704848-.2253897 1.1181201-.6380062 1.5149723-.4126166.3968522-.971081.6081611-1.5449298.5845626-1.0795141-.0977862-1.9059346-.9969595-1.9059346-2.0737209 0-1.0767615.8264205-1.9759347 1.9059346-2.073721.5648626-.0232745 1.115243.1810667 1.5262587.5666584.4110156.3855916.6478184.919741.6566773 1.4812486"/><path d="m53.1013413 69.0781395c.0070044.8453138-.5011601 1.6109513-1.2860533 1.9376611-.7848932.3267099-1.6907411.1496516-2.2925032-.4480958-.6017621-.5977473-.7800096-1.4975518-.4511054-2.2772084.3289041-.7796566 1.099684-1.2844308 1.9506753-1.2774731 1.1442687.0093554 2.0695683.9284817 2.0789866 2.0651162"/><path d="m39.6225782 71.7972093c.0070044.8453138-.5011601 1.6109512-1.2860532 1.9376611-.7848932.3267098-1.6907412.1496516-2.2925033-.4480958-.6017621-.5977473-.7800096-1.4975518-.4511054-2.2772084.3289042-.7796567 1.0996841-1.2844308 1.9506754-1.2774732 1.1442686.0093555 2.0695682.9284818 2.0789865 2.0651163"/><path d="m26.2997392 69.1469767c.0211376.8466044-.4759927 1.6215966-1.2574192 1.9602307s-1.6914774.1734492-2.3018422-.4178114c-.6103647-.5912606-.7994496-1.4908089-.4782628-2.2752773.3211868-.7844685 1.0886601-1.2975793 1.9412127-1.2978396 1.1510287 0 2.0867989.9218059 2.0963115 2.0651162"/><path d="m14.8999627 61.6609302c0 1.1500367-.9385506 2.0823256-2.0963114 2.0823256-1.1577609 0-2.0963115-.9322889-2.0963115-2.0823256 0-1.1500366.9385506-2.0823255 2.0963115-2.0823255 1.1577608 0 2.0963114.9322889 2.0963114 2.0823255"/><path d="m24.0128539 60.2325581c0 1.1500367-.9385506 2.0823256-2.0963114 2.0823256-1.1577609 0-2.0963115-.9322889-2.0963115-2.0823256 0-1.1500366.9385506-2.0823255 2.0963115-2.0823255 1.1577608 0 2.0963114.9322889 2.0963114 2.0823255"/><path d="m24.0128539 52.8325581c0 1.2735944-1.0393866 2.3060466-2.321535 2.3060466s-2.321535-1.0324522-2.321535-2.3060466c0-1.2735943 1.0393866-2.3060465 2.321535-2.3060465s2.321535 1.0324522 2.321535 2.3060465"/><path d="m29.7127422 51.7311628c0 1.1500367-.9385506 2.0823256-2.0963115 2.0823256s-2.0963115-.9322889-2.0963115-2.0823256.9385506-2.0823256 2.0963115-2.0823256 2.0963115.9322889 2.0963115 2.0823256"/><path d="m31.0467586 57.5306977c.0070202.8437531-.4992546 1.6083103-1.2820105 1.9360441s-1.6872437.1538518-2.2903821-.4403114c-.6031384-.5941631-.7856882-1.4911424-.4622604-2.271369s1.0888923-1.28948 1.9383415-1.28948c1.1510287 0 2.0867988.9218059 2.0963115 2.0651163"/><path d="m34.2172131 64.38c-.000029.8437819-.5126738 1.6041395-1.2981407 1.9254095-.785467.3212701-1.6884709.1399381-2.2866247-.4591764-.5981538-.5991144-.7732037-1.4975677-.4432687-2.2751013.329935-.7775337 1.0996274-1.2804308 1.9490475-1.2734574.5543965-.0000191 1.0858374.2199158 1.4762249.6109303.3903875.3910144.6073817.9207167.6027617 1.4713953"/><path d="m36.0709762 54.364186c.0070044.8453138-.5011601 1.6109513-1.2860533 1.9376611-.7848932.3267099-1.6907412.1496516-2.2925033-.4480957-.6017621-.5977474-.7800095-1.4975519-.4511054-2.2772085.3289042-.7796566 1.0996841-1.2844308 1.9506754-1.2774731 1.1442687.0093555 2.0695682.9284817 2.0789866 2.0651162"/><path d="m39.7092027 59.372093c0 1.1500367-.9385506 2.0823256-2.0963115 2.0823256s-2.0963115-.9322889-2.0963115-2.0823256c0-1.1500366.9385506-2.0823256 2.0963115-2.0823256s2.0963115.932289 2.0963115 2.0823256"/><path d="m45.0279434 64.4488372c.0070044.8453138-.5011601 1.6109512-1.2860533 1.9376611-.7848932.3267098-1.6907412.1496516-2.2925033-.4480958-.6017621-.5977473-.7800095-1.4975518-.4511054-2.2772084.3289042-.7796566 1.0996841-1.2844308 1.9506754-1.2774732 1.1442687.0093555 2.0695682.9284818 2.0789866 2.0651163"/><path d="m43.1048808 54.5190698c0 .8437819-.5126738 1.6041395-1.2981408 1.9254095-.7854669.32127-1.6884708.1399381-2.2866246-.4591764s-.7732037-1.4975677-.4432687-2.2751014c.329935-.7775336 1.0996273-1.2804307 1.9490475-1.2734573 1.1509894.0094492 2.0789866.9389762 2.0789866 2.0823256"/><path d="m48.3023472 57.5995349c.0070203.8437531-.4992545 1.6083103-1.2820104 1.9360441-.782756.3277338-1.6872437.1538518-2.2903821-.4403114-.6031384-.5941631-.7856883-1.4911424-.4622604-2.271369.3234278-.7802266 1.0888923-1.28948 1.9383415-1.28948 1.1510286 0 2.0867988.9218059 2.0963114 2.0651163"/><path d="m55.2496274 60.2325581c.0070044.8453138-.5011601 1.6109513-1.2860532 1.9376611-.7848932.3267099-1.6907412.1496516-2.2925033-.4480958-.6017621-.5977473-.7800096-1.4975518-.4511054-2.2772084s1.099684-1.2844308 1.9506753-1.2774731c1.1442687.0093555 2.0695683.9284817 2.0789866 2.0651162"/><path d="m49.6190387 51.9376744c.0070044.8453138-.5011601 1.6109513-1.2860532 1.9376611-.7848932.3267098-1.6907412.1496516-2.2925033-.4480958-.6017621-.5977473-.7800096-1.4975518-.4511054-2.2772084s1.0996841-1.2844308 1.9506754-1.2774732c1.1442686.0093555 2.0695682.9284818 2.0789865 2.0651163"/><path d="m55.630775 52.7465116c.0070202.8437532-.4992546 1.6083104-1.2820105 1.9360441-.7827559.3277338-1.6872437.1538518-2.2903821-.4403113s-.7856882-1.4911425-.4622604-2.2713691 1.0888923-1.28948 1.9383415-1.28948c1.1510287 0 2.0867988.921806 2.0963115 2.0651163"/><path d="m62.9592027 52.6088372c0 1.1500367-.9385506 2.0823256-2.0963115 2.0823256s-2.0963115-.9322889-2.0963115-2.0823256.9385506-2.0823256 2.0963115-2.0823256c.5559764 0 1.0891814.2193873 1.4823161.6098991.3931346.3905118.6139954.9201594.6139954 1.4724265"/><path d="m54.6605812 47.015814c0 .8437819-.5126737 1.6041394-1.2981407 1.9254095-.785467.32127-1.6884709.1399381-2.2866247-.4591764s-.7732037-1.4975678-.4432687-2.2751014 1.0996274-1.2804307 1.9490475-1.2734573c1.1509894.0094491 2.0789866.9389762 2.0789866 2.0823256"/><path d="m60.5163934 45.535814c.0070203.8437531-.4992545 1.6083103-1.2820104 1.9360441-.782756.3277337-1.6872437.1538517-2.2903821-.4403114s-.7856883-1.4911425-.4622604-2.2713691c.3234278-.7802265 1.0888923-1.2894799 1.9383415-1.2894799 1.1510286 0 2.0867988.9218059 2.0963114 2.0651163"/><path d="m67.3250745 42.524186c.0070203.8437532-.4992546 1.6083104-1.2820105 1.9360442-.7827559.3277337-1.6872436.1538517-2.290382-.4403114s-.7856883-1.4911425-.4622604-2.2713691c.3234278-.7802266 1.0888923-1.2894799 1.9383414-1.2894799 1.1510287 0 2.0867989.9218059 2.0963115 2.0651162"/><path d="m62.2142325 36.9311628c.0070044.8453138-.5011601 1.6109512-1.2860533 1.9376611-.7848932.3267098-1.6907411.1496515-2.2925032-.4480958s-.7800096-1.4975518-.4511054-2.2772084c.3289042-.7796567 1.099684-1.2844309 1.9506753-1.2774732 1.1442687.0093555 2.0695683.9284818 2.0789866 2.0651163"/><path d="m57.328614 33.5581395c0 1.1500367-.9385506 2.0823256-2.0963115 2.0823256-1.1577608 0-2.0963114-.9322889-2.0963114-2.0823256 0-1.1500366.9385506-2.0823255 2.0963114-2.0823255 1.1577609 0 2.0963115.9322889 2.0963115 2.0823255"/><path d="m57.3979136 40.3902326c.0070044.8453137-.5011601 1.6109512-1.2860533 1.937661-.7848932.3267099-1.6907412.1496516-2.2925033-.4480957-.6017621-.5977474-.7800095-1.4975518-.4511054-2.2772085.3289042-.7796566 1.0996841-1.2844308 1.9506754-1.2774731 1.1442687.0093555 2.0695682.9284818 2.0789866 2.0651163"/><path d="m67.3250745 31.5618605c.0070203.8437531-.4992546 1.6083103-1.2820105 1.9360441-.7827559.3277337-1.6872436.1538517-2.290382-.4403114s-.7856883-1.4911425-.4622604-2.271369c.3234278-.7802266 1.0888923-1.28948 1.9383414-1.28948 1.1510287 0 2.0867989.9218059 2.0963115 2.0651163"/><path d="m60.5163934 28.2576744c0 1.1500367-.9385506 2.0823256-2.0963114 2.0823256-1.1577609 0-2.0963115-.9322889-2.0963115-2.0823256 0-1.1500366.9385506-2.0823256 2.0963115-2.0823256.5559763 0 1.0891814.2193873 1.482316.6098991.3931347.3905118.6139954.9201594.6139954 1.4724265"/><path d="m54.7298808 27.0013953c.0070044.8453138-.5011601 1.6109513-1.2860533 1.9376611-.7848932.3267099-1.6907412.1496516-2.2925033-.4480957-.6017621-.5977474-.7800095-1.4975519-.4511053-2.2772085.3289041-.7796566 1.099684-1.2844308 1.9506753-1.2774731 1.1442687.0093555 2.0695682.9284817 2.0789866 2.0651162"/><path d="m49.5497392 22.0795349c0 .8437819-.5126738 1.6041395-1.2981407 1.9254095-.785467.32127-1.6884709.1399381-2.2866247-.4591764-.5981538-.5991144-.7732037-1.4975677-.4432687-2.2751014.329935-.7775336 1.0996273-1.2804307 1.9490475-1.2734573 1.1509894.0094492 2.0789866.9389762 2.0789866 2.0823256"/><path d="m55.3362519 20.9781395c.0140662.845214-.4876688 1.6150049-1.2697877 1.948182-.7821189.333177-1.6894034.1636183-2.2961498-.4291182-.6067464-.5927364-.7925407-1.4910169-.4702068-2.2733624.3223338-.7823456 1.0888257-1.2934929 1.9398328-1.2936083.5559764 0 1.0891814.2193872 1.482316.609899.3931347.3905118.6139955.9201595.6139955 1.4724265"/><path d="m63.0978018 21.5632558c.0070044.8453138-.5011601 1.6109512-1.2860533 1.9376611-.7848932.3267098-1.6907411.1496516-2.2925032-.4480958-.6017621-.5977473-.7800096-1.4975518-.4511054-2.2772084s1.099684-1.2844308 1.9506753-1.2774732c1.1442687.0093555 2.0695683.9284818 2.0789866 2.0651163"/><path d="m55.2496274 13.7674419c0 .8437819-.5126737 1.6041394-1.2981407 1.9254095-.785467.32127-1.6884709.1399381-2.2866247-.4591764s-.7732037-1.4975678-.4432687-2.2751014 1.0996274-1.2804307 1.9490475-1.2734573c1.1509894.0094491 2.0789866.9389762 2.0789866 2.0823256"/><path d="m48.2157228 16.3488372c-.000029.843782-.5126738 1.6041395-1.2981407 1.9254095-.785467.3212701-1.6884709.1399381-2.2866247-.4591763-.5981538-.5991145-.7732037-1.4975678-.4432687-2.2751014.329935-.7775337 1.0996273-1.2804308 1.9490475-1.2734574.5543964-.0000191 1.0858374.2199158 1.4762249.6109303.3903874.3910144.6073817.9207168.6027617 1.4713953"/><path d="m43.1915052 19.4293023c.0070203.8437532-.4992546 1.6083104-1.2820105 1.9360441-.7827559.3277338-1.6872436.1538518-2.290382-.4403113s-.7856883-1.4911425-.4622604-2.2713691c.3234278-.7802266 1.0888923-1.28948 1.9383414-1.28948 1.1510287 0 2.0867989.921806 2.0963115 2.0651163"/><path d="m36.1576006 19.4981395c.0070202.8437532-.4992546 1.6083104-1.2820105 1.9360441-.7827559.3277338-1.6872436.1538518-2.2903821-.4403113-.6031384-.5941631-.7856882-1.4911425-.4622604-2.2713691.3234279-.7802266 1.0888923-1.2894799 1.9383415-1.2894799 1.1510287 0 2.0867989.9218059 2.0963115 2.0651162"/><path d="m39.6225782 14.6451163c.0070044.8453137-.5011601 1.6109512-1.2860532 1.9376611-.7848932.3267098-1.6907412.1496515-2.2925033-.4480958-.6017621-.5977474-.7800096-1.4975518-.4511054-2.2772085.3289042-.7796566 1.0996841-1.2844308 1.9506754-1.2774731 1.1442686.0093555 2.0695682.9284818 2.0789865 2.0651163"/><path d="m45.1145678 9.6544186c0 1.1500367-.9385506 2.0823256-2.0963115 2.0823256-1.1577608 0-2.0963114-.9322889-2.0963114-2.0823256 0-1.15003666.9385506-2.08232558 2.0963114-2.08232558.5559764 0 1.0891814.21938725 1.4823161.60989905.3931347.39051179.6139954.92015945.6139954 1.47242653"/><path d="m34.078614 9.6544186c0 .8422221-.5107499 1.6015136-1.2940878 1.923818s-1.6849988.1441495-2.2845397-.4513915c-.5995409-.5955409-.7788924-1.49118626-.4544232-2.269298s1.0888604-1.28545408 1.9367392-1.28545408c.5559764 0 1.0891814.21938725 1.4823161.60989905.3931347.39051179.6139954.92015945.6139954 1.47242653"/><path d="m31.1160581 16.3488372c0 1.1500367-.9385506 2.0823256-2.0963115 2.0823256-1.1577608 0-2.0963114-.9322889-2.0963114-2.0823256s.9385506-2.0823256 2.0963114-2.0823256c.5559764 0 1.0891814.2193873 1.4823161.6098991s.6139954.9201594.6139954 1.4724265"/><path d="m29.7127422 22.2172093c.0070202.8437531-.4992546 1.6083103-1.2820105 1.9360441s-1.6872437.1538518-2.2903821-.4403113-.7856882-1.4911425-.4622604-2.2713691 1.0888923-1.28948 1.9383415-1.28948c1.1510287 0 2.0867988.921806 2.0963115 2.0651163"/><path d="m24.0128539 13.7674419c.0721558.7859724-.3092201 1.544917-.9849503 1.9600686-.6757303.4151515-1.529667.4151515-2.2053973 0-.6757303-.4151516-1.0571062-1.1740962-.9849504-1.9600686.098443-1.0723121 1.0036555-1.893219 2.087649-1.893219s1.989206.8209069 2.087649 1.893219"/><path d="m26.2997392 4.80139535c-.000029.84378194-.5126738 1.60413948-1.2981407 1.92540952-.785467.32127003-1.6884709.1399381-2.2866247-.45917637-.5981538-.59911448-.7732037-1.49756776-.4432687-2.27510139s1.0996273-1.28043075 1.9490475-1.27345734c.5543964-.00001912 1.0858374.21991576 1.4762249.61093023.3903874.39101447.6073817.9207168.6027617 1.47139535"/><path d="m14.9692623 12.3734884c.014064.8467753-.489555 1.617661-1.2738192 1.9498251-.7842643.3321641-1.6929267.1594303-2.298308-.4369009-.6053814-.5963313-.786873-1.4974543-.4590524-2.2792385s1.0996425-1.2884766 1.952193-1.2815927c.5543964-.0000191 1.0858374.2199158 1.4762249.6109302.3903874.3910145.6073817.9207168.6027617 1.4713954"/><path d="m23.7876304 21.115814c.0070202.8437531-.4992546 1.6083103-1.2820105 1.9360441-.7827559.3277337-1.6872436.1538517-2.290382-.4403114-.6031385-.5941631-.7856883-1.4911425-.4622605-2.2713691.3234279-.7802265 1.0888923-1.2894799 1.9383415-1.2894799 1.1510287 0 2.0867989.9218059 2.0963115 2.0651163"/><path d="m24.7578241 27.2939535c.0070044.8453138-.5011601 1.6109512-1.2860532 1.9376611-.7848932.3267098-1.6907412.1496515-2.2925033-.4480958s-.7800096-1.4975518-.4511054-2.2772084c.3289042-.7796567 1.0996841-1.2844309 1.9506754-1.2774732 1.1442686.0093555 2.0695682.9284818 2.0789865 2.0651163"/><path d="m16.3032787 21.5632558c.0070044.8453138-.5011601 1.6109512-1.2860533 1.9376611-.7848932.3267098-1.6907411.1496516-2.2925032-.4480958-.6017621-.5977473-.7800096-1.4975518-.4511054-2.2772084s1.099684-1.2844308 1.9506753-1.2774732c1.1442687.0093555 2.0695683.9284818 2.0789866 2.0651163"/><path d="m7.43293592 23.6972093c0 .8437819-.51267377 1.6041395-1.29814074 1.9254095-.78546696.3212701-1.68847087.1399381-2.28662467-.4591763-.5981538-.5991145-.77320368-1.4975678-.44326869-2.2751014.32993498-.7775337 1.09962733-1.2804308 1.94904751-1.2734574 1.15098937.0094492 2.07898659.9389762 2.07898659 2.0823256"/><path d="m18.9020119 28.4125581c0 .8422221-.5107499 1.6015136-1.2940878 1.923818-.7833379.3223045-1.6849988.1441495-2.2845397-.4513914-.5995409-.595541-.7788924-1.4911863-.4544232-2.2692981.3244692-.7781117 1.0888604-1.285454 1.9367392-1.285454.5559764 0 1.0891814.2193872 1.4823161.609899s.6139954.9201595.6139954 1.4724265"/><path d="m22.0897914 33.5581395c0 1.1500367-.9385507 2.0823256-2.0963115 2.0823256-1.1577609 0-2.0963115-.9322889-2.0963115-2.0823256 0-1.1500366.9385506-2.0823255 2.0963115-2.0823255.5559764 0 1.0891814.2193872 1.482316.609899.3931347.3905118.6139955.9201595.6139955 1.4724265"/><path d="m12.23193 31.5618605c.0070202.8437531-.4992546 1.6083103-1.2820105 1.9360441-.782756.3277337-1.68724368.1538517-2.29038209-.4403114-.60313842-.5941631-.78568826-1.4911425-.46226042-2.271369.32342784-.7802266 1.0888923-1.28948 1.93834151-1.28948 1.1510287 0 2.0867988.9218059 2.0963115 2.0651163"/><path d="m4.67827869 37.0860465c0 1.1500367-.93855062 2.0823256-2.09631148 2.0823256s-2.09631147-.9322889-2.09631147-2.0823256.93855061-2.0823256 2.09631147-2.0823256 2.09631148.9322889 2.09631148 2.0823256"/><path d="m12.23193 42.3865116c0 1.1500367-.9385507 2.0823256-2.0963115 2.0823256-1.15776088 0-2.0963115-.9322889-2.0963115-2.0823256 0-1.1500366.93855062-2.0823256 2.0963115-2.0823256 1.1577608 0 2.0963115.932289 2.0963115 2.0823256"/><path d="m7.27701192 50.32c-.02853517 1.1428864-.979343 2.0491971-2.1301041 2.0304166-1.15076109-.0187805-2.07108307-.9556281-2.06180633-2.0988288.00927673-1.1432007.94468261-2.0651899 2.09559896-2.0655413 1.15102868 0 2.08679884.9218059 2.09631147 2.0651163"/><path d="m16.4592027 52.4539535c0 .5522671-.2208608 1.0819147-.6139954 1.4724265-.3931347.3905118-.9263397.6098991-1.4823161.6098991-1.0795142-.0977863-1.9059347-.9969595-1.9059347-2.073721 0-1.0767614.8264205-1.9759347 1.9059347-2.0737209 1.1510287 0 2.0867988.9218059 2.0963115 2.0651163"/><path d="m18.9713115 45.535814c.0070202.8437531-.4992546 1.6083103-1.2820105 1.9360441-.7827559.3277337-1.6872437.1538517-2.2903821-.4403114s-.7856882-1.4911425-.4622604-2.2713691c.3234278-.7802265 1.0888923-1.2894799 1.9383415-1.2894799 1.1510287 0 2.0867988.9218059 2.0963115 2.0651163"/><path d="m17.342772 37.0860465c0 .8422221-.5107499 1.6015136-1.2940878 1.923818s-1.6849989.1441495-2.2845398-.4513914c-.5995408-.595541-.7788923-1.4911863-.4544232-2.2692981.3244692-.7781117 1.0888605-1.2854541 1.9367393-1.2854541.5559764 0 1.0891814.2193873 1.4823161.6098991.3931346.3905118.6139954.9201594.6139954 1.4724265"/><path d="m22.0031669 40.4762791c-.000029.8437819-.5126738 1.6041395-1.2981407 1.9254095-.785467.32127-1.6884709.1399381-2.2866247-.4591764s-.7732037-1.4975677-.4432687-2.2751014c.329935-.7775336 1.0996274-1.2804307 1.9490475-1.2734573.5543965-.0000191 1.0858374.2199158 1.4762249.6109302.3903875.3910145.6073817.9207168.6027617 1.4713954"/><path d="m24.7578241 46.8609302c-.0145254.8451027-.5418863 1.5976462-1.3346925 1.9046053-.7928062.306959-1.6937589.1074307-2.2802128-.5049845-.586454-.6124152-.742052-1.5162093-.3938017-2.2874041.3482502-.7711947 1.1312533-1.256779 1.9816951-1.2289609 1.1441889.0374268 2.0465546.9797386 2.0270119 2.1167442"/></g></svg>