<svg height="72" viewBox="0 0 214 72" width="214" xmlns="http://www.w3.org/2000/svg"><g fill="#1f1f1f"><path d="m0 1.652h16.78v16.778h-16.78z"/><path d="m0 32.009h16.78v16.777h-16.78z"/><path d="m28.987 32.009h16.78v16.777h-16.78z"/><path d="m28.813201 1.467855h16.780022v16.774022h-16.780022z" transform="matrix(.98115718 -.19321126 .19321126 .98115718 -1.203058 7.373773)"/><path d="m62.548 64.712h3.496v.83h-2.553v1.922h2.44v.827h-2.44v2.997h-.943z"/><path d="m67.741 64.712h.942v2.752h3.145v-2.752h.944v6.576h-.944v-2.997h-3.145v2.997h-.942z"/><path d="m77.701 70.571c1.517 0 2.166-1.261 2.166-2.571 0-1.337-.716-2.579-2.166-2.5710765-1.45-.0079235-2.166 1.2340765-2.166 2.5710765.001 1.31.65 2.571 2.166 2.571m0-5.972c1.997 0 3.165 1.455 3.165 3.401 0 1.998-1.159 3.403-3.165 3.403-2.007 0-3.165-1.405-3.165-3.403 0-1.946 1.168-3.401 3.165-3.401"/><path d="m85.524 64.712h3.496v.83h-2.552v1.922h2.439v.827h-2.439v2.997h-.944z"/><path d="m93.439 69c-.187 0-.375-.02-.565-.02-.481 0-1.666.075-1.666.923 0 .509.488.783.894.783.876 0 1.337-.549 1.337-1.263zm-2.628-2.177c.442-.265.97-.452 1.582-.452 1.377 0 1.932.68 1.932 1.988v1.988c0 .544.02.801.037.94h-.828v-.62h-.02c-.206.289-.678.735-1.487.735-1.037 0-1.762-.452-1.762-1.499 0-1.205 1.319-1.583 2.232-1.583.348 0 .594 0 .941.021 0-.83-.301-1.253-1.186-1.253-.499 0-1.037.186-1.394.487z"/><path d="m99.253 67.296c-.337-.142-.678-.207-.959-.207-.991 0-1.546.885-1.546 1.796 0 .859.462 1.8 1.601 1.8.301 0 .679-.096.952-.272l.066.79c-.368.171-.792.2-1.112.2-1.45 0-2.449-1.14-2.449-2.518 0-1.457.979-2.514 2.449-2.514.357 0 .819.085 1.074.188z"/><path d="m100.764 64.224h.885v2.949h.02c.32-.511.876-.801 1.545-.801 1.242 0 1.799.772 1.799 2.064v2.852h-.886v-2.484c0-1.124-.246-1.67-1.018-1.715-1.008 0-1.46.809-1.46 1.977v2.222h-.885z"/><path d="m106.899 64.224h.886v2.949h.016c.323-.511.88-.801 1.547-.801 1.242 0 1.799.772 1.799 2.064v2.852h-.885v-2.484c0-1.124-.247-1.67-1.019-1.715-1.006 0-1.458.809-1.458 1.977v2.222h-.886z"/><path d="m115.162 70.686c1.037 0 1.5-.943 1.5-1.801 0-.911-.557-1.796-1.5-1.796-.951 0-1.509.885-1.509 1.796 0 .859.465 1.801 1.509 1.801m0-4.314c1.46 0 2.442 1.056 2.442 2.513 0 1.379-1.001 2.518-2.442 2.518-1.45 0-2.45-1.14-2.45-2.518 0-1.458.979-2.513 2.45-2.513"/><path d="m122.221 67.296c-.339-.142-.678-.207-.961-.207-.989 0-1.544.885-1.544 1.796 0 .859.461 1.8 1.599 1.8.305 0 .68-.096.951-.272l.066.79c-.366.171-.788.2-1.111.2-1.447 0-2.446-1.14-2.446-2.518 0-1.457.978-2.514 2.446-2.514.36 0 .822.085 1.075.188z"/><path d="m123.731 64.224h.885v2.949h.018c.32-.511.874-.801 1.547-.801 1.242 0 1.799.772 1.799 2.064v2.852h-.89v-2.484c0-1.124-.239-1.67-1.014-1.715-1.008 0-1.46.809-1.46 1.977v2.222h-.885z"/><path d="m129.508 70.348c.349.223.848.339 1.1.339.407 0 .906-.171.906-.688 0-.877-2.083-.801-2.083-2.148 0-.998.743-1.479 1.696-1.479.415 0 .754.083 1.099.186l-.072.775c-.197-.123-.725-.244-.932-.244-.454 0-.848.186-.848.583 0 .98 2.082.699 2.082 2.232 0 1.027-.822 1.499-1.678 1.499-.452 0-.914-.05-1.318-.265z"/><path d="m136.961 67.296c-.341-.142-.678-.207-.961-.207-.987 0-1.544.885-1.544 1.796 0 .859.461 1.8 1.602 1.8.299 0 .678-.096.948-.272l.068.79c-.369.171-.79.2-1.113.2-1.45 0-2.449-1.14-2.449-2.518 0-1.457.981-2.514 2.449-2.514.36 0 .819.085 1.077.188z"/><path d="m138.471 64.224h.885v2.949h.018c.318-.511.877-.801 1.544-.801 1.242 0 1.799.772 1.799 2.064v2.852h-.882v-2.484c0-1.124-.247-1.67-1.019-1.715-1.011 0-1.46.809-1.46 1.977v2.222h-.885z"/><path d="m148.852 71.288h-.856v-.762h-.016c-.268.546-.909.877-1.578.877-1.242 0-1.796-.775-1.796-2.064v-2.855h.885v2.487c0 1.121.244 1.665 1.016 1.715 1.006 0 1.46-.811 1.46-1.98v-2.222h.885z"/><path d="m150.85 64.225h1v7.063h-1z"/><path d="m156.846 68.425c0-.735-.436-1.338-1.197-1.338-.867 0-1.225.716-1.289 1.338zm.572 2.666c-.339.123-.725.314-1.518.314-1.703 0-2.487-1.039-2.487-2.601 0-1.426.898-2.432 2.253-2.432 1.602 0 2.118 1.167 2.118 2.713h-3.426c0 .951.743 1.602 1.581 1.602.586 0 1.261-.302 1.478-.481v.885z"/><path d="m165.26 70.571c1.515 0 2.167-1.261 2.167-2.571 0-1.337-.714-2.579-2.167-2.5710765-1.45-.0079235-2.166002 1.2340765-2.166002 2.5710765-.000998 1.31.651002 2.571 2.166002 2.571m0-5.972c1.998 0 3.164 1.455 3.164 3.401 0 1.998-1.158 3.403-3.164 3.403s-3.164002-1.405-3.164002-3.403c-.000998-1.946 1.168002-3.401 3.164002-3.401"/><path d="m169.703 70.348c.347.223.846.339 1.1.339.404 0 .903-.171.903-.688 0-.877-2.084-.801-2.084-2.148 0-.998.747-1.479 1.698-1.479.415 0 .754.083 1.102.186l-.075.775c-.2-.123-.725-.244-.934-.244-.45 0-.847.186-.847.583 0 .98 2.081.699 2.081 2.232 0 1.027-.818 1.499-1.677 1.499-.453 0-.911-.05-1.318-.265z"/><path d="m176.654 67.199h-1.271v2.631c0 .554.339.856.746.856.271 0 .47-.084.601-.171v.754c-.197.058-.473.134-.754.134-.914 0-1.48-.436-1.48-1.394v-2.81h-1.081v-.714h1.081v-1.111l.886-.284v1.394h1.271v.715z"/><path d="m177.786 70.348c.347.223.848.339 1.1.339.407 0 .906-.171.906-.688 0-.877-2.08-.801-2.08-2.148 0-.998.743-1.479 1.694-1.479.415 0 .754.083 1.103.186l-.076.775c-.197-.123-.722-.244-.932-.244-.454 0-.848.186-.848.583 0 .98 2.083.699 2.083 2.232 0 1.027-.819 1.499-1.675 1.499-.454 0-.917-.05-1.318-.265z"/><path d="m185.239 67.296c-.339-.142-.68-.207-.961-.207-.987 0-1.544.885-1.544 1.796 0 .859.461 1.8 1.602 1.8.299 0 .678-.096.951-.272l.066.79c-.368.171-.793.2-1.114.2-1.45 0-2.448-1.14-2.448-2.518 0-1.457.982-2.514 2.448-2.514.358 0 .819.085 1.077.188z"/><path d="m186.749 64.224h.885v2.949h.018c.32-.511.877-.801 1.544-.801 1.245 0 1.799.772 1.799 2.064v2.852h-.885v-2.484c0-1.124-.244-1.67-1.016-1.715-1.008 0-1.46.809-1.46 1.977v2.222h-.885z"/><path d="m198.32 71.288h-1.03l-1.242-4.031h-.018l-1.214 4.031h-1.029l-1.545-4.803h.972l1.099 3.976h.02l1.224-3.976h1.048l1.202 3.976h.022l1.168-3.976h.865z"/><path d="m204.218 68.425c0-.735-.431-1.338-1.195-1.338-.867 0-1.225.716-1.289 1.338zm.575 2.666c-.339.123-.725.314-1.515.314-1.706 0-2.491-1.039-2.491-2.601 0-1.426.895-2.432 2.254-2.432 1.602 0 2.118 1.167 2.118 2.713h-3.426c0 .951.743 1.602 1.581 1.602.586 0 1.263-.302 1.479-.481z"/><path d="m206.84 71.288h.886v-4.803h-.886zm-.054-5.875h.995v-1.003h-.995z"/><path d="m209.375 70.516 2.77-3.317h-2.636v-.714h3.661v.772l-2.768 3.314h2.869v.717h-3.896z"/><path d="m62.616 1.641h3.376v6.798h6.749v-6.798h3.375v16.824h-3.375v-7.376h-6.749v7.376h-3.376z"/><path d="m91.936 4.726c-1.061-.46-2.243-.722-3.423-.722-1.153 0-2.648.508-2.648 2.332 0 2.919 7.375 1.688 7.375 7.329 0 3.688-2.92 5.086-6.316 5.086-1.831 0-2.648-.239-4.312-.647l.314-3.04c1.156.629 2.48 1.036 3.806 1.036 1.278 0 2.989-.647 2.989-2.164 0-3.208-7.372-1.879-7.372-7.449 0-3.761 2.915-5.135 5.878-5.135 1.444 0 2.793.198 4.025.604z"/><path d="m98.894 1.641h3.636c3.617 0 7.933-.122 7.933 4.554 0 1.979-1.327 3.617-3.469 3.905v.049c.915.068 1.444.993 1.779 1.732l2.705 6.585h-3.762l-2.023-5.255c-.482-1.255-.917-1.733-2.339-1.733h-1.087v6.988h-3.373zm3.373 7.183h1.111c1.662 0 3.563-.244 3.563-2.337 0-2.029-1.876-2.193-3.563-2.193h-1.111z"/><path d="m62.58 26.567h1.016v2.957h3.378v-2.957h1.014v7.068h-1.014v-3.222h-3.378v3.222h-1.016z"/><path d="m73.884 26.447c2.146 0 3.405 1.557 3.405 3.653 0 2.148-1.248 3.658-3.405 3.658-2.158 0-3.403-1.51-3.403-3.658.001-2.095 1.257-3.653 3.403-3.653m0 6.418c1.63 0 2.328-1.355 2.328-2.765 0-1.434-.768-2.774-2.328-2.763-1.558-.012-2.329 1.329-2.329 2.763.001 1.41.7 2.765 2.329 2.765"/><path d="m84.611 27.73c-.447-.259-.942-.394-1.456-.394-1.63 0-2.713 1.171-2.713 2.764 0 1.66 1.192 2.765 2.662 2.765.501 0 1.182-.13 1.537-.345l.058.977c-.536.226-1.192.264-1.608.264-2.237 0-3.724-1.439-3.724-3.692 0-2.176 1.58-3.621 3.737-3.621.543 0 1.083.075 1.587.306z"/><path d="m86.975 26.567h1.011v2.957h3.385v-2.957h1.01v7.068h-1.01v-3.222h-3.385v3.222h-1.011z"/><path d="m98.452 27.63c-.516-.204-.801-.294-1.329-.294-.562 0-1.23.207-1.23.941 0 1.355 3.034 1.046 3.034 3.372 0 1.509-1.163 2.111-2.58 2.111-.498 0-.984-.148-1.451-.299l.105-.94c.34.141.955.343 1.468.343.577 0 1.388-.319 1.388-1.145 0-1.588-3.038-1.15-3.038-3.351 0-1.254.988-1.921 2.266-1.921.465 0 1.025.079 1.506.255z"/><path d="m106.193 27.73c-.448-.259-.941-.394-1.456-.394-1.632 0-2.717 1.171-2.717 2.764 0 1.66 1.198 2.765 2.668 2.765.504 0 1.183-.13 1.536-.345l.063.977c-.541.226-1.198.264-1.612.264-2.236 0-3.726-1.439-3.726-3.692 0-2.176 1.578-3.621 3.739-3.621.543 0 1.081.075 1.585.306z"/><path d="m108.557 26.567h1.014v2.957h3.378v-2.957h1.017v7.068h-1.017v-3.222h-3.378v3.222h-1.014z"/><path d="m122.321 30.708c0 1.981-.999 3.049-2.742 3.049-1.741 0-2.742-1.067-2.742-3.049v-4.141h1.012v4.011c0 1.36.421 2.286 1.729 2.286 1.304 0 1.731-.926 1.731-2.286v-4.011h1.011v4.141z"/><path d="m125.133 26.567h1.011v6.176h2.957v.892h-3.968z"/><path d="m131.262 26.567h3.958v.886h-2.947v2.071h2.69v.889h-2.69v2.33h2.947v.892h-3.958z"/><path d="m141.614 26.567h3.753v.886h-2.739v2.071h2.624v.889h-2.624v3.222h-1.014z"/><path d="m153.245 30.708c0 1.981-1.003 3.053-2.744 3.053s-2.747-1.071-2.747-3.053v-4.141h1.016v4.011c0 1.36.42 2.287 1.731 2.287 1.305 0 1.731-.927 1.731-2.287v-4.011h1.014v4.141zm-4.054-5.741h.953v1.014h-.953zm1.665 0h.951v1.014h-.951z"/><path d="m156.005 26.567h1.728c1.397 0 2.742.223 2.742 1.917 0 .861-.633 1.467-1.455 1.606v.018c.315.123.465.273.688.714l1.337 2.814h-1.155l-1.079-2.455c-.318-.689-.649-.689-1.19-.689h-.604v3.145h-1.011v-7.07zm1.012 3.041h.864c.956 0 1.528-.429 1.528-1.108 0-.634-.488-1.044-1.418-1.044h-.974z"/><path d="m168.492 27.456h-2.198v-.889h5.408v.889h-2.198v6.183h-1.012z"/><path d="m173.771 26.567h3.957v.886h-2.946v2.071h2.686v.889h-2.686v2.33h2.946v.892h-3.957z"/><path d="m185.239 27.73c-.446-.259-.943-.394-1.455-.394-1.636 0-2.721 1.171-2.721 2.764 0 1.66 1.195 2.765 2.668 2.765.502 0 1.182-.13 1.534-.345l.062.977c-.534.226-1.196.264-1.608.264-2.24 0-3.724-1.439-3.724-3.692 0-2.176 1.577-3.621 3.737-3.621.546 0 1.079.075 1.586.306z"/><path d="m187.597 26.567h1.019v2.957h3.379v-2.957h1.011v7.068h-1.011v-3.222h-3.379v3.222h-1.019z"/><path d="m195.859 26.567h1.379l3.114 5.693h.021v-5.693h1.014v7.068h-1.299l-3.2-5.813h-.015v5.813h-1.014z"/><path d="m204.186 26.564h1.011v7.071h-1.011z"/><path d="m208.06 26.567h1.013v3.109l3.02-3.109h1.345l-3.319 3.339 3.584 3.729h-1.478l-3.152-3.464v3.464h-1.013z"/><path d="m62.595 41.78h1.731c1.398 0 2.746.221 2.746 1.913 0 .86-.638 1.465-1.46 1.608v.022c.318.121.469.273.688.708l1.339 2.815h-1.156l-1.081-2.452c-.314-.689-.648-.689-1.186-.689h-.606v3.141h-1.015zm1.015 3.034h.861c.96 0 1.526-.424 1.526-1.1 0-.641-.487-1.044-1.417-1.044h-.97z"/><path d="m72.089 41.777h1.062l2.985 7.069h-1.101l-.718-1.781h-3.463l-.718 1.781h-1.066zm.495.956-1.407 3.499h2.813z"/><path d="m78.107 41.777h1.851c1.446 0 2.654.513 2.654 2.117 0 1.57-1.225 2.124-2.501 2.124h-.993v2.828h-1.012v-7.069zm1.012 3.354h1.002c.626 0 1.415-.317 1.415-1.249 0-.893-.931-1.212-1.557-1.212h-.859v2.461z"/><path d="m84.745 41.777h1.851c1.448 0 2.653.513 2.653 2.117 0 1.57-1.228 2.124-2.501 2.124h-.994v2.828h-1.01v-7.069zm1.01 3.354h1.004c.627 0 1.417-.317 1.417-1.249 0-.893-.933-1.212-1.557-1.212h-.865v2.461z"/><path d="m91.492 41.777h3.96v.893h-2.945v2.064h2.683v.892h-2.683v2.326h2.945v.895h-3.96z"/><path d="m98.018 41.78h1.731c1.4 0 2.743.221 2.743 1.913 0 .86-.634 1.465-1.453 1.608v.022c.313.121.461.273.689.708l1.333 2.815h-1.152l-1.087-2.452c-.309-.689-.645-.689-1.183-.689h-.609v3.141h-1.011v-7.066zm1.011 3.034h.863c.962 0 1.526-.424 1.526-1.1 0-.641-.485-1.044-1.417-1.044h-.972z"/><path d="m108.484 42.839c-.515-.202-.798-.292-1.327-.292-.565 0-1.233.202-1.233.943 0 1.358 3.034 1.043 3.034 3.367 0 1.514-1.162 2.11-2.583 2.11-.493 0-.979-.137-1.444-.294l.1-.94c.341.143.953.343 1.467.343.578 0 1.387-.326 1.387-1.156 0-1.578-3.038-1.14-3.038-3.338 0-1.259.993-1.918 2.268-1.918.467 0 1.023.074 1.507.247z"/><path d="m110.461 41.777h1.116l1.691 6.053h.02l1.509-6.053h1.436l1.529 6.053h.021l1.691-6.053h1.074l-2.178 7.07h-1.307l-1.537-6.177h-.02l-1.551 6.177h-1.358z"/><path d="m122.474 41.777h1.014v7.071h-1.014z"/><path d="m126.286 41.777h1.019v6.175h2.957v.895h-3.976z"/></g></svg>