<svg height="97" viewBox="0 0 133 97" width="133" xmlns="http://www.w3.org/2000/svg"><g fill="#1f1f1f"><path d="m48.844984 13.265896c.0896548.2526837 10.0861792 27.331957 9.9516968 27.6688686-.0448275.084228-.3586197.8843932-.7172394 1.8109002-.9413767 2.3583814-2.3758556 5.8959537-2.7344753 6.569777-.5379296 1.0107349-1.0310316 1.6003303-1.837926 1.6845582-.0448274 0-.0896549 0-.0896549 0-.7172394 0-1.1206866-.5474814-1.3896514-.8422791-.2689648-.3369116-1.165514-2.737407-7.5758413-20.0462428-2.8241302-7.6647398-5.6034329-15.2873658-5.9172251-16.045417-.582757-1.4739885-1.837926-3.2006606-4.4827463-3.2006606-1.2999965 0-3.093095 0-3.5413697-.042114h-.1344823c-.5379296 0-.762067-.3369116-.9862043-.92650695l-.3586196-1.09496285c-.1793099-.71593728.4482746-.96862099.9862041-.96862099h11.3861757c5.3344681 0 6.7241195 3.57968619 7.441359 5.43270029zm56.661914-5.39058634c-1.972409-.21056977-4.034473-.4632535-5.468951-1.2213047-1.8379262-1.26341866-2.2862002-3.20066061-2.8689578-6.23286541-.0448273-.25268373-.2689647-.42113955-.5379294-.42113955h-1.2103417c-.2689647 0-.4931021.16845582-.5379294.42113955-.5827568 3.0322048-1.0310316 4.96944675-2.8689573 6.23286541-1.434479.80016515-3.4965421 1.05284888-5.4689506 1.26341869-.2689647.04211394-.4931021.25268374-.4931021.5053674v1.43187455c0 .2526837.2241374.4632535.4931021.5053674 1.9724085.2105698 4.0344716.4632535 5.4689506 1.2213048 1.8379257 1.2634186 2.2862005 3.2006605 2.8689573 6.2328653.0448273.2526838.2689647.4211396.5379294.4211396h1.2103417c.2689647 0 .4931021-.1684558.5379294-.4211396.5827576-3.0322048 1.0310316-4.9694467 2.8689578-6.2328653 1.434478-.8001652 3.496542-1.0528489 5.468951-1.2634187.268965-.042114.493102-.2526838.493102-.50536752v-1.43187448c0-.29479768-.224137-.50536744-.493102-.50536744zm-38.5067914-.04211395h-11.3861757c-.5379296 0-1.1655141.25268371-.9862042.96862099l.3586197 1.09496285c.2241374.63170935.4482747.92650695.9862042.92650695h.1344824c.4931021 0 2.2413732.042114 3.5413696.042114 2.6448203 0 3.8999893 1.7687862 4.4827464 3.2006606.3137922.7580512 3.0930949 8.3806772 5.9172251 16.045417 6.3654998 17.3088358 7.3068765 19.7093312 7.5758413 20.0462428.2689648.3369117.6724119.8422791 1.3896513.8422791h.089655c.7620668-.0421139 1.2999963-.6738233 1.8379257-1.6845582.3586202-.6738233 1.7930992-4.2113956 2.7344753-6.569777.3586202-.926507.6724122-1.7266722.7172395-1.8109002.1793101-.3369116-9.8620418-27.4161849-9.9516967-27.6688686-.672412-1.8530141-2.1068908-5.43270029-7.4413589-5.43270029z"/><path d="m13.1358025 71.1258064.0443777-.0838709h-1.4644644l-2.13013017 8.2193549-2.39639643-8.2193549v-.0419355h-1.19819819l-2.39639641 8.2612904-2.13013013-8.2612904h-1.46446447l2.88455123 10.6935482v.0838709h1.2425759l2.39639641-8.2193546 2.39639642 8.1774196v.041935h1.24257594zm12.2038706 7.0451615v-7.1709679h-1.3757091v7.0870968c0 1.551613-1.0206873 2.558065-2.6182849 2.558065s-2.618285-1.006452-2.618285-2.558065v-7.0870968h-1.375709v7.1709679c0 2.1387093 1.6419753 3.6483871 3.993994 3.6483871 2.3076409 0 3.993994-1.5096778 3.993994-3.6483871zm14.0233566-7.1709679h-1.3757089v8.2612904l-5.7691025-8.2612904h-1.2869536v10.7354841h1.375709v-8.303226l5.8134802 8.303226h1.2869536v-10.7354841zm12.7364032 9.7290327c1.1538205-1.0903229 1.1094427-2.8516133 1.1094427-4.2774198v-.4193548c0-1.383871 0-2.9774194-1.1094427-4.0258065-.7100434-.6709677-1.6863531-1.0064516-2.8845512-1.0064516h-3.9052386v10.7354841h3.9052386c1.1981981 0 2.1745078-.3354838 2.8845512-1.0064514zm-5.4584585-8.5548392h2.3520187c.9319319 0 1.5975976.251613 2.1301301.7548388.7100435.7129032.7100435 1.9709678.7100435 3.1870968v.2935484c0 1.2580645 0 2.7258065-.7100435 3.4387099-.5325325.5032257-1.1981982.7548385-2.1301301.7548385h-2.3520187zm19.4818152 8.3870973h-5.7691024v-3.6483875h4.9259259v-1.1741936h-4.9259259v-3.5645162h5.7691024v-1.1741935h-7.1448115v10.7354841h7.1448115zm10.5175175-3.6483875c1.5088422-.3354839 2.3963963-1.4258065 2.3963963-2.8935484 0-1.8451614-1.3313311-3.0193549-3.4170836-3.0193549h-4.3490157v10.7354841h1.375709v-4.6967744h2.5295296l2.5295296 4.6548385.0443776.0419359h1.5975972zm-3.993994-4.7387098h2.8845513c1.3313313 0 2.1301301.7129033 2.1301301 1.8451614 0 1.1741935-.7987988 1.8451613-2.1301301 1.8451613h-2.8845513zm16.9966633 4.7387098c1.5088421-.3354839 2.3963967-1.4258065 2.3963967-2.8935484 0-1.8451614-1.3313318-3.0193549-3.4170839-3.0193549h-4.3933936v10.7354841h1.3757094v-4.6967744h2.5295293l2.5295294 4.6548385.0443776.0419359h1.597598zm-3.9939939-4.7387098h2.8845515c1.3313311 0 2.1301297.7129033 2.1301297 1.8451614 0 1.1741935-.7987986 1.8451613-2.1301297 1.8451613h-2.8845515zm15.6209545-1.132258v-.0419355h-1.153821l-4.1271266 10.6516131-.0443776.125806h1.4644646l.8875537-2.3903222h4.7484149l.887555 2.3903222h1.464464zm-.57691 1.9290323 1.952619 5.2419355h-3.9496162zm16.819152 5.2000001v-7.1709679h-1.375709v7.0870968c0 1.551613-1.020687 2.558065-2.618285 2.558065s-2.618285-1.006452-2.618285-2.558065v-7.0870968h-1.375709v7.1709679c0 2.1387093 1.641975 3.6483871 3.993994 3.6483871 2.307641 0 3.993994-1.5096778 3.993994-3.6483871zm15.443443-7.1709679h-1.331331l-3.505839 7.3806452-3.550217-7.3387097-.044378-.0419355h-1.331331v10.7354841h1.375709v-7.7580648l2.973307 6.0806451h1.15382l2.928929-6.0806451v7.7161289h1.375709v-10.6935482zm-108.059726 21.2193553h-.6656657v4.6129028h.6656657zm5.8578578 0h-.6656656v3.3967737l-2.3963964-3.3967737h-.5769103v4.6129028h.6656657v-3.4387095l2.3963964 3.4387095h.5769102zm5.2809477 3.3548386c0-.3774196-.1331331-.7129034-.4437772-.9225804-.2218885-.1677426-.4437771-.2516136-.8875542-.3354845l-.5325325-.083871c-.2662663-.041935-.4881548-.125806-.621288-.2096769-.1331331-.083871-.1775108-.2516129-.1775108-.4612906 0-.4612906.3550217-.7548385.9319319-.7548385.4437771 0 .7544211.125806 1.0650651.3774196l.0443777.0419351.4437771-.4193547-.0443777-.0419359c-.4437771-.3774189-.8431765-.5032257-1.4644645-.5032257-.9763096 0-1.5975976.5451616-1.5975976 1.3419359 0 .3774189.1331332.6709676.3993994.8806446.2218886.1677426.5325326.2935487.931932.3774196l.5325325.083871c.3550217.0419358.4437771.0838709.5769103.2096777.1331331.125806.2218885.2935479.2218885.5032257 0 .4612906-.3993994.7548385-1.0206873.7548385-.5325326 0-.8875543-.125806-1.242576-.4612898l-.0443776-.0419359-.4437772.4193547.0443777.0419359c.4437771.4193547.9319319.6290317 1.6863531.6290317.9763096-.0838709 1.6419753-.6290317 1.6419753-1.4258061zm2.6182849-.5451615h1.1981982c.931932 0 1.5532199-.5451615 1.5532199-1.383871 0-.8387094-.6212879-1.383871-1.5532199-1.383871h-1.8194861v4.6129036h.6656657v-1.8451616zm0-2.2225804h1.1538205c.5769103 0 .9319319.2935479.9319319.7967743 0 .5032257-.3550216.8387095-.9319319.8387095h-1.1538205zm5.1478145-.5870967h-.6656657v4.6129028h.6656657zm4.6596597 2.6000001c.6212879-.1677419.9763096-.6290324.9763096-1.2580649 0-.7967744-.5769103-1.3000001-1.4644644-1.3000001h-1.9082417v4.6129036h.6656657v-1.9709676h1.0206874l1.0650651 1.9290317v.0419359h.754421zm-1.7307308-2.0129034h1.1981983c.5325325 0 .8875542.2935479.8875542.7548385s-.310644.7548385-.8875542.7548385h-1.1981983zm5.4584585-.5870967h-.6656657v4.6129028h.6656657zm5.3697031 4.0677421h-2.4407742v-1.467742h2.0857525v-.5870974h-2.0857525v-1.425806h2.4407742v-.5870967h-3.1064399v4.6129028h3.1064399zm4.3490157-1.467742c.6212879-.1677419.9763096-.6290324.9763096-1.2580649 0-.7967744-.5769102-1.3000001-1.4644645-1.3000001h-1.9082415v4.6129036h.6656656v-1.9709676h1.0206874l1.065065 1.9290317v.0419359h.7544212zm-1.7307308-2.0129034h1.1981982c.5325326 0 .8875542.2935479.8875542.7548385s-.3106439.7548385-.8875542.7548385h-1.1981982zm6.1241241 0h1.3757091v-.5870967h-3.4170838v.5870967h1.3757091v4.067742h.6656656zm7.5885886-.5870967h-.5325325l-1.8194861 4.6129028h.7100434l.3993993-1.0064513h1.9526193l.3993994 1.0064513h.7100434zm-.2662662 1.0064514.7544211 2.0548385h-1.5532199zm6.0797465 1.5935487c.6212875-.1677419.9763097-.6290324.9763097-1.2580649 0-.7967744-.57691-1.3000001-1.4644646-1.3000001h-1.9082416v4.6129036h.6656657v-1.9709676h1.0206873l1.0650648 1.9290317v.0419359h.7544211zm-1.7307308-2.0129034h1.1981984c.5325324 0 .8875537.2935479.8875537.7548385s-.3106438.7548385-.8875537.7548385h-1.1981984zm8.1654989 2.7258061c0-.4612898-.2218887-.8387095-.6656659-1.0483872.3550221-.209677.5769107-.5451608.5769107-.9645155 0-.7548393-.5769107-1.258065-1.4644645-1.258065h-1.8638642v4.6129036h1.9082418c.9763097 0 1.5088421-.5032257 1.5088421-1.3419359zm-2.751418-.7548385h1.1981983c.5325324 0 .8875538.2935487.8875538.7548385 0 .4612906-.3550214.7548393-.8875538.7548393h-1.1981983zm0-1.9709676h1.15382c.266267 0 .8431769.0838709.8431769.7129034 0 .6290317-.5769099.7129026-.8431769.7129026h-1.15382zm7.9879878 3.4806454h-2.4407743v-1.467742h2.0857529v-.5870974h-2.0857529v-1.425806h2.4407743v-.5870967h-3.1064394v4.6129028h3.1064394zm2.6182853-4.0677421h-.665666v4.6129028h.665666zm3.6833501.5870967h1.3757086v-.5870967h-3.4170839v.5870967h1.3757094v4.067742h.6656659zm6.1241234 3.4806454h-2.440774v-1.467742h2.085753v-.5870974h-2.085753v-1.425806h2.440774v-.5870967h-3.106439v4.6129028h3.106439zm5.63597-4.0677421h-.665666v3.3967737l-2.396396-3.3967737h-.576911v4.6129028h.665666v-3.4387095l2.396397 3.4387095h.57691z"/></g></svg>