<svg height="33" viewBox="0 0 174 33" width="174" xmlns="http://www.w3.org/2000/svg"><g fill="#1f1f1f"><path d="m73.2012384 1h-4.3839009c-.2229103 0-.4272446.08169014-.5758514.24507042s-.2414861.38802817-.2414861.6943662v27.14154928c0 .6126761.2786378.9190141.8173375.9190141h4.3839009c.5386997 0 .7987616-.306338.7987616-.9190141v-27.16197182c0-.28591549-.0743034-.51056338-.2229102-.67394366-.130031-.16338028-.3157895-.24507042-.5758514-.24507042z"/><path d="m62.269722 1h-5.1525169c-.567994 0-.933133.26549296-1.135988.83732394l-6.6536438 18.68661976-6.6130729-18.62535215c-.2231405-.59225352-.5882795-.89859155-1.135988-.89859155h-4.6048084c-.3042825 0-.527423.08169014-.7099925.22464789-.1825695.14295774-.2637115.36760563-.2637115.65352112 0 .18380282.040571.40845071.1419985.6330986l10.8527423 26.65140849c.243426.5514084.608565.8373239 1.1562735.8373239h2.4748309c.527423 0 .9128475-.2859155 1.1562735-.8373239l11.0353118-26.81478878c.121713-.32676056.1825695-.57183098.1825695-.73521126 0-.40845071-.243426-.61267606-.730278-.61267606z"/><path d="m31.2012384 1h-4.3839009c-.2229103 0-.4272446.08169014-.5758514.24507042-.1671827.16338028-.2414861.38802817-.2414861.6943662v27.14154928c0 .6126761.2786378.9190141.8173375.9190141h4.3839009c.5386997 0 .7987616-.306338.7987616-.9190141v-27.16197182c0-.28591549-.0743034-.51056338-.2229102-.67394366s-.3343653-.24507042-.5758514-.24507042z"/><path d="m20.0980392 23.7258633h-13.72549018v-21.78576464c-.01960784-.63354475-.29411765-.94009866-.8627451-.94009866h-4.66666666c-.25490197 0-.4509804.08174771-.60784314.26568006-.15686275.16349542-.23529412.38830162-.23529412.6744186v27.16067654c0 .5926709.2745098.8992248.84313726.8992248h19.25490194c.6078432 0 .9019608-.3065539.9019608-.8992248v-4.496124c0-.572234-.2941176-.8787879-.9019608-.8787879z"/><path d="m101.444144 2.02541847c-2.3155049-1.35027898-4.8138122-2.02541847-7.5355455-2.02541847-2.7014218 0-5.1997292.67513949-7.4746107 2.02541847-2.2951929 1.35027899-4.1029113 3.17110974-5.423155 5.46249226-1.3405552 2.29138251-2.0108328 4.80781157-2.0108328 7.52882827s.6702776 5.2374457 2.0108328 7.549287c1.3405551 2.3118413 3.1482735 4.1326721 5.4434665 5.5034098 2.2748815 1.350279 4.7731889 2.0254185 7.4746107 2.0254185.9343263 0 1.8280297-.0818351 2.7217332-.2455053l1.056195 2.2913826c.1624915.3682579.3249831.5933044.4874746.6955982.1624915.1022939.3859174.1636702.690589.1636702h4.5294512.406229c.182803 0 .365606-.0613763.507786-.184129.14218-.1227526.223426-.2864228.223426-.5114693 0-.1227526-.020311-.265964-.060934-.4091754l-1.97021-4.5418475c1.807718-1.2684439 3.290454-2.8642281 4.448206-4.8078115 1.360866-2.3118413 2.031144-4.8282703 2.031144-7.5492871 0-2.7210167-.670278-5.23744573-2.031144-7.52882825-1.381178-2.29138251-3.209208-4.11221326-5.524712-5.44203348zm.345294 17.61500313c-.446852.8388096-1.015572 1.5957842-1.68585 2.2300062l-1.5639807-3.6621203c-.1218686-.3273404-.2843602-.5523869-.4468517-.6751395-.1624916-.1227526-.4062289-.1841289-.7109005-.1841289h-.4062288-4.915369c-.2031144 0-.365606.0613763-.5077861.2045877s-.2031144.3273403-.2031144.5523868c0 .1636702.0406229.3068816.1015572.4296343l2.6607989 5.7898326c-.0609343 0-.1218686 0-.1828029 0-1.7061612 0-3.2498308-.4091755-4.590386-1.2479851-1.3405551-.8388097-2.3967501-1.9640422-3.1482735-3.4166151-.7515234-1.432114-1.1374408-3.0074395-1.1374408-4.7055176 0-1.7185369.3859174-3.2734036 1.1374408-4.6850589.7515234-1.41165532 1.8077184-2.5368878 3.168585-3.37569748 1.3608666-.83880967 2.8842248-1.24798512 4.5903859-1.24798512 1.7264726 0 3.2701422.40917545 4.6513202 1.24798512 1.3608667.83880968 2.4373734 1.96404216 3.2092074 3.37569748.771835 1.4116553 1.157753 2.966522 1.157753 4.6646001-.020312 1.6980781-.406229 3.2734036-1.178064 4.7055177z"/><path d="m159.865035 29.9795779c2.575524-.020422 4.988811-.6943499 7.26014-2.0217835 1.338461-.7964602 2.514685-1.7562968 3.548951-2.8590878h.02028c.70979-.7760381 1.358741-1.6337645 1.926573-2.5936011.141958-.2246426.263636-.4697073.385315-.6943499.283916-.5309734-.101399-1.1640572-.689511-1.1640572h-5.04965c-.243357 0-.466434.1225324-.628671.3063309 0 0-.02028.020422-.02028.020422-.811189 1.0415249-1.825175 1.8379851-3.021679 2.4098026-1.155944.5513955-2.413286.8373043-3.751748.8577264-1.338461-.0204221-2.758042-.2859088-3.934265-.8577264-1.196504-.5718175-2.19021-1.3682777-3.021679-2.4098026-.811189-1.0415248-1.379021-2.2260041-1.703496-3.5942818h20.502797c.608391 0 1.074825-.0408441 1.358741-.1021103.283916-.0612661.527273-.2654867.689511-.6126617.162237-.3267528.263636-.8781484.263636-1.6133424 0-3.2879509-.73007-6.06535054-2.16993-8.33219874-1.43986-2.26684819-3.265035-3.94145677-5.455245-5.04424778-2.19021-1.12321307-4.420979-1.67460858-6.672028-1.67460858-2.778321 0-5.293007.67392784-7.523776 2.02178353-2.230769 1.34785568-3.995105 3.16541865-5.272727 5.47311096-1.277623 2.28727025-1.906294 4.79918311-1.906294 7.53573861 0 2.6752893.446154 5.1872022 1.804895 7.4948945 1.358741 2.2872702 3.183916 4.1252552 5.475525 5.4731109 2.271328 1.3274337 4.927972 1.9809394 7.503496 2.0013615zm-8.416084-18.1143635c.405594-1.1844792 1.013986-2.24642611 1.804895-3.18584068.790909-.95983662 1.744056-1.71545269 2.818881-2.26684819 1.095105-.55139551 2.413287-.83730429 3.67063-.83730429 1.845454 0 3.488112.57181756 4.907692 1.73587474 1.41958 1.14363513 2.474126 2.67528932 3.163636 4.55411842z"/><path d="m139.0572 1h-4.615263c-.653488 0-.980233.31955923-.980233.97865014v14.89944906c0 1.6577135-.265479 3.2355372-.959811 4.2940771-.694331 1.05854-1.531614 1.8174931-2.491425 2.2768595s-1.75625.6990358-2.716061.7190083c-1.511192.0199724-2.879434-.0599174-3.880088-.5792011-1.000655-.5392562-1.715408-1.2782369-2.164681-2.2768595-.469695-1.0185951-.612645-2.4965565-.653488-3.7148761v-15.61845726c0-.63911846-.326745-.97865014-.959812-.97865014h-4.696948c-.633067 0-.93939.31955923-.93939.97865014v15.75826446c0 2.8760331.571802 5.2128099 1.735829 7.0502755 1.164026 1.8374655 2.613954 3.1556474 4.370204 3.9745179 1.756251.8188705 3.553344 1.238292 5.39128 1.238292 4.513155 0 6.759522-1.3780992 8.781252-3.6949036l.510538 1.9373278c.081686.3195593.245058.5792011.490116.7988981.26548.219697.551381.3395317.878125.3395317h2.879434c.653489 0 .959811-.3195592.959811-.9786501v-26.42355376c.040843-.65909091-.285901-.97865014-.939389-.97865014z"/></g></svg>