<?xml version="1.0" encoding="utf-8"?>
<!-- Generator: Adobe Illustrator 24.3.0, SVG Export Plug-In . SVG Version: 6.00 Build 0)  -->
<svg version="1.1" id="Layer_1" xmlns="http://www.w3.org/2000/svg" xmlns:xlink="http://www.w3.org/1999/xlink" x="0px" y="0px"
	 viewBox="0 0 144 54" style="enable-background:new 0 0 144 54;" xml:space="preserve">
<style type="text/css">
	.st0{fill-rule:evenodd;clip-rule:evenodd;}
	.st1{fill-rule:evenodd;clip-rule:evenodd;fill:#FFFFFF;}
	.st2{fill-rule:evenodd;clip-rule:evenodd;fill:#313131;}
</style>
<g>
	<g>
		<path class="st0" d="M143.8,16.7V5.5h-10.5V0h-9.1l-0.1,0.1c-1.3,2.4-6.6,7.2-10.6,10.6l-0.1,0.1l-0.2,6.2h4.9v12.2
			c0.1,2.1,1.3,5.5,7.7,5.5l4.1,0c0.4,0,0.8-0.1,1.2-0.1c2.4-0.2,6-0.4,9.3-1.2l0.1,0l1.6-7.6h-4.7c-0.2,0-0.4,0-0.7,0
			c-0.9,0.1-2,0.1-2.6-0.5c-0.3-0.3-0.4-0.7-0.4-1.3v-7.2H143.8z M0,0.8l0,33.8h16.8v-8.9h19.6v-9.9H16.8v-3.5h19.6V0.8L0,0.8z
			 M61.6,5.4V23c0,2.2-1.6,3.1-3.2,3.1c-1.6,0-3.3-1.1-3.3-3.2V5.4L39.4,5.3l0,17.7c0,4.5,1.4,7.4,4.3,9.2c2.6,1.6,6.5,2.3,12.5,2.3
			h5.6c3,0,7.2-0.4,10.5-2.3c3.3-2,5-5,5-9.2V5.4H61.6L61.6,5.4z M111.8,19.9c-1.6-3-4.8-4.6-8.7-4.6h-6.8c-0.8,0-1.3-0.2-1.5-0.3
			c-0.3-0.2-0.4-0.4-0.4-0.7c0-0.5,0.7-1.1,2-1.1c0.1,0,7.4-0.4,14.4,0.2l0.2,0V5.2l-0.2,0c-1.2-0.2-9.9-1-17.4-1h0l-4.8,0.4
			c-6.2,0-9.5,4.8-9.6,9.5c-0.1,4.8,3.1,9.8,10.5,10.1l5.9,0c2,0.1,3,0.6,3.3,1.1c0.1,0.2,0.1,0.4,0,0.6c-0.3,0.5-1.3,0.9-2.8,0.7
			c-6.6,0.3-11.4-0.9-15.7-2.1l-0.2-0.1v8.3l0.1,0.1c3.2,1.8,11,2.1,15.2,2.1c0.9,0,1.8,0,2.7,0c6.3,0.2,11.2-1.9,13.5-5.7
			C113.3,26.1,113.4,22.6,111.8,19.9"/>
	</g>
	<g>
		<path class="st1" d="M9.2,31.3h-4v-1.1c0-0.5,0.1-0.8,0.6-1.1C6,28.9,6.5,28.8,7,28.8c0.5,0,1,0.1,1.3,0.2
			c0.6,0.3,0.8,0.7,0.8,1.3L9.2,31.3L9.2,31.3z M9,28.2c-0.4-0.3-1.2-0.6-2.3-0.6c-0.6,0-1.1,0.1-1.4,0.3c-1.1,0.5-1.4,1.3-1.4,2
			v2.9h6.1V30C10.1,29.3,9.7,28.6,9,28.2L9,28.2z M4,26.9h1v-1.2H4V26.9z M5.5,26.9h4.5v-1.2H5.5V26.9z M5.6,24.7H12v-1.2H9.7
			c0.4-0.4,0.7-0.6,0.7-1.2c0-0.6-0.1-0.9-0.5-1.3c-0.9-0.9-2.9-0.8-3.8,0c-0.2,0.2-0.6,0.6-0.5,1.3c0,0.7,0.4,0.9,0.8,1.2H5.6V24.7
			z M6.7,22.5c0-0.3,0.1-0.6,0.5-0.8c0.2-0.1,0.5-0.2,0.9-0.2c0.4,0,0.7,0.1,0.9,0.2c0.4,0.2,0.5,0.5,0.5,0.8c0,0.3-0.1,0.6-0.5,0.8
			c-0.3,0.1-0.6,0.2-0.9,0.2c-0.4,0-0.7-0.1-0.9-0.2C6.8,23.1,6.7,22.8,6.7,22.5z M4,19.6h6.1v-1.2H4V19.6z M9,17.8h1.2v-1.3H9V17.8
			z M4,15.5h6.1v-1.3H4V15.5z M5.6,13.3v-1.2h0.7v0c-0.5-0.2-0.8-0.7-0.8-1.1c0-1,0.4-1.8,1.6-1.8h3v1.2H7.4c-0.4,0-0.9,0.1-0.9,0.8
			c0,0.7,0.4,0.9,0.8,0.9h2.8v1.2C10.1,13.3,5.6,13.3,5.6,13.3z M5.6,5.4h0.7C5.9,5.7,5.6,5.9,5.5,6.6c0,0.6,0.3,1.1,0.5,1.3
			c0.9,0.9,2.9,0.9,3.8,0.1c0.4-0.4,0.5-0.7,0.5-1.3c0-0.6-0.3-0.9-0.7-1.2h0.6c0.5,0,0.9,0.5,0.9,1c0,0.5-0.3,0.8-0.5,0.8v1.2
			c0.7,0,1.3-0.7,1.3-1.9c0-0.9-0.2-1.3-0.4-1.6c-0.3-0.4-0.8-0.7-1.4-0.7H5.6V5.4L5.6,5.4z M6.7,6.5c0-0.3,0.1-0.6,0.5-0.8
			c0.2-0.1,0.5-0.2,0.9-0.2S8.8,5.6,9,5.7c0.4,0.2,0.5,0.5,0.5,0.8S9.3,7.1,9,7.3C8.7,7.5,8.4,7.6,8.1,7.6c-0.3,0-0.6-0.1-0.9-0.2
			C6.8,7.1,6.7,6.8,6.7,6.5z M9,3.3h1.2V2H9V3.3z"/>
	</g>
	<g>
		<path class="st2" d="M9.3,40v6.5c0,2.8-2.2,4-4.7,4c-2.5,0-4.6-1.1-4.7-4V40h2.7v6.3c0,1.3,0.7,2.1,2,2.1s1.9-0.8,2-2.1V40H9.3z
			 M13.9,44.1c0.6-0.7,1.3-1,2.1-1c1.5,0,2.5,1,2.5,2.6v4.8H16v-4.2c0-0.7-0.2-1.4-1-1.4c-1.3,0-1.1,1.5-1.1,1.5v4.1h-2.6v-5.3
			c0-0.6,0-1.1-0.1-1.8h2.6C13.9,43.4,13.9,44.1,13.9,44.1z M25.1,50.2h2.5V40H25v3.9h0c-0.5-0.7-1.4-1-2.2-1c-2,0-2.9,1.9-2.9,3.8
			c0,1.8,0.9,3.7,2.8,3.7c1,0,1.9-0.4,2.3-1.3H25C25,49.2,25.1,50.2,25.1,50.2z M23.8,44.7c1.1,0,1.3,1.3,1.3,2.2
			c0,0.9-0.2,2.2-1.3,2.2s-1.3-1.3-1.3-2.2C22.5,46,22.7,44.7,23.8,44.7z M40.7,47.4c0-2.6-0.9-4.3-3.6-4.3c-2,0-3.6,1.3-3.6,3.5
			c0,2.8,1.1,4,3.8,4c0.8,0,1.6-0.2,2.1-0.6c0.6-0.4,1.2-1.1,1.3-2h-2.4c-0.1,0.7-0.5,1-1.3,1c-1,0-1.2-0.8-1.2-1.7L40.7,47.4
			L40.7,47.4z M35.7,45.8c0.1-0.8,0.3-1.5,1.2-1.5c0.4,0,0.7,0.2,0.9,0.5c0.2,0.3,0.3,0.7,0.3,1.1L35.7,45.8L35.7,45.8z M45.6,45.5
			c0-0.2,0-0.5-0.2-0.6c-0.1-0.2-0.4-0.3-0.7-0.3c-0.4,0-0.6,0.2-0.6,0.6c0,0.5,1,0.5,2.6,1c0.8,0.3,1.4,0.8,1.4,2
			c0,1.9-1.7,2.4-3.2,2.4c-1.7,0-3.3-0.4-3.3-2.5h2.4c0,0.2,0,0.5,0.2,0.6c0.1,0.2,0.4,0.3,0.6,0.3c0.5,0,0.9-0.2,0.9-0.7
			c0-1.3-4-0.5-4-3.1c0-1.8,1.8-2.2,3.1-2.2c1.6,0,3.1,0.4,3.2,2.4C48.1,45.5,45.6,45.5,45.6,45.5z M54.6,50.4V45h-1.3v-1.7h1.3
			c-0.1-2.4,0.5-3.3,2.8-3.3c0.5,0,0.9,0.1,1.4,0.2v1.7c-0.2-0.1-0.5-0.2-0.7-0.2c-0.9,0-1,0.8-0.9,1.6h1.6V45h-1.6v5.4L54.6,50.4
			L54.6,50.4z M64.7,49.5c-0.6,0.7-1.3,1-2.1,1c-1.5,0-2.5-1-2.5-2.6v-4.8h2.6v4.2c0,0.7,0.2,1.4,1,1.4c1.3,0,1.1-1.5,1.1-1.5v-4.1
			h2.6v5.3c0,0.6,0,1.1,0.1,1.8h-2.6L64.7,49.5L64.7,49.5z M71.7,44.1c0.6-0.7,1.3-1,2.1-1c1.5,0,2.5,1,2.5,2.6v4.8h-2.6v-4.2
			c0-0.7-0.2-1.4-1-1.4c-1.3,0-1.1,1.5-1.1,1.5v4.1h-2.6v-5.3c0-0.6,0-1.1-0.1-1.8h2.6L71.7,44.1L71.7,44.1z M80.7,46.3l2.3-3.1h2.8
			l-2.3,3l2.6,4.1h-3C83.1,50.2,80.7,46.3,80.7,46.3z M78.1,50.2h2.6V40h-2.6C78.1,40,78.1,50.2,78.1,50.2z M87.7,43.3v-1.1l2.6-1
			v2.1h1.5V45h-1.5v2.8c0,0.2-0.1,1.1,0.5,1.1c0.3,0,0.7,0,1,0v1.6c-0.5,0.1-0.9,0.1-1.4,0.1c-1.7,0-2.8-0.3-2.7-2.4V45h-1.3v-1.7
			L87.7,43.3L87.7,43.3z M93.1,41.9h2.6V40h-2.6L93.1,41.9L93.1,41.9z M93.1,50.2h2.6v-7.1h-2.6L93.1,50.2L93.1,50.2z M101.2,43.1
			c-2.1,0-3.9,1.1-3.9,3.8c0,2.6,1.8,3.8,3.9,3.8c2.1,0,3.9-1.1,3.9-3.8C105.1,44.3,103.3,43.1,101.2,43.1 M99.8,46.9
			c0-1,0.2-2.2,1.3-2.2c1.1,0,1.3,1.2,1.3,2.2s-0.2,2.2-1.3,2.2C100.1,49.1,99.8,47.9,99.8,46.9 M109.2,44.1c0.6-0.7,1.3-1,2.1-1
			c1.5,0,2.5,1,2.5,2.6v4.8h-2.6v-4.2c0-0.7-0.2-1.4-1-1.4c-1.3,0-1.1,1.5-1.1,1.5v4.1h-2.6v-5.3c0-0.6,0-1.1-0.1-1.8h2.6
			L109.2,44.1z M115.6,41.9h2.6V40h-2.6V41.9z M115.6,50.2h2.6v-7.1h-2.6V50.2z M127,47.4c0-2.6-0.9-4.3-3.6-4.3
			c-2,0-3.6,1.3-3.6,3.5c0,2.8,1.1,4,3.8,4c0.8,0,1.6-0.2,2.1-0.6c0.6-0.4,1.2-1.1,1.3-2h-2.4c-0.1,0.7-0.5,1-1.3,1
			c-1,0-1.2-0.8-1.2-1.7L127,47.4L127,47.4z M122,45.8c0.1-0.8,0.3-1.5,1.2-1.5c0.4,0,0.7,0.2,0.9,0.5c0.2,0.3,0.3,0.7,0.3,1.1
			L122,45.8L122,45.8z M131,44.7L131,44.7c0.3-1.2,1.2-1.6,2.3-1.5v2.3c-0.2,0-0.4,0-0.5,0c-1.3,0-1.8,0.8-1.8,2.2v2.8h-2.6v-5.3
			c0-0.6,0-1.1-0.1-1.8h2.6L131,44.7z M134.9,43.3v-1.1l2.6-1v2.1h1.5V45h-1.5v2.8c0,0.2-0.1,1.1,0.5,1.1c0.3,0,0.7,0,1,0v1.6
			c-0.5,0.1-0.9,0.1-1.4,0.1c-1.7,0-2.8-0.3-2.7-2.4V45h-1.3v-1.7L134.9,43.3L134.9,43.3z M140.4,50.4h2.4v-2.1h-2.4V50.4z"/>
	</g>
</g>
</svg>
