<svg height="126" viewBox="0 0 102 126" width="102" xmlns="http://www.w3.org/2000/svg" xmlns:xlink="http://www.w3.org/1999/xlink"><mask id="a" fill="#fff"><path d="m.0457732.21152727h73.5132783v83.78847273h-73.5132783z" fill="#fff" fill-rule="evenodd"/></mask><g fill="none" fill-rule="evenodd"><path d="m3 51h98v-13h-98z" fill="#1f1f1f"/><path d="m35.8632254 46.9628788c-.0907447.225-.2183134.4136364-.3807332.5666667-.1630774.1530303-.3577182.2689393-.5832648.35-.2262042.080303-.4767385.1204545-.7516029.1204545-.3853362 0-.7640966-.0765152-1.1356238-.2287879-.3708697-.1530303-.7082032-.3878788-1.0120007-.7045454l.6582278-.9083334c.2308072.2166667.4688477.389394.7121487.5166667.243301.1280303.5102745.1916667.7996054.1916667.2314648 0 .4109814-.0484849.5385501-.1454546.1275686-.0969697.1920105-.2325757.1920105-.4045454v-.0166667c0-.0833333-.013809-.1568182-.0401118-.2204545-.0269604-.0636364-.0775933-.1234849-.1518987-.1795455-.0756206-.055303-.1795167-.1106061-.3123459-.1666667-.1328292-.055303-.3057702-.1136363-.518823-.175-.2557948-.0719697-.4879171-.1522727-.6957093-.2416666-.2084498-.0886364-.3846786-.1984849-.5293441-.3287879-.145323-.130303-.2577675-.2931818-.3373335-.4878788-.0802236-.1939394-.1196778-.4356061-.1196778-.725v-.0166667c0-.2666666.042742-.5068181.1288837-.7204545.0861418-.2136364.2071347-.3992424.3629788-.5545455.1558442-.155303.3419366-.275.5576196-.3583333.2163407-.0833333.4550387-.125.7154365-.125.3708696 0 .7121486.0643939 1.0231794.1916667.3110307.1280303.5970738.3113636.8574716.55l-.5786619.9666666c-.2268617-.1772727-.4484629-.3174242-.6654611-.4204545s-.4346539-.1545455-.6509945-.1545455c-.2169982 0-.3800757.0492425-.4885748.1462122s-.1624198.2181818-.1624198.3621212v.0166666c0 .094697.0157817.1765152.0466875.2462122.0315633.0696969.0881144.1318181.1709682.1871212.0821963.0560606.1946408.1083333.336676.1583333.1426928.05.322867.1083333.5405228.175.2564524.0780303.4846293.1659091.6851882.2621212.200559.0977273.3702121.214394.5083018.3507576.1374322.1363636.2413283.2954545.3116884.4787879.0697024.1840909.1052112.4030303.1052112.6583333v.0166667c0 .2893939-.0453723.5462121-.1367746.7712121" fill="#fffffe"/><path d="m38 48v-6h3.962406v1.1742857h-2.8195489v1.2171429h2.4812031v1.1742857h-2.4812031v1.26h2.8571429v1.1742857z" fill="#fffffe"/><path d="m44 48h1v-6h-1z" fill="#fffffe"/><path d="m49.1645768 43.2171429v4.7828571h-1.3283699v-4.7828571h-1.8362069v-1.2171429h5v1.2171429z" fill="#fffffe"/><path d="m55.9705882 42h1.0294118v6h-1.4901961v-4.6723404l-1.1960784.2553191-.3137255-1.0723404z" fill="#fffffe"/><path d="m58.5066163 42h3.2582918v1.1376404h-2.2601822l-.0598041 1.019663c.1051727-.0275792.2110328-.0513279.3168929-.0712462.1065476-.0199183.231655-.0298774.3780719-.0298774.2619006 0 .5059288.0367722.7313971.1095505.2247809.0727784.4206909.1853933.5884173.3370787.167039.1516854.2997078.3470378.3959443.5860572.0962365.2382533.1443547.5263023.1443547.863381 0 .3148621-.0481182.5990807-.1443547.8511236-.0962365.252809-.2316549.4680797-.4069428.645046-.1752878.1769662-.3883829.3133299-.6379103.4083248-.2502148.095761-.5272383.1432584-.8290084.1432584-.4289397 0-.8015123-.0773749-1.11978-.2344229-.3175804-.1555158-.604915-.3707865-.8620038-.6435138l.7032136-.9338611c.2014092.2022472.4035058.3600613.6049149.4719102.2014092.1126149.4213783.1685393.657845.1685393.2722118 0 .4880564-.0704801.6468466-.2114403.1587901-.1409601.2378415-.3470378.2378415-.6182329 0-.2604698-.0845506-.4604187-.2529644-.6013789-.1691012-.1409602-.3973191-.2122063-.6846537-.2122063-.1663516 0-.3230796.0214504-.4722461.0635852-.1484791.0421349-.2859598.0942289-.412442.1555159l-.6722805-.497191z" fill="#fffffe"/><path d="m64.5066163 42h3.2576044v1.1376404h-2.2594948l-.0604915 1.019663c.1051727-.0275792.2117202-.0513279.3175803-.0712462.1058602-.0199183.231655-.0298774.3780719-.0298774.2619006 0 .5052414.0367722.7307097.1095505.2247809.0727784.4213783.1853933.5891047.3370787.167039.1516854.2990204.3470378.3959443.5860572.0962365.2382533.1443547.5263023.1443547.863381 0 .3148621-.0481182.5990807-.1443547.8511236-.0969239.252809-.2323423.4680797-.4076302.645046-.1752878.1769662-.3876955.3133299-.6379103.4083248-.2502148.095761-.5265509.1432584-.8290084.1432584-.4289397 0-.8015123-.0773749-1.11978-.2344229-.316893-.1555158-.6042276-.3707865-.8613164-.6435138l.7032136-.9338611c.2014092.2022472.4035058.3600613.6049149.4719102.2014092.1126149.4206909.1685393.657845.1685393.2715244 0 .4880564-.0704801.6461592-.2114403.1594775-.1409601.2385289-.3470378.2385289-.6182329 0-.2604698-.0845506-.4604187-.2529644-.6013789-.1691012-.1409602-.3973191-.2122063-.6846537-.2122063-.1663516 0-.323767.0214504-.4729335.0635852-.1484791.0421349-.2859598.0942289-.4117546.1555159l-.6729679-.497191z" fill="#fffffe"/><g transform="translate(0 42)"><path d="m71.9669072 1.57232727c-.1823299-.168-.4363711-.252-.7621237-.252-.3204124 0-.5675876.08323637-.7415258.24818182-.1739381.16494546-.2616701.38181818-.2616701.65061818s.0915464.48414546.2738763.6468c.1823299.16265455.4340825.2436.7544949.2436.3204123 0 .5683505-.08247272.7461031-.24741818.1762268-.16494545.2647216-.37647273.2647216-.63458182 0-.2688-.0915464-.4872-.2738763-.6552zm1.4235464 2.81858182c-.1113814.3948-.2754021.73232727-.4905361 1.01181818-.2158969.28025455-.4821443.49865455-.8010309.65596364-.3188866.15654545-.6888866.23443636-1.1077113.23443636-.4317939 0-.7972165-.06338182-1.1000825-.19167272-.3013402-.12752728-.5790309-.29476364-.8307835-.50018182l.6797319-.97974546c.2128454.17410909.417299.30163637.6133609.38258182.1952989.08094546.4195876.12141818.6713402.12141818.363134 0 .6408247-.12370909.8345979-.37189091.1930103-.24741818.3120206-.57196363.356268-.97210909-.1449484.12370909-.315835.22145455-.5118969.294-.1960618.07330909-.4218762.1092-.678969.1092-.3188866 0-.6072578-.04276363-.8643505-.12981818-.2578557-.08705454-.4783299-.21152727-.6629485-.37418182-.1853814-.16189091-.3265155-.3612-.4241649-.5964-.0984124-.2352-.1464743-.504-.1464743-.8064 0-.29629091.054165-.5712.1624949-.8232.1098556-.252.2616701-.4704.4577319-.6552.1960619-.1848.4317938-.32836363.7094846-.43221818.2769278-.10385454.5805567-.15578182.9101237-.15578182.1960618 0 .3738144.01298182.5332577.03741819.1594433.02596363.3066804.06338181.4409485.11378181.1335051.0504.2593814.11607273.3776288.19778182.1167217.08094546.2311547.17792727.3440619.28941818.1052783.10690909.2006392.2268.2853196.3612.0831546.1344.1563917.29170909.2174227.4704.0617938.17945455.1098556.38334546.1426597.6132.0335671.22985455.0511134.49025455.0511134.7812 0 .48185455-.0564536.92018182-.1685979 1.31498182z" fill="#fffffe" mask="url(#a)"/><path d="m3.90979381 28.6363636v-12.6h45.19340209v11.0727273l-16.966598 16.1318182c2.2886598.3818182 4.520866.9873818 6.6958557 1.8136364 2.1757526.8277818 4.0951753 1.9892727 5.7590309 3.483709 1.6630928 1.4959637 3.007299 3.3409091 4.0318557 5.5363637 1.0237938 2.1954545 1.5364536 4.8536727 1.5364536 7.9708363 0 3.1828364-.5599587 6.109091-1.6806392 8.7818182-1.1206804 2.6727273-2.7196907 4.9964728-4.7993195 6.9681818-2.0803918 1.9732364-4.6192784 3.5005091-7.6174227 4.5818182-2.9989072 1.0813091-6.3426392 1.6227273-10.0289072 1.6227273-6.0405361 0-11.1732372-1.0736727-15.4003918-3.2202545-4.22868041-2.1473455-7.77228866-4.9514182-10.6331134-8.4137455l10.1082474-9.6523636c2.2886598 2.6101091 4.6879382 4.5978545 7.2001237 5.9655272 2.5106598 1.3692 5.482866 2.0526546 8.9158557 2.0526546 2.7967423 0 5.0693814-.7292727 6.8186804-2.1893455 1.7477732-1.4600727 2.6220413-3.4608 2.6220413-6.0021818 0-2.7918545-1.1290722-4.9185818-3.3849279-6.3801818-2.2573814-1.4600727-5.4836288-2.1908727-9.6795051-2.1908727h-6.1030928l-2.2886598-9.3324 15.9252577-16.0004728z" fill="#1f1f1f" mask="url(#a)"/></g><g fill="#1f1f1f"><path d="m54 58h48v11.1028571l-29.9047619 55.8971429h-16.5714286l29.8095238-54.27h-31.3333333z"/><path d="m4 16v-16h3.36759108v12.8226618h7.63240892v3.1773382z"/><path d="m28.3212628 8.00037777c0-.6633612-.1179633-1.28894556-.35389-1.87826416-.2359266-.5893186-.5710675-1.10535014-1.0054225-1.54733909-.4343551-.44198895-.9483939-.79180243-1.5421167-1.04944043-.5945039-.257638-1.2421304-.38683477-1.9428794-.38683477-.7155921 0-1.3671247.12466355-1.9530353.37550172-.5866918.25083817-1.0897936.59611843-1.5085244 1.03886292-.419512.44198895-.7468407.95424281-.9827673 1.53600604-.2359267.58176323-.35389 1.20432545-.35389 1.8669311v.04457667c0 .66260566.1179633 1.28894555.35389 1.87826415.2359266.58931858.5718487 1.10535018 1.0054225 1.54733908.4343551.441989.9444879.7918024 1.5311797 1.0494404.5859105.2576381 1.2374431.3860793 1.9538164.3860793.7007491 0 1.3475943-.1246636 1.9420983-.3755017.5937227-.2500827 1.1007306-.5961185 1.5194614-1.0381074.4187307-.441989.7468407-.9542428.9827673-1.53600606.2359267-.58176324.35389-1.20432545.35389-1.86768664zm3.0397041 3.10450013c-.4265429.9655759-1.0171408 1.8125325-1.7710124 2.5416254s-1.653049 1.3040563-2.6967511 1.7241347c-1.043702.4193228-2.1819309.629362-3.4162492.629362-1.2335371 0-2.3686412-.2100392-3.4045311-.629362-1.0358899-.4200784-1.93038-.9874865-2.6850328-1.7022242-.7538716-.7147376-1.3405634-1.5541389-1.7592942-2.5189592-.4195119-.9648203-.6280961-1.99990556-.6280961-3.1052557v-.04382113c0-1.10535015.2132714-2.14043538.6398143-3.1052557.4257617-.96482033 1.0163596-1.81177693 1.7710124-2.54162535.7538716-.72909289 1.6522678-1.30330075 2.6959699-1.72337914 1.0429208-.42007839 2.1819309-.63011758 3.4162492-.63011758 1.2335371 0 2.3686412.21003919 3.4045311.63011758s1.9311612.98748642 2.6850328 1.70146857c.7538716.71473769 1.3405634 1.55489447 1.7592942 2.51895925.4187307.96557586.6280961 2.0006611.6280961 3.1052557v.04457667c0 1.10459461-.2132714 2.13967983-.6390331 3.10450013z"/><path d="m42.9341992 16-4.7691069-6.81103785-1.7808072 1.91999995v4.8910379h-3.3842851v-16h3.3842851v6.99467643l6.241842-6.99467643h4.0883426l-6.2643838 6.78915751 6.5499141 9.21084249z"/><path d="m55.4537873 4.19843849-2.1296996 5.15202948h4.2609657zm4.8578142 11.80156151-1.4662734-3.5629698h-6.7822982l-1.4654903 3.5629698h-3.5975396l6.873157-16h3.253686l6.873157 16z"/><path d="m64 16v-16h3.3681098v12.8226618h7.6318902v3.1773382z"/><path d="m77 16v-16h10.8967933v3.13123321h-7.7539362v3.24610501h6.8236618v3.13123321h-6.8236618v3.36019537h7.8571429v3.1312332z"/><path d="m100.589763 13.2330484c-.272997.60019-.6535612 1.1038937-1.1424336 1.5111111-.4888724.4072175-1.0727003.7187085-1.75.9329535-.6772997.2150048-1.4280416.322887-2.2529674.322887-1.15727 0-2.2930267-.2036087-3.4065282-.6108262-1.1135015-.4079772-2.1268546-1.0339981-3.0378338-1.8780627l1.9747774-2.422792c.6936202.5781576 1.4065282 1.0377968 2.1372404 1.3781576.7299703.3403609 1.5296736.5113011 2.3976261.5113011.694362 0 1.2329377-.1299146 1.6164689-.3889839.3827893-.2590693.5749258-.6184235.5749258-1.0780627v-.0440645c0-.2226021-.0393175-.4186135-.1194362-.5895537-.0801187-.1694207-.2321959-.3289649-.4569733-.477113-.2247775-.1481481-.537092-.2962963-.93546-.44444444-.3991098-.14814815-.9176557-.30389364-1.5548961-.46723647-.7700297-.19221273-1.4658754-.40721748-2.0897626-.64425451-.6238873-.23627731-1.1535608-.52953467-1.5882789-.87749288s-.7722552-.78100665-1.0111276-1.30066477c-.2396143-.51813865-.3590505-1.16239316-.3590505-1.93276353v-.04482431c0-.71111111.1290801-1.35156695.3872404-1.92212726.258902-.56980057.6216617-1.06286799 1.0890207-1.47768281.4673591-.41481481 1.0252226-.7331434 1.6735905-.95498575.648368-.22260209 1.3635015-.33352327 2.1446588-.33352327 1.1135015 0 2.1364985.17018044 3.0697329.51054131.9332345.34112061 1.7900594.83038936 2.5719583 1.46704653l-1.7359049 2.57777778c-.680267-.47407407-1.3449554-.84786325-1.9962908-1.12212725-.6513353-.27426401-1.3019287-.41101615-1.953264-.41101615-.6505935 0-1.1387241.12991453-1.4643917.38822412-.3256677.25982906-.4881306.58195632-.4881306.9671415v.04406458c0 .25223172.0474777.47103514.1416914.65565052.0934718.18537512.2640949.35251662.5111276.49990504.2462908.14890788.583086.28945869 1.0111276.42241215.4280415.1337132.9681009.28869896 1.6216617.46647674.768546.20816714 1.4532641.4414055 2.055638.70047483.601632.25906933 1.1090504.5705603 1.522997.93295347.4132047.36315289.7255197.78936372.9354597 1.27787274.209941.48926876.316024 1.07426399.316024 1.75574549v.0448243c0 .7703704-.13724 1.4556505-.410237 2.0550807"/><path d="m21.5993626 34h-3.0286837l-3.5710652-10.3651838-3.5702926 10.3651838h-3.02791106l-5.40141004-15.9551257h3.72868042l3.27669578 10.7272727 3.5478865-10.772147h2.9838715l3.5478866 10.772147 3.2766957-10.7272727h3.6382835z"/><path d="m33.4541768 22.1984385-2.130581 5.1520295h4.2611621zm4.8572548 11.8015615-1.4663411-3.5629698h-6.7818274l-1.466341 3.5629698h-3.5969221l6.8734737-16h3.2530526l6.8734737 16z"/><path d="m54.5897626 31.2330484c-.272997.60019-.6535608 1.1038937-1.1424332 1.5111111-.4888724.4079773-1.0719585.7187085-1.7492582.9329535-.6772997.2150048-1.4287834.322887-2.2529673.322887-1.1580119 0-2.2930267-.2036087-3.4072701-.6108262-1.1135015-.4079772-2.1261127-1.0339981-3.0378338-1.8780627l1.9747774-2.4220323c.6943621.5773979 1.4065282 1.0370371 2.1372404 1.3773979.7307122.3411206 1.5296736.5113011 2.398368.5113011.6936201 0 1.2329376-.1299146 1.615727-.3889839.3835311-.2590693.5756676-.6184235.5756676-1.0780627v-.0440645c0-.2218424-.0400593-.4186135-.1194362-.588794-.0801187-.1701804-.2329377-.3297246-.4577151-.4778727-.2247775-.1481481-.5363502-.2962963-.9347181-.4444444-.3991098-.1481482-.9176558-.3038937-1.555638-.4664768-.7692878-.1922127-1.4651335-.4079772-2.0890208-.6450142-.6238872-.2362773-1.1535608-.528775-1.5882789-.8774929-.4354599-.3479582-.7722552-.7810066-1.0118694-1.299905-.2396143-.5181387-.3590505-1.1631529-.3590505-1.9335233v-.0440646c0-.7111111.1290801-1.3523267.3879822-1.922887.2589021-.5698005.6216617-1.0621082 1.0882789-1.476923.4673591-.4148149 1.0252226-.7339032 1.6735905-.9557455.648368-.2226021 1.3635015-.3335233 2.1446588-.3335233 1.1135015 0 2.1379822.1701804 3.0704748.511301.9332344.3403609 1.7900593.8296297 2.5712166 1.4662868l-1.7351632 2.5777778c-.6802671-.4740741-1.3456973-.8478632-1.9970327-1.1221272-.6513353-.274264-1.3019287-.4110162-1.9525222-.4110162-.6513353 0-1.1394659.1299146-1.4651335.3889839-.3249259.2590693-.4881306.5811966-.4881306.9663817v.0448244c0 .2522317.0474777.4702754.1416914.6548907.0942136.1861349.2640949.3525167.5111276.5006648.2470326.1481482.5838279.288699 1.0118694.4216524.4280416.1337132.9673591.2894587 1.6201781.4672365.7692878.2074074 1.4547477.4406458 2.0571216.6997151.6008902.2590693 1.1090505.5705603 1.5222552.9329535.4132048.3631529.7255193.7893637.93546 1.2786324.2099406.4885091.3160237 1.0742641.3160237 1.7549858v.0448243c0 .7703704-.1372404 1.4556505-.4102374 2.0550807"/><path d="m69.5897626 31.2330484c-.272997.60019-.6535608 1.1038937-1.1424332 1.5111111-.4888724.4079773-1.0719585.7187085-1.7492582.9329535-.6772997.2150048-1.4287834.322887-2.2529673.322887-1.1580119 0-2.2930267-.2036087-3.4065282-.6108262-1.1142434-.4079772-2.1268546-1.0339981-3.0385757-1.8780627l1.9747774-2.4220323c.6943621.5773979 1.4072701 1.0370371 2.1372404 1.3773979.7299703.3411206 1.5296736.5113011 2.3976261.5113011.694362 0 1.2336795-.1299146 1.6164689-.3889839.3835311-.2590693.5756676-.6184235.5756676-1.0780627v-.0440645c0-.2218424-.0400593-.4186135-.120178-.588794-.0801187-.1701804-.2321959-.3297246-.4569733-.4778727-.2247775-.1481481-.5363502-.2962963-.93546-.4444444-.3991098-.1481482-.9176557-.3038937-1.5548961-.4664768-.7692878-.1922127-1.4658754-.4079772-2.0897626-.6450142-.6231454-.2362773-1.152819-.528775-1.5875371-.8774929-.4354599-.3479582-.7722552-.7810066-1.0118694-1.299905-.2396143-.5181387-.3590505-1.1631529-.3590505-1.9335233v-.0440646c0-.7111111.1290801-1.3523267.3879822-1.922887.2581602-.5698005.6209199-1.0621082 1.0882789-1.476923.4673591-.4148149 1.0252226-.7339032 1.6735905-.9557455.648368-.2226021 1.3635015-.3335233 2.1446588-.3335233 1.1142433 0 2.1372404.1701804 3.0697329.511301.9332345.3403609 1.7908012.8296297 2.5719585 1.4662868l-1.7359051 2.5777778c-.680267-.4740741-1.3449554-.8478632-1.9962908-1.1221272-.6513353-.274264-1.3019287-.4110162-1.953264-.4110162-.6505935 0-1.1387241.1299146-1.4636499.3889839-.3264095.2590693-.4888724.5811966-.4888724.9663817v.0448244c0 .2522317.0474777.4702754.1416914.6548907.0942136.1861349.2640949.3525167.5111276.5006648.2462908.1481482.583086.288699 1.0118694.4216524.4280416.1337132.9673591.2894587 1.6209199.4672365.768546.2074074 1.4532641.4406458 2.0563798.6997151.6008902.2590693 1.1090505.5705603 1.5222552.9329535.4132048.3631529.7255193.7893637.93546 1.2786324.2099406.4885091.3160237 1.0742641.3160237 1.7549858v.0448243c0 .7703704-.1372404 1.4556505-.4102374 2.0550807"/><path d="m73 34v-16h10.8974936v3.1320147h-7.7544345v3.2453235h6.8233933v3.1312332h-6.8233933v3.3601954h7.8569409v3.1312332z"/><path d="m97.1963045 23.4630525c0-.7619048-.2291914-1.333138-.6875742-1.7144811-.4583828-.3805616-1.096005-.5712332-1.912132-.5712332h-3.2872803v4.5948718h3.351924c.816127 0 1.443465-.2063004 1.8798102-.6181196.4370797-.4110379.6552523-.9596093.6552523-1.6449329zm-.0639092 10.5369475-3.2233712-5.1192186h-2.5997061v5.1192186h-3.309318v-16h6.8764762c1.7894559 0 3.1829689.4649573 4.1783353 1.3940904.9961015.9299145 1.4934175 2.2255433 1.4934175 3.886105v.046105c0 1.2948473-.297509 2.3505738-.8917901 3.1656166-.5942815.8150427-1.3714753 1.4136263-2.330847 1.794188l3.6744081 5.713895z"/></g></g></svg>