<svg height="32" viewBox="0 0 228 32" width="228" xmlns="http://www.w3.org/2000/svg"><g fill="#1f1f1f"><path d="m89.4687721 11.6992352c-.4751736-.5216954-1.0552893-.945271-1.7053047-1.2451405-1.4232819-.60545962-3.0457925-.60545962-4.4690744 0-.6659964.3016098-1.265048.7244316-1.7641083 1.2451405-.5065648.5387467-.8875131 1.1755687-1.1172686 1.8677107-.2890806.7609625-.4286604 1.5670189-.4116253 2.3770864-.0166453.8284985.1228157 1.6530446.4116253 2.4336836.2306575.7086904.6110399 1.3638354 1.1172686 1.924308.4751736.5216955 1.0552892.9452711 1.7053047 1.2451405.703002.3018991 1.4647409.4562483 2.2345372.4528356.7875143-.0082797 1.5660605-.1619894 2.2933408-.4528356.6500154-.2998694 1.2301311-.723445 1.7053047-1.2451405.4757463-.5805728.8528501-1.230071 1.1172686-1.924308.2944398-.7792356.4340726-1.6047972.4116252-2.4336836.0170352-.8100675-.1225446-1.6161239-.4116252-2.3770864-.2297555-.692142-.6107038-1.328964-1.1172686-1.8677107z"/><path d="m225.356033 0h-222.71206557s-2.64396743 0-2.64396743 2.63859649v26.72280701s0 2.6385965 2.64396743 2.6385965h222.71206557s2.643967 0 2.643967-2.6385965v-26.72280701s0-2.63859649-2.643967-2.63859649zm-196.4974098 26.2736842c.0045764.101676-.03233.2008627-.1022935.2749157-.0699635.0740529-.1670112.1166502-.268987.1180668h-4.6916358c-.1018829.0045671-.2012716-.0322644-.2754753-.1020858-.0742037-.0698213-.1168877-.1666719-.1183071-.2684405l.1125093-12.4631579-4.4441155 12.5529824c-.0576885.1679162-.2159097.2807018-.3937824.2807018h-3.3190229c-.1778728 0-.336094-.1127856-.3937824-.2807018l-4.2753516-12.5192982.1125092 12.4070175c.0045764.101676-.03233.2008627-.1022935.2749157-.0699635.0740529-.1670112.1166502-.268987.1180668h-4.5003701c-.10188293.0045671-.20127157-.0322644-.27547526-.1020858-.07420368-.0698213-.11688768-.1666719-.11830712-.2684405v-20.62596496c-.0045764-.10167597.03233005-.20086271.10229353-.27491566.06996347-.07405295.16701122-.11665024.268987-.1180668h6.75055515c.1778727 0 .3360939.11278557.3937824.28070176l4.1628423 12.23859646 3.9940785-12.23859646c.0576884-.16791619.2159096-.28070176.3937824-.28070176h6.8630644c.1018829-.0045671.2012715.03226438.2754752.10208573.0742037.06982136.1168877.16667196.1183071.26844059zm17.8327165 0c.0045764.101676-.03233.2008627-.1022935.2749157-.0699635.0740529-.1670112.1166502-.268987.1180668h-13.8048853c-.1018829.0045671-.2012715-.0322644-.2754752-.1020858-.0742037-.0698213-.1168877-.1666719-.1183071-.2684405v-20.62596496c-.0045764-.10167597.03233-.20086271.1022935-.27491566s.1670112-.11665024.268987-.1180668h13.2985936c.101883-.0045671.2012716.03226438.2754753.10208573.0742037.06982136.1168877.16667196.1183071.26844059v4.23298245c.0045764.10167597-.03233.20086275-.1022935.27491565-.0699635.074053-.1670112.1166503-.268987.1180668h-8.2919319v3.0877193h7.819393c.101883-.0045671.2012716.0322644.2754753.1020857.0742037.0698214.1168877.166672.1183071.2684406v4.0084211c.0045764.1016759-.0323301.2008627-.1022935.2749156-.0699635.074053-.1670112.1166503-.268987.1180668h-7.8418949v3.4807018h8.7757217c.1018829-.0045671.2012715.0322644.2754752.1020857.0742037.0698214.1168877.166672.1183071.2684406zm25.7083642 0c.0045764.101676-.03233.2008627-.1022935.2749157-.0699635.0740529-.1670112.1166502-.268987.1180668h-4.6916358c-.101883.0045671-.2012716-.0322644-.2754753-.1020858-.0742037-.0698213-.1168877-.1666719-.1183071-.2684405l.1125092-12.4631579-4.4441154 12.5529824c-.0576885.1679162-.2159097.2807018-.3937824.2807018h-3.319023c-.1778727 0-.3360939-.1127856-.3937823-.2807018l-4.2753516-12.5192982.1125092 12.4070175c.0045764.101676-.03233.2008627-.1022935.2749157-.0699635.0740529-.1670112.1166502-.268987.1180668h-4.5003701c-.1018829.0045671-.2012716-.0322644-.2754753-.1020858-.0742037-.0698213-.1168877-.1666719-.1183071-.2684405v-20.62596496c-.0045764-.10167597.0323301-.20086271.1022935-.27491566.0699635-.07405295.1670113-.11665024.268987-.1180668h6.7505552c.1778727 0 .3360939.11278557.3937824.28070176l4.1628423 12.23859646 3.9378238-12.23859646c.0576885-.16791619.2159097-.28070176.3937824-.28070176h6.919319c.101883-.0045671.2012716.03226438.2754753.10208573.0742037.06982136.1168877.16667196.1183071.26844059zm23.7394523-5.7824561c-.4896822 1.3548289-1.2778725 2.5826754-2.3064397 3.5929824-1.0159659.9951262-2.2208881 1.777689-3.5440414 2.3017544-1.4226718.5239367-2.9276703.7901035-4.4441155.7859649-1.5192106.0382613-3.0305965-.2290351-4.4441155-.7859649-1.3328511-.5051842-2.5414472-1.2901331-3.5440414-2.3017544-.9898097-1.0411396-1.7724892-2.2604013-2.3064397-3.5929824-.579802-1.4647893-.8664726-3.0287382-.8438194-4.6035088-.0226532-1.5747706.2640174-3.1387195.8438194-4.6035088.5198259-1.33672048 1.3262199-2.54385426 2.3626943-3.53684208 1.0189269-.9775978 2.224063-1.74120922 3.5440414-2.24561403 1.4017079-.5291731 2.8892427-.79562415 4.3878609-.78596492 1.5164452-.00413862 3.0214437.2620282 4.4441155.78596492 1.3199784.50440481 2.5251145 1.26801623 3.5440414 2.24561403 1.0403405.97860178 1.8311391 2.19126294 2.3064397 3.53684208.579802 1.4647893.8664725 3.0287382.8438194 4.6035088.0165234 1.574254-.2699335 3.1370371-.8438194 4.6035088zm9.9570688-2.3017544c.004576.101676-.03233.2008627-.102294.2749156-.069963.074053-.167011.1166503-.268987.1180668h-6.4917834c-.1018829.0045671-.2012716-.0322643-.2754752-.1020857-.0742037-.0698213-.1168877-.1666719-.1183072-.2684406v-3.7838596c-.0045764-.101676.0323301-.2008627.1022936-.2749157.0699634-.0740529.1670112-.1166502.268987-.1180668h6.4917842c.212661.0111929.382566.1807533.393782.3929825zm7.988157 8.0842105c.004576.101676-.03233.2008627-.102294.2749157-.069963.0740529-.167011.1166502-.268987.1180668h-4.804145c-.101883.0045671-.201271-.0322644-.275475-.1020858-.074204-.0698213-.116888-.1666719-.118307-.2684405v-20.62596496c-.004576-.10167597.03233-.20086271.102293-.27491566.069964-.07405295.167012-.11665024.268987-.1180668h4.804146c.101882-.0045671.201271.03226438.275475.10208573.074204.06982136.116887.16667196.118307.26844059zm21.995559 0c.004576.101676-.03233.2008627-.102294.2749157-.069963.0740529-.167011.1166502-.268987.1180668h-5.422946c-.133666.0037859-.260363-.0594337-.337527-.1684211l-7.313102-12.3508772.112509 12.1263158c.004577.101676-.03233.2008627-.102293.2749157-.069964.0740529-.167011.1166502-.268987.1180668h-4.635381c-.101883.0045671-.201272-.0322644-.275476-.1020858-.074203-.0698213-.116887-.1666719-.118307-.2684405v-20.62596496c-.004576-.10167597.03233-.20086271.102294-.27491566.069963-.07405295.167011-.11665024.268987-.1180668h5.4792c.133667-.00378597.260363.05943365.337528.16842106l7.256847 12.35087716-.112509-12.12631576c-.004577-.10167597.03233-.20086271.102293-.27491566.069964-.07405295.167011-.11665024.268987-.1180668h4.635381c.101883-.0045671.201272.03226438.275476.10208573.074203.06982136.116887.16667196.118307.26844059zm17.101406-16.28070174c.004577.10167594-.03233.20086274-.102293.27491564-.069964.074053-.167012.1166503-.268987.1180668h-7.875648v3.4245614h7.256847c.101883-.0045671.201271.0322644.275475.1020857.074204.0698214.116888.166672.118307.2684406v4.1207018c.004577.101676-.03233.2008627-.102293.2749156-.069964.074053-.167012.1166503-.268987.1180668h-7.301851v7.5789474c.004576.101676-.03233.2008627-.102293.2749157-.069964.0740529-.167012.1166502-.268987.1180668h-4.747891c-.101883.0045671-.201271-.0322644-.275475-.1020858-.074204-.0698213-.116888-.1666719-.118307-.2684405v-20.62596496c-.004577-.10167597.03233-.20086271.102293-.27491566.069964-.07405295.167011-.11665024.268987-.1180668h13.017321c.230365.02077117.403732.21850315.393782.44912281zm22.783124 10.49824564c-.489682 1.3548289-1.277873 2.5826754-2.30644 3.5929824-1.015966.9951262-2.220888 1.777689-3.544041 2.3017544-1.421213.529293-2.927196.7956339-4.444116.7859649-1.51921.0382613-3.030596-.2290351-4.444115-.7859649-1.332851-.5051842-2.541448-1.2901331-3.544042-2.3017544-1.028803-1.0211156-1.833424-2.2447144-2.362694-3.5929824-.579802-1.4647893-.866473-3.0287382-.843819-4.6035088-.022654-1.5747706.264017-3.1387195.843819-4.6035088.519826-1.33672048 1.32622-2.54385426 2.362694-3.53684208 1.018927-.9775978 2.224063-1.74120922 3.544042-2.24561403 1.401708-.5291731 2.889242-.79562415 4.387861-.78596492 1.516445-.00413862 3.021443.2620282 4.444115.78596492 1.319978.50440481 2.525115 1.26801623 3.544041 2.24561403 1.036475.99298782 1.842869 2.2001216 2.362695 3.53684208.579802 1.4647893.866472 3.0287382.843819 4.6035088.016524 1.574254-.269933 3.1370371-.843819 4.6035088zm6.750555 5.6140351c-.612771.5670905-1.414561.8871551-2.250185.8982456-.423753.0126401-.845427-.0638722-1.237602-.2245614-.377329-.1583612-.72098-.3869966-1.012583-.6736842-.321795-.2731186-.572687-.619801-.73131-1.0105264-.377278-.8196484-.377278-1.7628076 0-2.5824561.157806-.3937391.386607-.7552705.675055-1.0666667.273675-.3211415.621063-.5715232 1.012583-.7298245.388129-.1794855.809866-.2751401 1.237602-.2807018.860372.0237156 1.681687.3635692 2.30644.954386.615325.6310195.958605 1.4774012.956329 2.3578947.017378.8833411-.328169 1.7353122-.956329 2.3578948zm20.532938-2.3578948c-.918324 1.1009464-2.0715 1.9832519-3.375277 2.5824562-1.449272.6506976-3.023845.9764703-4.612879.9543859-1.50051.0327089-2.992412-.2345244-4.387861-.7859649-1.32334-.4916399-2.51639-1.2789892-3.487787-2.3017544-.98981-1.0411396-1.772489-2.2604013-2.30644-3.5929824-.573715-1.4469488-.860297-2.9913467-.843819-4.5473684-.022497-1.5929914.264041-3.1752816.843819-4.6596492.533064-1.3298143 1.337699-2.53431566 2.362695-3.53684208 1.018926-.97759779 2.224063-1.74120922 3.544041-2.24561403 2.76947-1.06648968 5.837487-1.06648968 8.606958 0 1.325028.4841303 2.505586 1.29532222 3.431532 2.35789473.083883.06728057.134947.16713694.140321.27440172s-.035454.21170639-.112194.28700179h-.028127l-3.206514 3.36842107c-.075675.0723265-.176492.1125713-.281273.1122807-.11796.0008427-.226507-.0641535-.281273-.1684211-.388477-.5737264-.935735-1.0223464-1.57513-1.291228-1.344311-.5896341-2.874785-.5896341-4.219096 0-.648264.2801398-1.225056.7022613-1.687639 1.2350877-.465826.5478065-.827992 1.1755542-1.068838 1.8526316-.27655.7548187-.410079 1.5543674-.393783 2.3578947-.021474.8221943.112106 1.6410907.393783 2.4140351.219796.686554.584231 1.3182345 1.068838 1.8526316.95624 1.035246 2.301958 1.6253454 3.712805 1.6280701 1.540695.0296273 2.995417-.706776 3.881569-1.9649122.054766-.1042676.163313-.1692638.281273-.1684211.104782-.0002906.205598.0399542.281274.1122807l3.262768 3.3122807c.157749.1462906.181852.3868357.056254.5614035zm19.407847 2.5263158c.004576.101676-.032331.2008627-.102294.2749157-.069963.0740529-.167011.1166502-.268987.1180668h-4.804145c-.101883.0045671-.201272-.0322644-.275475-.1020858-.074204-.0698213-.116888-.1666719-.118307-.2684405v-8.2189474h-6.91932v8.1964912c.004577.101676-.03233.2008627-.102293.2749157-.069964.0740529-.167011.1166502-.268987.1180668h-4.804145c-.101883.0045671-.201272-.0322644-.275475-.1020858-.074204-.0698213-.116888-.1666719-.118308-.2684405v-20.62596496c-.004576-.10167597.032331-.20086271.102294-.27491566.069964-.07405295.167011-.11665024.268987-.1180668h4.804145c.101883-.0045671.201272.03226438.275475.10208573.074204.06982136.116888.16667196.118307.26844059v7.3768421h6.91932v-7.35438596c-.004577-.10167597.03233-.20086271.102293-.27491566.069964-.07405295.167011-.11665024.268987-.1180668h4.804145c.101883-.0045671.201272.03226438.275475.10208573.074204.06982136.116888.16667196.118308.26844059z"/><path d="m168.600493 11.6992352c-.434297-.5216954-.96451-.945271-1.558609-1.2451405-1.300846-.60545962-2.783784-.60545962-4.08463 0-.585007.3153297-1.112623.7368314-1.558609 1.2451405-.462989.5387467-.811167 1.1755687-1.021158 1.8677107-.264213.7609625-.391786 1.5670189-.376216 2.3770864-.015213.8284985.112251 1.6530446.376216 2.4336836.210816.7086904.558476 1.3638354 1.021158 1.924308.434297.5216955.96451.9452711 1.558609 1.2451405.642527.3018991 1.338739.4562483 2.042315.4528356.702175-.0104467 1.395764-.1642144 2.042315-.4528356.594099-.2998694 1.124312-.723445 1.558609-1.2451405.434821-.5805728.779485-1.230071 1.021158-1.924308.269111-.7792356.396732-1.6047972.376216-2.4336836.015569-.8100675-.112003-1.6161239-.376216-2.3770864-.209991-.692142-.558169-1.328964-1.021158-1.8677107z"/></g></svg>