<?xml version="1.0" encoding="utf-8"?>
<svg id="Ebene_1" data-name="Ebene 1" xmlns="http://www.w3.org/2000/svg" viewBox="0 0 75.98 109.79">
  <defs>
    <style>
      .cls-1 {
        fill: #1a171b;
      }
    </style>
  </defs>
  <path class="cls-1" d="M5.41,69.45a.37.37,0,0,1-.32.41H5c-.4,0-.62-.16-.9-.57L2.64,67.13,1.82,68v1.24l.64.07a.81.81,0,0,1,0,.22.67.67,0,0,1,0,.2H.53a.67.67,0,0,1,0-.2.81.81,0,0,1,0-.22l.74-.07V62.58H.53a.61.61,0,0,1,0-.19.61.61,0,0,1,0-.19A8.42,8.42,0,0,1,1.85,62v5.35h0c.22-.28.56-.7.91-1.1L4,64.8l-.68-.07a.81.81,0,0,1,0-.22.67.67,0,0,1,0-.2h2a.67.67,0,0,1,0,.2.81.81,0,0,1,0,.22l-.65.07L3,66.7,4.56,69a.56.56,0,0,0,.58.31h.27Z"/>
  <path class="cls-1" d="M11.2,69.45c0,.26-.16.41-.46.41a.94.94,0,0,1-1-.53h0a2.7,2.7,0,0,1-1.57.53,1.37,1.37,0,0,1-1.55-1.17,1.93,1.93,0,0,1,0-.24c0-1.11.63-1.58,1.89-1.63H9.77V65a2.79,2.79,0,0,0-1.24-.26A3.52,3.52,0,0,0,7.25,65a1.88,1.88,0,0,1-.07-.53,4.13,4.13,0,0,1,1.35-.2,3.2,3.2,0,0,1,1.78.45V69c0,.23.08.32.38.32h.51ZM9.78,67.23l-1.32.06c-1,0-1.26.36-1.26,1.11s.31.95,1,.95a2.91,2.91,0,0,0,1.56-.52Z"/>
  <path class="cls-1" d="M14.44,69.86c-1,0-1.33-.52-1.33-1.6V64.8h-.67v-.46h.67V63.13a2.05,2.05,0,0,1,.55-.1v1.31H15a3.53,3.53,0,0,1,0,.46H13.7v3.51c0,.77.19,1,.76,1a2,2,0,0,0,.8-.17,1.83,1.83,0,0,1,.09.52A2.23,2.23,0,0,1,14.44,69.86Z"/>
  <path class="cls-1" d="M21.72,69.75H19.77a.67.67,0,0,1,0-.2.81.81,0,0,1,0-.22l.7-.07V65.82a.93.93,0,0,0-.81-1h-.19a2.79,2.79,0,0,0-1.67.55v4l.7.07a.81.81,0,0,1,0,.22.67.67,0,0,1,0,.2h-2a.67.67,0,0,1,0-.2.81.81,0,0,1,0-.22l.74-.07V62.58H16.5a.61.61,0,0,1,0-.19.61.61,0,0,1,0-.19,7.93,7.93,0,0,1,1.28-.2v2.8h0a2.61,2.61,0,0,1,1.71-.6c.8,0,1.52.33,1.52,1.59v3.44l.7.07a.81.81,0,0,1,0,.22A1.77,1.77,0,0,1,21.72,69.75Z"/>
  <path class="cls-1" d="M25.45,69.86c-1.33,0-2.19-.8-2.19-2.82s1-2.81,2.24-2.81,2.18.8,2.18,2.81S26.72,69.86,25.45,69.86Zm.05-5.12c-1,0-1.64.5-1.64,2.3s.61,2.31,1.59,2.31,1.64-.5,1.64-2.31S26.48,64.74,25.5,64.74Z"/>
  <path class="cls-1" d="M31.28,69.75h-2a.67.67,0,0,1,0-.2.81.81,0,0,1,0-.22l.74-.07V62.58h-.74a.61.61,0,0,1,0-.19.61.61,0,0,1,0-.19,8,8,0,0,1,1.29-.2v7.23l.74.07a.81.81,0,0,1,0,.22A.91.91,0,0,1,31.28,69.75Z"/>
  <path class="cls-1" d="M34.84,69.75h-2a.67.67,0,0,1,0-.2.81.81,0,0,1,0-.22l.74-.07V64.83h-.74a.54.54,0,0,1,0-.18.67.67,0,0,1,0-.2,9.81,9.81,0,0,1,1.32-.12v5l.74.07a.81.81,0,0,1,0,.22Zm-1.08-6.61a.33.33,0,0,1-.35-.33v-.05a.35.35,0,0,1,.3-.41.35.35,0,0,1,.41.29.24.24,0,0,1,0,.12.34.34,0,0,1-.3.38Z"/>
  <path class="cls-1" d="M37.73,69.86a3.15,3.15,0,0,1-1.42-.3v-1h.46l.1.67a2.41,2.41,0,0,0,.92.16c.81,0,1.25-.37,1.25-1,0-1.35-2.64-1.1-2.64-2.63A1.59,1.59,0,0,1,38,64.21h.17a4.84,4.84,0,0,1,1.26.16v1H39l-.1-.65a3.91,3.91,0,0,0-.76-.07c-.78,0-1.19.36-1.19,1,0,1.11,2.64.89,2.64,2.66C39.59,69.33,38.77,69.86,37.73,69.86Z"/>
  <path class="cls-1" d="M43.61,69.86c-1.56,0-2.3-.93-2.3-2.76,0-2.08.92-2.87,2.27-2.87a4,4,0,0,1,1.41.26v1.06h-.46l-.1-.65a2.25,2.25,0,0,0-.85-.16c-1.08,0-1.68.62-1.68,2.36s.57,2.24,1.7,2.24A2.44,2.44,0,0,0,44.89,69a1.75,1.75,0,0,1,.14.51A3.07,3.07,0,0,1,43.61,69.86Z"/>
  <path class="cls-1" d="M51.85,69.75H49.91a.67.67,0,0,1,0-.2.81.81,0,0,1,0-.22l.7-.07V65.82a1,1,0,0,0-.94-1.06h-.06a2.79,2.79,0,0,0-1.67.55v4l.69.07a.81.81,0,0,1,0,.22.67.67,0,0,1,0,.2h-2a.67.67,0,0,1,0-.2.81.81,0,0,1,0-.22l.74-.07V62.58h-.74a.61.61,0,0,1,0-.19.61.61,0,0,1,0-.19,8,8,0,0,1,1.29-.2v2.8h0a2.58,2.58,0,0,1,1.7-.6c.81,0,1.53.33,1.53,1.59v3.44l.69.07a.81.81,0,0,1,0,.22A1.77,1.77,0,0,1,51.85,69.75Z"/>
  <path class="cls-1" d="M57.34,67H54c0,1.49.43,2.25,1.78,2.25A2.62,2.62,0,0,0,57.07,69a2.05,2.05,0,0,1,.18.49,3,3,0,0,1-1.52.38c-1.54,0-2.33-.87-2.33-2.74,0-2.06.89-2.89,2.1-2.89s1.86.69,1.86,2C57.36,66.5,57.35,66.79,57.34,67Zm-1.86-2.32c-.88,0-1.44.54-1.49,1.86h2.82V66.2c0-1.08-.51-1.48-1.33-1.48Z"/>
  <path class="cls-1" d="M62.15,64.86a1.19,1.19,0,0,0-.46-.06c-.36,0-.73.1-1.35.75v3.71l.74.07a.81.81,0,0,1,0,.22.67.67,0,0,1,0,.2h-2a.67.67,0,0,1,0-.2.81.81,0,0,1,0-.22l.73-.07V64.83h-.73a.54.54,0,0,1,0-.18.67.67,0,0,1,0-.2,9.09,9.09,0,0,1,1.28-.12V65h0c.64-.65,1-.76,1.42-.76a1.61,1.61,0,0,1,.44.06A3.07,3.07,0,0,1,62.15,64.86Z"/>
  <path class="cls-1" d="M5.41,82.05a.37.37,0,0,1-.32.41H5c-.4,0-.62-.16-.9-.57L2.64,79.73l-.82.89v1.24l.64.07a.81.81,0,0,1,0,.22.67.67,0,0,1,0,.2H.53a.67.67,0,0,1,0-.2.81.81,0,0,1,0-.22l.74-.07V75.18H.53a.61.61,0,0,1,0-.19.61.61,0,0,1,0-.19,8.43,8.43,0,0,1,1.32-.13V80h0c.22-.28.56-.7.91-1.1L4,77.45l-.68-.07a.81.81,0,0,1,0-.22.67.67,0,0,1,0-.2h2a.67.67,0,0,1,0,.2.81.81,0,0,1,0,.22l-.65.07L3,79.3l1.54,2.3a.56.56,0,0,0,.58.31h.27Z"/>
  <path class="cls-1" d="M9.05,82.46c-1.34,0-2.19-.8-2.19-2.82s1-2.81,2.23-2.81,2.19.8,2.19,2.81S10.32,82.46,9.05,82.46Zm0-5.12c-1,0-1.64.5-1.64,2.3S8.06,82,9.05,82s1.64-.5,1.64-2.31-.61-2.35-1.6-2.35Z"/>
  <path class="cls-1" d="M18.29,82.35H16.35a.67.67,0,0,1,0-.2.81.81,0,0,1,0-.22l.69-.07V78.42a.93.93,0,0,0-.81-1H16a2.79,2.79,0,0,0-1.67.55v4l.69.07a.81.81,0,0,1,0,.22.67.67,0,0,1,0,.2H13a.67.67,0,0,1,0-.2A.81.81,0,0,1,13,82l.74-.07V77.43H13a.54.54,0,0,1,0-.18.67.67,0,0,1,0-.2,8.06,8.06,0,0,1,1.29-.13v.56h.05a2.67,2.67,0,0,1,1.73-.61c.81,0,1.52.33,1.52,1.59V81.9l.7.07a.81.81,0,0,1,0,.22Z"/>
  <path class="cls-1" d="M22.32,75.19h-.45c-.53,0-.76.28-.76.92V77h1.24a2.4,2.4,0,0,1-.05.46H21.11v4.46l.79.07a.81.81,0,0,1,0,.22.67.67,0,0,1,0,.2H19.83a.67.67,0,0,1,0-.2.81.81,0,0,1,0-.22l.73-.07V77.4h-.68v-.46h.68v-.81a1.38,1.38,0,0,1,1.23-1.5h.61A2.1,2.1,0,0,1,22.32,75.19Z"/>
  <path class="cls-1" d="M27.81,79.63H24.45v.06c0,1.49.42,2.25,1.77,2.25a2.66,2.66,0,0,0,1.32-.35,2.22,2.22,0,0,1,.18.49,3,3,0,0,1-1.53.38c-1.53,0-2.32-.87-2.32-2.74,0-2.06.89-2.89,2.09-2.89a1.74,1.74,0,0,1,1.87,2C27.83,79.09,27.82,79.38,27.81,79.63Zm-1.87-2.31c-.87,0-1.43.54-1.48,1.86h2.82v-.34C27.29,77.72,26.76,77.32,25.94,77.32Z"/>
  <path class="cls-1" d="M30.88,82.46a3.15,3.15,0,0,1-1.42-.3v-1h.46l.1.67a2.57,2.57,0,0,0,.91.16c.81,0,1.26-.37,1.26-1,0-1.35-2.65-1.1-2.65-2.63a1.6,1.6,0,0,1,1.65-1.55h.16a4.45,4.45,0,0,1,1.26.16v1h-.46l-.1-.65a3.91,3.91,0,0,0-.76-.07c-.78,0-1.2.36-1.2,1,0,1.11,2.65.89,2.65,2.66C32.74,81.93,31.92,82.46,30.88,82.46Z"/>
  <path class="cls-1" d="M35.8,82.46a3.15,3.15,0,0,1-1.42-.3v-1h.46l.1.67a2.41,2.41,0,0,0,.92.16c.8,0,1.25-.37,1.25-1,0-1.35-2.64-1.1-2.64-2.63a1.59,1.59,0,0,1,1.63-1.55h.17a4.45,4.45,0,0,1,1.26.16v1h-.46l-.1-.65a3.91,3.91,0,0,0-.76-.07c-.78,0-1.2.36-1.2,1,0,1.11,2.65.89,2.65,2.66C37.66,81.93,36.84,82.46,35.8,82.46Z"/>
  <path class="cls-1" d="M41.39,82.35h-2a.67.67,0,0,1,0-.2.81.81,0,0,1,0-.22l.73-.07V77.43h-.73a.54.54,0,0,1,0-.18.67.67,0,0,1,0-.2,8.19,8.19,0,0,1,1.31-.13v5l.74.07a.81.81,0,0,1,0,.22A1,1,0,0,1,41.39,82.35Zm-1.08-6.61a.33.33,0,0,1-.35-.33v0a.35.35,0,0,1,.3-.41.35.35,0,0,1,.41.29.24.24,0,0,1,0,.12.34.34,0,0,1-.3.38Z"/>
  <path class="cls-1" d="M45.13,82.46c-1.34,0-2.19-.8-2.19-2.82s1-2.81,2.23-2.81,2.19.8,2.19,2.81S46.39,82.46,45.13,82.46Zm0-5.12c-1,0-1.64.5-1.64,2.3S44.14,82,45.13,82s1.64-.5,1.64-2.31-.62-2.35-1.6-2.35Z"/>
  <path class="cls-1" d="M54.36,82.35H52.42a.67.67,0,0,1,0-.2.81.81,0,0,1,0-.22l.7-.07V78.42a.93.93,0,0,0-.81-1h-.19a2.79,2.79,0,0,0-1.67.55v4l.7.07a.81.81,0,0,1,0,.22.67.67,0,0,1,0,.2h-2a.67.67,0,0,1,0-.2.81.81,0,0,1,0-.22l.74-.07V77.43h-.74a.54.54,0,0,1,0-.18.67.67,0,0,1,0-.2,8.06,8.06,0,0,1,1.29-.13v.56h0a2.67,2.67,0,0,1,1.73-.61c.81,0,1.53.33,1.53,1.59V81.9l.69.07a.81.81,0,0,1,0,.22Z"/>
  <path class="cls-1" d="M57.26,82.46a3.15,3.15,0,0,1-1.42-.3v-1h.46l.1.67a2.57,2.57,0,0,0,.91.16c.81,0,1.26-.37,1.26-1,0-1.35-2.65-1.1-2.65-2.63a1.6,1.6,0,0,1,1.65-1.55h.16A4.53,4.53,0,0,1,59,77v1h-.45l-.11-.65a3.81,3.81,0,0,0-.75-.07c-.78,0-1.2.36-1.2,1,0,1.11,2.65.89,2.65,2.66C59.12,81.93,58.3,82.46,57.26,82.46Z"/>
  <path class="cls-1" d="M62.68,82.46c-1,0-1.33-.52-1.33-1.6V77.4h-.67v-.46h.67V75.73a2.05,2.05,0,0,1,.55-.1v1.31h1.34a3.53,3.53,0,0,1,0,.46H61.9v3.51c0,.77.19,1,.76,1a2,2,0,0,0,.8-.17,1.54,1.54,0,0,1,.09.52A2.17,2.17,0,0,1,62.68,82.46Z"/>
  <path class="cls-1" d="M68.85,79.63H65.48v.06c0,1.49.43,2.25,1.78,2.25a2.66,2.66,0,0,0,1.32-.35,2.19,2.19,0,0,1,.17.49,3,3,0,0,1-1.52.38c-1.54,0-2.33-.87-2.33-2.74,0-2.06.89-2.89,2.1-2.89s1.87.69,1.87,2C68.87,79.09,68.86,79.38,68.85,79.63ZM67,77.32c-.87,0-1.43.54-1.49,1.86h2.83v-.34C68.33,77.72,67.8,77.32,67,77.32Z"/>
  <path class="cls-1" d="M72.58,82.35h-2a.67.67,0,0,1,0-.2.81.81,0,0,1,0-.22l.74-.07V77.43h-.74a.54.54,0,0,1,0-.18.67.67,0,0,1,0-.2,8.43,8.43,0,0,1,1.32-.13v5l.73.07a.81.81,0,0,1,0,.22A1,1,0,0,1,72.58,82.35Zm-1.07-6.61a.35.35,0,0,1-.36-.34v0a.38.38,0,0,1,.34-.4h0a.35.35,0,0,1,.35.37v0a.34.34,0,0,1-.3.38Z"/>
  <path class="cls-1" d="M76,82.35H74a.67.67,0,0,1,0-.2.81.81,0,0,1,0-.22l.74-.07V75.18H74A.61.61,0,0,1,74,75a.61.61,0,0,1,0-.19,8.43,8.43,0,0,1,1.32-.13V81.9l.74.07a.81.81,0,0,1,0,.22Z"/>
  <path class="cls-1" d="M5.54,95H4.25v-.46h0a2.42,2.42,0,0,1-1.59.57c-1.18,0-1.92-.76-1.92-2.69,0-2.08.87-2.94,2.34-2.94a3.44,3.44,0,0,1,1.18.23V87.78H3.53a.61.61,0,0,1,0-.19.61.61,0,0,1,0-.19,8.43,8.43,0,0,1,1.32-.13v7.22l.74.08a.81.81,0,0,1,0,.22A1.6,1.6,0,0,1,5.54,95ZM4.25,90.19a2.81,2.81,0,0,0-1.18-.25c-1.1,0-1.75.56-1.75,2.43,0,1.69.53,2.17,1.43,2.17A2.64,2.64,0,0,0,4.25,94Z"/>
  <path class="cls-1" d="M11,92.23H7.67v.06c0,1.49.43,2.25,1.78,2.25a2.62,2.62,0,0,0,1.31-.35,2.05,2.05,0,0,1,.18.49,3,3,0,0,1-1.53.38c-1.53,0-2.32-.87-2.32-2.74,0-2.06.89-2.89,2.1-2.89s1.86.69,1.86,2C11.05,91.69,11,92,11,92.23ZM9.17,89.92c-.88,0-1.44.54-1.49,1.86H10.5v-.34C10.51,90.32,10,89.92,9.17,89.92Z"/>
  <path class="cls-1" d="M14.11,95.06a3.23,3.23,0,0,1-1.43-.3v-1h.46l.11.67a2.57,2.57,0,0,0,.91.16c.81,0,1.25-.37,1.25-1,0-1.35-2.64-1.1-2.64-2.63a1.59,1.59,0,0,1,1.63-1.55h.17a4.45,4.45,0,0,1,1.26.16v1h-.46l-.1-.65a3.91,3.91,0,0,0-.76-.07c-.78,0-1.19.36-1.19,1,0,1.11,2.64.89,2.64,2.66C16,94.53,15.14,95.06,14.11,95.06Z"/>
  <path class="cls-1" d="M25.21,94.65a.36.36,0,0,1-.3.41H24.8c-.41,0-.62-.16-.9-.57l-1.46-2.16-.82.89v1.23l.65.08a.81.81,0,0,1,0,.22.67.67,0,0,1,0,.2H20.34a.67.67,0,0,1,0-.2.81.81,0,0,1,0-.22l.73-.08V87.78h-.73a.61.61,0,0,1,0-.19.61.61,0,0,1,0-.19,8.19,8.19,0,0,1,1.31-.13v5.35h0c.22-.28.57-.7.92-1.1L23.85,90h-.67a.81.81,0,0,1,0-.22.67.67,0,0,1,0-.2h2a.67.67,0,0,1,0,.2.81.81,0,0,1,0,.22l-.64.08L22.83,91.9l1.53,2.3a.58.58,0,0,0,.58.31h.27Z"/>
  <path class="cls-1" d="M31,94.65c0,.26-.16.41-.46.41a.91.91,0,0,1-.95-.53h-.05a2.74,2.74,0,0,1-1.56.53c-.92,0-1.56-.46-1.56-1.41,0-1.11.62-1.58,1.89-1.63l1.28,0V90.19a2.79,2.79,0,0,0-1.24-.26,3.4,3.4,0,0,0-1.3.23,2.33,2.33,0,0,1-.06-.53,4.13,4.13,0,0,1,1.35-.2,3.14,3.14,0,0,1,1.77.45v4.31c0,.23.09.32.39.32H31Zm-1.42-2.22H28.26c-1,0-1.26.37-1.26,1.12s.3,1,1,1A2.85,2.85,0,0,0,29.59,94Z"/>
  <path class="cls-1" d="M37.64,95H35.7a.67.67,0,0,1,0-.2.81.81,0,0,1,0-.22l.69-.08V91a.93.93,0,0,0-.81-1h-.19a2.79,2.79,0,0,0-1.67.55v3.94l.69.08a.81.81,0,0,1,0,.22.67.67,0,0,1,0,.2h-2a.67.67,0,0,1,0-.2.81.81,0,0,1,0-.22l.74-.08V90h-.76a.54.54,0,0,1,0-.18.67.67,0,0,1,0-.2,8.06,8.06,0,0,1,1.29-.13v.56h0a2.67,2.67,0,0,1,1.73-.61c.81,0,1.52.33,1.52,1.59v3.43l.7.08a.81.81,0,0,1,0,.22A1,1,0,0,1,37.64,95Z"/>
  <path class="cls-1" d="M41,95.06c-1,0-1.33-.52-1.33-1.6V90H39v-.46h.68V88.33a2.05,2.05,0,0,1,.55-.1v1.31H41.6a3.53,3.53,0,0,1,0,.46H40.3v3.51c0,.77.18,1,.76,1a2.38,2.38,0,0,0,.79-.17,1.55,1.55,0,0,1,.1.52A2.08,2.08,0,0,1,41,95.06Z"/>
  <path class="cls-1" d="M45.45,95.06c-1.34,0-2.19-.8-2.19-2.82s1-2.81,2.23-2.81,2.19.8,2.19,2.81S46.71,95.06,45.45,95.06Zm0-5.12c-1,0-1.64.5-1.64,2.3s.61,2.31,1.6,2.31,1.64-.5,1.64-2.31-.57-2.3-1.56-2.3Z"/>
  <path class="cls-1" d="M54.69,95H52.75a.67.67,0,0,1,0-.2.81.81,0,0,1,0-.22l.69-.08V91a.93.93,0,0,0-.81-1h-.19a2.79,2.79,0,0,0-1.67.55v3.94l.7.08a.81.81,0,0,1,0,.22.67.67,0,0,1,0,.2h-2v-.42l.74-.08V90h-.78v-.38a8.06,8.06,0,0,1,1.29-.13v.56h0a2.67,2.67,0,0,1,1.73-.61c.81,0,1.53.33,1.53,1.59v3.43l.7.08a.81.81,0,0,1,0,.22A1,1,0,0,1,54.69,95Z"/>
  <path class="cls-1" d="M57.58,95.06a3.15,3.15,0,0,1-1.42-.3v-1h.46l.1.67a2.41,2.41,0,0,0,.92.16c.8,0,1.25-.37,1.25-1,0-1.35-2.64-1.1-2.64-2.63a1.59,1.59,0,0,1,1.63-1.55h.17a4.45,4.45,0,0,1,1.26.16v1h-.46l-.1-.65a3.91,3.91,0,0,0-.76-.07c-.78,0-1.2.36-1.2,1,0,1.11,2.65.89,2.65,2.66C59.44,94.53,58.62,95.06,57.58,95.06Z"/>
  <path class="cls-1" d="M2.08,107.66a3.23,3.23,0,0,1-1.43-.3v-1h.46l.1.67a2.41,2.41,0,0,0,.92.16c.81,0,1.25-.38,1.25-1,0-1.34-2.64-1.1-2.64-2.63A1.59,1.59,0,0,1,2.35,102h.19a4.45,4.45,0,0,1,1.26.16v1H3.34l-.1-.65a3.91,3.91,0,0,0-.76-.07c-.78,0-1.19.36-1.19,1,0,1.12,2.64.9,2.64,2.67C3.93,107.13,3.11,107.66,2.08,107.66Z"/>
  <path class="cls-1" d="M7.49,107.66c-1,0-1.32-.52-1.32-1.6V102.6H5.49v-.46h.68v-1.21a2.05,2.05,0,0,1,.55-.1v1.31H8.05a3.53,3.53,0,0,1,0,.46H6.72v3.51c0,.77.18,1,.75,1a2.21,2.21,0,0,0,.8-.17,1.84,1.84,0,0,1,.1.52A2.06,2.06,0,0,1,7.49,107.66Z"/>
  <path class="cls-1" d="M10.07,107.66a.35.35,0,0,1-.37-.35v0a.39.39,0,0,1,.31-.44.39.39,0,0,1,.44.32.24.24,0,0,1,0,.12.36.36,0,0,1-.32.4Z"/>
  <path class="cls-1" d="M13.9,109.79c-1.56,0-2.08-.55-2.08-1.42a1.58,1.58,0,0,1,.57-1.18,2.09,2.09,0,0,1-.3-.76,5.21,5.21,0,0,1,.61-1.11,1.91,1.91,0,0,1,.87-3.31h.27a2.94,2.94,0,0,1,.78.11h1.51a1.4,1.4,0,0,1-.06.41h-.85a1.7,1.7,0,0,1,.4,1.22,1.66,1.66,0,0,1-1.49,1.8h-.25a2.94,2.94,0,0,1-.78-.11,2.07,2.07,0,0,0-.45.9c0,.26.16.35.4.35h1.74c.86,0,1.38.32,1.38,1.32S15.47,109.79,13.9,109.79Zm.87-2.48h-2a1.41,1.41,0,0,0-.45,1c0,.71.48,1,1.54,1s1.73-.32,1.73-1.16C15.63,107.47,15.35,107.31,14.77,107.31Zm-.94-4.81c-.78,0-1.22.45-1.22,1.34s.45,1.34,1.22,1.34,1.23-.39,1.23-1.34S14.63,102.5,13.83,102.5Z"/>
  <path class="cls-1" d="M22.12,107.25c0,.26-.16.41-.46.41a.94.94,0,0,1-.95-.53h0a2.7,2.7,0,0,1-1.57.53,1.37,1.37,0,0,1-1.55-1.17,2,2,0,0,1,0-.25c0-1.11.63-1.57,1.89-1.62l1.27-.06v-1.77a2.79,2.79,0,0,0-1.24-.26,3.35,3.35,0,0,0-1.29.23,2.33,2.33,0,0,1-.07-.53,4.13,4.13,0,0,1,1.35-.2,3.2,3.2,0,0,1,1.78.45v4.31c0,.23.08.32.38.32h.51ZM20.7,105H19.38c-.95,0-1.25.37-1.25,1.12s.3,1,1,1a2.91,2.91,0,0,0,1.56-.52Z"/>
  <path class="cls-1" d="M25.34,107.55h-2a.67.67,0,0,1,0-.2.81.81,0,0,1,0-.22l.73-.08v-6.67h-.73a.61.61,0,0,1,0-.19.61.61,0,0,1,0-.19,8.19,8.19,0,0,1,1.31-.13v7.22l.74.08a.81.81,0,0,1,0,.22A1,1,0,0,1,25.34,107.55Z"/>
  <path class="cls-1" d="M28.71,107.55h-2a.67.67,0,0,1,0-.2.81.81,0,0,1,0-.22l.74-.08v-6.67h-.74a.61.61,0,0,1,0-.19.61.61,0,0,1,0-.19A8,8,0,0,1,28,99.83v7.22l.73.08a.81.81,0,0,1,0,.22A1.36,1.36,0,0,1,28.71,107.55Z"/>
  <path class="cls-1" d="M34.2,104.83H30.84v.06c0,1.49.43,2.25,1.78,2.25a2.62,2.62,0,0,0,1.31-.35,2.05,2.05,0,0,1,.18.49,3,3,0,0,1-1.52.38c-1.54,0-2.33-.87-2.33-2.74,0-2.06.89-2.89,2.1-2.89s1.87.69,1.87,2C34.23,104.29,34.22,104.58,34.2,104.83Zm-1.86-2.31c-.88,0-1.44.54-1.49,1.86h2.83V104C33.69,102.92,33.16,102.52,32.34,102.52Z"/>
  <path class="cls-1" d="M41.17,107.55H39.23a.67.67,0,0,1,0-.2.81.81,0,0,1,0-.22l.69-.08v-3.43a.93.93,0,0,0-.81-1.05h-.19a2.79,2.79,0,0,0-1.67.55v3.94l.69.08a.81.81,0,0,1,0,.22.67.67,0,0,1,0,.2h-2a.67.67,0,0,1,0-.2.81.81,0,0,1,0-.22l.74-.08v-4.42h-.74a.54.54,0,0,1,0-.18.67.67,0,0,1,0-.2,8.06,8.06,0,0,1,1.29-.13v.56h0A2.7,2.7,0,0,1,39,102c.81,0,1.53.33,1.53,1.59V107l.69.08a.81.81,0,0,1,0,.22A1.55,1.55,0,0,1,41.17,107.55Z"/>
  <path class="cls-1" d="M3.6,8.8A6.1,6.1,0,0,1,.75,8.19v-2H2.67l.15.73A3.17,3.17,0,0,0,3.69,7c.73,0,1-.23,1-.76C4.69,5,.77,5.48.77,2.76.76,1,2.34,0,4.27,0A8.76,8.76,0,0,1,6.66.31V2.47H4.75l-.15-.7A3.07,3.07,0,0,0,4,1.7c-.65,0-.93.27-.93.75C3.05,3.49,7,3.15,7,6,7,7.89,5.44,8.8,3.6,8.8Z"/>
  <path class="cls-1" d="M12.45,12.15c-2.64,0-3.6-.9-3.6-2.28A2,2,0,0,1,9.71,8.3a6.86,6.86,0,0,1-.59-1.22A7.78,7.78,0,0,1,10,5.13,2.52,2.52,0,0,1,9.09,3a2.83,2.83,0,0,1,2.66-3,2.36,2.36,0,0,1,.46,0,6.7,6.7,0,0,1,1.41.16H16.3a8.46,8.46,0,0,1-.13,1.59l-.94.07v.11a2.07,2.07,0,0,1,.31,1.16,2.67,2.67,0,0,1-3,2.81,4.11,4.11,0,0,1-1.1-.15,1.56,1.56,0,0,0-.28.75c0,.27.12.34.39.34h2.23c1.57,0,2.58.48,2.58,2.3S15.1,12.15,12.45,12.15Zm1.22-3.4H11.06a1.47,1.47,0,0,0-.18.64c0,.79.39,1,1.64,1s1.77-.23,1.77-1.06C14.29,8.83,14.11,8.75,13.67,8.75ZM12.34,1.62c-.76,0-1.12.36-1.12,1.32s.34,1.33,1.12,1.33,1.15-.37,1.15-1.35S13.1,1.62,12.34,1.62Z"/>
  <path class="cls-1" d="M19.29,8.8a1.09,1.09,0,0,1-1.23-1,.87.87,0,0,1,0-.23A1.15,1.15,0,0,1,19.14,6.4h.16a1.13,1.13,0,0,1,1.22,1,.61.61,0,0,1,0,.19,1.11,1.11,0,0,1-1,1.18Z"/>
  <path class="cls-1" d="M9,22c0,.86-.41,1.33-1.27,1.33S6.46,23.12,5.83,22l-1-1.82-.9,1v.16l.54.17a5.61,5.61,0,0,1,0,.82,6.17,6.17,0,0,1,0,.86H.73a6.17,6.17,0,0,1,0-.86,5.61,5.61,0,0,1,0-.82l1-.17V13.1L.7,13a5.61,5.61,0,0,1,0-.82,5.75,5.75,0,0,1,0-.83A21.45,21.45,0,0,1,4,11.12l-.08,2v5.94H4a9.08,9.08,0,0,1,1.24-1.77l.62-.7-.75-.16v-1.7H8.9a6.17,6.17,0,0,1,0,.86,5.89,5.89,0,0,1,0,.84l-.9.16L6.33,18.48c.47.79.93,1.59,1.4,2.37a.86.86,0,0,0,.89.54H9Z"/>
  <path class="cls-1" d="M18.41,22c0,.89-.39,1.35-1.38,1.35a1.57,1.57,0,0,1-1.62-.88h-.1a3.3,3.3,0,0,1-2.27.88,2.23,2.23,0,0,1-2.51-1.93,2,2,0,0,1,0-.54c0-1.85,1.06-2.47,3.1-2.54H15v-1.5a3.53,3.53,0,0,0-1.47-.28,5,5,0,0,0-2,.38,8.42,8.42,0,0,1-.31-2,8.51,8.51,0,0,1,2.4-.36,6,6,0,0,1,3.5.95V21c0,.31.11.44.4.44h.86ZM15,19.65l-1.23.06c-.76,0-1,.29-1,1.06s.26,1,.87,1A2.53,2.53,0,0,0,15,21.35Z"/>
  <path class="cls-1" d="M23.54,23.37c-2,0-2.87-.86-2.87-2.91V16.61h-1V14.73h1V13a13.58,13.58,0,0,1,2.21-.36v2.07H25c0,.63-.05,1.26-.11,1.88h-2v3.85c0,.75.27.89.91.89A3.77,3.77,0,0,0,25.12,21a13.62,13.62,0,0,1,.31,2A4.9,4.9,0,0,1,23.54,23.37Z"/>
  <path class="cls-1" d="M36,23.2H32.08a6.17,6.17,0,0,1,0-.86,5.61,5.61,0,0,1,0-.82l.7-.17V17.5c0-.56-.19-.95-1.05-.95a3,3,0,0,0-1.55.42v4.38l.75.17a7.52,7.52,0,0,1,.05.82,8.27,8.27,0,0,1-.05.86H27V21.52l1-.17V13.1L27,13V11.35a21.71,21.71,0,0,1,3.32-.23l-.08,2v2.4h.12a3.14,3.14,0,0,1,2.32-1c1.44,0,2.36.83,2.36,2.62v4.17l1,.17v.82C36,22.57,36,22.93,36,23.2Z"/>
  <path class="cls-1" d="M38.85,23.37a1.11,1.11,0,0,1-1.23-1,1.47,1.47,0,0,1,0-.21A1.16,1.16,0,0,1,38.76,21h.11a1.14,1.14,0,0,1,1.22,1.05v.17A1.12,1.12,0,0,1,39,23.38Z"/>
  <path class="cls-1" d="M4.68,37.93c-2.62,0-4-1.4-4-4.37s1.71-4.43,3.85-4.43a7.22,7.22,0,0,1,2.44.4v2.59H5.06l-.16-1a2.48,2.48,0,0,0-.54-.06c-.91,0-1.36.6-1.36,2.39,0,2,.55,2.43,1.8,2.43a3.86,3.86,0,0,0,1.79-.48,11.35,11.35,0,0,1,.45,2A5.22,5.22,0,0,1,4.68,37.93Z"/>
  <path class="cls-1" d="M18,37.77H14.08a8.27,8.27,0,0,1-.05-.86,7.7,7.7,0,0,1,.05-.83l.7-.16V32.07c0-.57-.2-1-1.06-1a3.1,3.1,0,0,0-1.54.42v4.39l.74.16a5.78,5.78,0,0,1,.05.83,6.2,6.2,0,0,1-.05.86H9V36l1-.16V27.67l-1-.1V25.91a21.84,21.84,0,0,1,3.33-.23l-.08,2v2.41h.11a3.1,3.1,0,0,1,2.32-1c1.45,0,2.36.83,2.36,2.61v4.18L18,36v.83C18,37.15,18,37.49,18,37.77Z"/>
  <rect y="46.53" width="46.75" height="5.2"/>
</svg>
